<svg width="1440" height="930" viewBox="0 0 1440 930" fill="none" xmlns="http://www.w3.org/2000/svg">
<g style="mix-blend-mode:multiply">
<mask id="path-1-inside-1_1_133" fill="white">
<path d="M109.087 528.774L251.718 661.657C251.718 661.657 363.381 710.071 455.423 675.222"/>
</mask>
<path d="M251.718 661.657L251.037 662.389L251.163 662.506L251.321 662.574L251.718 661.657ZM108.405 529.505L251.037 662.389L252.4 660.925L109.768 528.042L108.405 529.505ZM251.718 661.657C251.321 662.574 251.321 662.575 251.322 662.575C251.323 662.576 251.325 662.576 251.327 662.577C251.33 662.579 251.336 662.581 251.343 662.584C251.357 662.59 251.378 662.599 251.406 662.611C251.461 662.635 251.544 662.67 251.652 662.716C251.869 662.808 252.191 662.943 252.614 663.117C253.46 663.465 254.711 663.971 256.334 664.601C259.58 665.862 264.316 667.623 270.286 669.625C282.224 673.63 299.1 678.605 318.862 682.489C358.362 690.252 409.504 693.678 455.777 676.157L455.069 674.287C409.3 691.616 358.59 688.259 319.248 680.527C299.589 676.663 282.797 671.713 270.922 667.729C264.985 665.737 260.278 663.988 257.058 662.737C255.448 662.112 254.21 661.611 253.376 661.268C252.958 661.096 252.642 660.963 252.431 660.874C252.325 660.829 252.246 660.795 252.193 660.773C252.167 660.761 252.147 660.753 252.134 660.747C252.128 660.745 252.123 660.743 252.12 660.741C252.119 660.741 252.118 660.74 252.117 660.74C252.116 660.74 252.116 660.74 251.718 661.657Z" fill="url(#paint0_linear_1_133)" fill-opacity="0.2" mask="url(#path-1-inside-1_1_133)"/>
</g>
<path d="M1511.11 929.372C1461.03 817.004 1398.95 714.815 1302.16 665.683C1238.13 633.193 1168.92 627.603 1100.93 623.012C966.828 613.986 835.305 583.394 703.318 552.263C579.421 522.978 455.524 489.411 336.255 437.022C274.175 409.815 212.981 377.504 155.913 335.859C86.0658 284.983 42.1374 217.131 0.422455 129.842" stroke="url(#paint1_linear_1_133)" stroke-opacity="0.2" stroke-width="2" stroke-miterlimit="10"/>
<path d="M1511.11 904.217C1462.01 795.13 1401.79 703.199 1308.21 655.99C1242.49 622.834 1172.91 619.833 1103.2 616.679C967.854 610.55 834.298 584.42 700.923 555.135C576.483 527.723 452.163 494.181 332.472 441.997C273.35 416.098 214.35 386.172 159.656 347.271C92.8875 299.78 45.3772 231.287 0.382202 153.485" stroke="url(#paint2_linear_1_133)" stroke-opacity="0.2" stroke-width="1.97" stroke-miterlimit="10"/>
<path d="M1511.11 875.034C1459.72 765.999 1394.98 681.018 1297.81 643.322C1231.75 617.679 1165 618.499 1096.58 618.294C961.979 617.858 828.765 592.882 696.335 563.289C573.585 535.826 451.097 500.694 333.478 447.356C202.92 388.146 97.7172 308.985 0.32196 182.539" stroke="url(#paint3_linear_1_133)" stroke-opacity="0.2" stroke-width="1.93" stroke-miterlimit="10"/>
<path d="M1511.11 842.391C1458.96 740.048 1393.98 668.016 1299.64 639.091C1227.2 616.807 1155.04 623.705 1081.39 627.218C949.704 633.578 818.965 607.934 689.795 576.957C570.667 548.365 452.344 510.464 338.81 455.844C214.33 395.993 109.248 308.806 0.241486 213.311" stroke="url(#paint4_linear_1_133)" stroke-opacity="0.2" stroke-width="1.89" stroke-miterlimit="10"/>
<path d="M1511.26 806.875C1401.18 613.14 1243.24 621.654 1074.59 641.425C942.137 656.939 811.077 630.116 681.464 595.959C562.9 564.674 445.784 522.055 333.84 462.819C217.429 401.276 116.512 302.036 0.241486 242.288" stroke="url(#paint5_linear_1_133)" stroke-opacity="0.2" stroke-width="1.86" stroke-miterlimit="10"/>
<path d="M1511.34 769.077C1391.52 585.394 1218.26 630.808 1054.54 661.529C925.536 685.762 797.051 656.682 671.101 620.346C556.4 587.266 443.812 541.365 336.416 480.154C280.14 448.238 225.534 411.741 172.937 370.888C116.592 326.91 66.285 281.778 0.140747 265.469" stroke="url(#paint6_linear_1_133)" stroke-opacity="0.2" stroke-width="1.82" stroke-miterlimit="10"/>
<path d="M1511.4 729.586C1384.18 564.392 1199.71 639.604 1044.1 682.685C914.991 718.431 786.064 688.813 659.349 649.707C544.933 614.711 433.805 564.125 327.884 498.823C275.232 466.243 224.114 429.785 174.788 389.634C118.444 343.732 67.3516 296.908 0.120728 282.394" stroke="url(#paint7_linear_1_133)" stroke-opacity="0.2" stroke-width="1.78" stroke-miterlimit="10"/>
<path d="M1511.48 688.993C1373.53 542.519 1178.28 652.708 1027.14 707.174C899.859 753.05 772.46 722.97 646.813 681.531C534.581 644.459 426.053 591.115 323.356 522.543C217.569 452.229 118.605 329.321 0.140747 298.677" stroke="url(#paint8_linear_1_133)" stroke-opacity="0.2" stroke-width="1.75" stroke-miterlimit="10"/>
<path d="M1511.56 647.887C1360.29 521.286 1154.54 669.555 1003.87 735.074C881.386 788.335 755.618 757.255 633.753 714.687C525.27 676.787 420.953 620.884 322.712 551.186C216.604 475.897 119.47 352.015 0.100739 314.653" stroke="url(#paint9_linear_1_133)" stroke-opacity="0.2" stroke-width="1.71" stroke-miterlimit="10"/>
<path d="M1511.64 606.883C1417.36 547.724 1314.05 590.138 1220.68 634.168C1143.07 670.786 1068.95 716.739 992.606 756.999C869.191 822.081 745.556 793.464 620.894 747.511C512.653 707.636 409.603 647.502 313.013 573.804C209.561 494.822 117.196 374.633 0.221222 330.321" stroke="url(#paint10_linear_1_133)" stroke-opacity="0.2" stroke-width="1.67" stroke-miterlimit="10"/>
<path d="M1511.72 566.572C1414.44 523.953 1312.22 576.599 1222.23 626.5C1136.22 674.197 1054.91 733.151 970.108 783.693C851.765 854.289 729.518 825.671 608.458 779.129C503.678 738.843 404.633 677.197 312.148 602.909C208.454 519.619 116.955 398.481 0.241486 345.707" stroke="url(#paint11_linear_1_133)" stroke-opacity="0.2" stroke-width="1.64" stroke-miterlimit="10"/>
<path d="M1511.8 527.517C1407.94 499.13 1302.52 565.854 1211.46 623.885C1123.89 679.659 1041.28 746.228 954.855 804.336C838.907 882.291 717.706 855.93 596.928 808.106C493.697 767.23 397.046 703.327 307.157 627.398C204.57 540.852 114.58 421.405 0.140747 360.81" stroke="url(#paint12_linear_1_133)" stroke-opacity="0.2" stroke-width="1.6" stroke-miterlimit="10"/>
<path d="M1511.86 490.335C1402.41 475.846 1294.87 553.904 1201.97 619.423C1112.92 682.249 1029.23 755.64 941.393 820.773C827.899 904.909 707.363 881.702 586.725 833.313C484.843 792.463 390.265 726.791 302.589 649.861C201.109 560.854 112.145 443.561 0.140747 375.658" stroke="url(#paint13_linear_1_133)" stroke-opacity="0.2" stroke-width="1.56" stroke-miterlimit="10"/>
<path d="M1511.92 455.614C1398.1 453.742 1289.1 540.518 1194.2 612.601C1103.81 681.223 1019.31 760.512 930.386 831.723C819.347 920.654 698.971 901.524 578.234 853.52C477.478 813.439 384.791 746.972 298.846 669.632C198.111 579.009 109.368 464.486 0.0602417 390.249" stroke="url(#paint14_linear_1_133)" stroke-opacity="0.2" stroke-width="1.53" stroke-miterlimit="10"/>
<path d="M1511.96 423.944C1395.11 432.484 1285.19 525.62 1188.5 602.832C1097 675.889 1012.06 759.82 922.316 835.954C813.652 928.142 692.653 913.935 572.177 867.521C472.326 829.056 381.008 762.64 296.492 685.762C196.118 594.677 106.793 483.77 0.140747 404.609" stroke="url(#paint15_linear_1_133)" stroke-opacity="0.2" stroke-width="1.49" stroke-miterlimit="10"/>
<path d="M1511.98 395.993C1393.54 411.892 1283.14 509.208 1185.28 589.676C1092.96 665.555 1007.86 752.767 917.648 832.262C811.338 926.065 688.87 917.551 568.353 874.137C345.35 793.668 191.671 569.931 0.140747 418.739" stroke="url(#paint16_linear_1_133)" stroke-opacity="0.2" stroke-width="1.45" stroke-miterlimit="10"/>
<path d="M1512 371.94C1393.21 390.249 1283.02 491.386 1185.12 572.932C1092.56 649.861 1007.64 738.356 917.487 819.312C813.169 912.987 688.749 910.525 568.474 871.624C348.007 800.182 187.023 583.727 0.140747 432.663" stroke="url(#paint17_linear_1_133)" stroke-opacity="0.2" stroke-width="1.42" stroke-miterlimit="10"/>
<path d="M1512 344.835C1392.77 361.349 1285.05 473.513 1188.44 556.468C1097.06 634.937 1011.36 722.073 921.23 802.182C817.898 893.908 692.311 896.267 572.498 862.29C352.293 799.823 186.862 592.959 0.140747 446.382" stroke="url(#paint18_linear_1_133)" stroke-opacity="0.2" stroke-width="1.38" stroke-miterlimit="10"/>
<path d="M1512 311.704C1392.71 329.654 1289.06 454.126 1194.68 540.083C1105.68 621.141 1018.16 707.277 927.428 785.052C824.659 873.137 696.637 880.266 577.59 851.443C357.565 798.156 187.647 600.908 0.0602417 459.896" stroke="url(#paint19_linear_1_133)" stroke-opacity="0.2" stroke-width="1.34" stroke-miterlimit="10"/>
<path d="M1512 273.752C1388.04 296.061 1283.52 445.562 1188.44 537.877C1108.86 615.397 1025.75 693.121 941.755 762.692C837.216 849.366 704.868 863.162 583.566 839.006C363.562 795.13 189.156 607.678 0 473.179" stroke="url(#paint20_linear_1_133)" stroke-opacity="0.2" stroke-width="1.31" stroke-miterlimit="10"/>
<path d="M1512 232.21C1388.75 260.546 1291.07 425.15 1199.43 522.312C1122.96 603.268 1036.96 679.608 951.917 745.408C847.74 826.005 710.22 844.109 590.388 825.518C370.343 791.361 191.148 613.756 0.140747 486.437" stroke="url(#paint21_linear_1_133)" stroke-opacity="0.2" stroke-width="1.27" stroke-miterlimit="10"/>
<path d="M1512 188.283C1458.17 204.079 1419.15 246.878 1379.39 294.6C1322.06 363.375 1270.02 438.997 1211.93 506.772C1138.96 591.933 1049.9 666.17 963.508 727.765C859.573 801.874 716.197 823.902 597.853 810.901C377.628 786.642 193.583 619.089 0.140747 499.463" stroke="url(#paint22_linear_1_133)" stroke-opacity="0.2" stroke-width="1.23" stroke-miterlimit="10"/>
<path d="M1512 143.048C1458.41 162.665 1421.85 210.49 1384.62 262.11C1330.45 337.219 1281.77 418.534 1225.47 491.207C1155.78 581.137 1064.22 652.272 976.085 709.636C911.691 751.562 840.657 762.999 770.227 780.257C716.106 793.604 660.923 798.632 605.862 795.233C385.355 781.206 196.32 624.013 0.16098 512.362" stroke="url(#paint23_linear_1_133)" stroke-opacity="0.2" stroke-width="1.2" stroke-miterlimit="10"/>
<path d="M1512 97.839C1459.48 120.918 1426.48 172.538 1392.05 226.568C1341.22 306.293 1297.03 392.429 1243.78 469.717C1174.74 569.905 1076.94 641.091 982.182 695.506C917.024 732.919 844.964 737.715 775.72 757.281C722.758 772.385 668.603 779.639 614.334 778.898C393.444 775.282 199.258 628.68 0.140747 525.03" stroke="url(#paint24_linear_1_133)" stroke-opacity="0.2" stroke-width="1.16" stroke-miterlimit="10"/>
<path d="M1512 53.8097C1459.86 80.7095 1429.38 137.099 1397.48 194.489C1349.87 280.137 1309.08 371.555 1257.77 453.87C1191.74 559.777 1092.76 625.885 995.463 676.094C927.589 711.149 854.723 710.02 784.172 733.022C731.533 750.323 677.53 760.001 623.188 761.871C401.836 768.871 202.397 633.398 0.16098 537.775" stroke="url(#paint25_linear_1_133)" stroke-opacity="0.2" stroke-width="1.12" stroke-miterlimit="10"/>
<path d="M1512 12.1651C1453.32 46.1424 1422.15 121.816 1390.32 190.463C1352.75 271.444 1317.87 354.579 1275.03 431.509C1212.55 543.75 1115.3 604.806 1016.09 652.426C944.753 686.736 872.512 677.659 800.452 705.302C745.773 726.452 689.366 739.513 632.344 744.228C410.287 762.05 205.737 638.219 0.201233 550.263" stroke="url(#paint26_linear_1_133)" stroke-opacity="0.2" stroke-width="1.09" stroke-miterlimit="10"/>
<path d="M1512 -25.864C1453.64 10.9597 1425.17 91.8128 1395.93 162.87C1360.98 247.775 1328.68 334.911 1287.59 415.354C1227.96 532.107 1130.03 588.112 1029.09 631.911C955.298 663.914 882.433 648.451 809.446 679.787C755.015 703.297 698.688 718.969 641.52 726.509C418.779 755.306 209.158 643.579 0.140747 562.802" stroke="url(#paint27_linear_1_133)" stroke-opacity="0.2" stroke-width="1.05" stroke-miterlimit="10"/>
<path d="M1512 -59.1232C1454.31 -21.6328 1429.09 61.4 1402.41 133.201C1370.09 220.234 1340.59 309.396 1302.04 392.377C1267.26 467.256 1232.85 507.233 1172.93 543.339C1127.83 570.521 1081.63 595.113 1033.78 613.14C988.521 630.193 951.012 632.808 904.246 629.654C871.144 627.423 846.433 640.912 816.107 655.298C762.663 680.604 707.243 698.529 650.797 708.764C427.331 748.562 212.438 649.374 0.140747 575.162" stroke="url(#paint28_linear_1_133)" stroke-opacity="0.2" stroke-width="1.01" stroke-miterlimit="10"/>
<path d="M1512 -86.3817C1453.84 -49.1733 1430.96 37.5008 1406.23 110.379C1376.05 199.643 1348.62 291.087 1311.35 376.094C1278.17 451.767 1244.95 489.925 1185.02 524.466C1139.6 550.648 1092.96 573.881 1044.8 590.472C998.522 606.473 960.832 607.345 913.362 602.575C879.615 599.19 855.79 613.602 825.364 629.373C772.076 657.115 716.658 677.682 660.013 690.737C435.783 741.895 215.96 655.888 0.140747 587.497" stroke="url(#paint29_linear_1_133)" stroke-opacity="0.2" stroke-width="0.98" stroke-miterlimit="10"/>
<path d="M1512 -106.461C1452.98 -71.8165 1431.95 18.0374 1408.85 90.9924C1380.21 181.359 1354.76 274.059 1318.42 359.99C1286.62 435.176 1253.72 470.871 1194.66 503.926C1149.24 529.338 1102.62 551.34 1054.42 566.803C1007.24 581.984 969.907 581.291 921.994 575.214C887.785 570.88 864.845 586.471 834.58 603.601C781.393 633.813 725.929 657.046 669.049 672.94C444.094 735.381 219.542 663.196 0.140747 599.677" stroke="url(#paint30_linear_1_133)" stroke-opacity="0.2" stroke-width="0.94" stroke-miterlimit="10"/>
<path d="M1512 -118C1453.64 -86.1767 1433.52 1.72829 1411.61 72.7601C1381.42 170.538 1356.03 273.547 1314.03 364.452C1264.37 471.897 1159.77 509.772 1069.84 538.826C1022.85 553.956 985.623 556.776 938.314 549.083C899.457 542.801 875.329 558.597 841.04 579.599C788.565 611.852 733.736 637.472 677.339 656.093C450.634 730.484 224.733 668.094 0.140747 613.627" stroke="url(#paint31_linear_1_133)" stroke-opacity="0.2" stroke-width="0.9" stroke-miterlimit="10"/>
<path d="M1511.96 -116.641C1456.28 -77.4067 1435.07 4.5748 1411.87 76.7862C1384.86 160.947 1360.68 247.262 1325.58 326.757C1270.02 452.408 1171.34 479.667 1066.9 503.695C1021.68 514.157 980.371 512.978 934.893 514.901C901.489 516.286 878.328 534.544 849.652 553.853C796.361 589.983 740.42 619.373 682.632 641.604C582.138 679.915 477.377 693.301 372.738 688.942C247.754 683.813 125.346 651.4 0.241486 646.143" stroke="url(#paint32_linear_1_133)" stroke-opacity="0.2" stroke-width="0.87" stroke-miterlimit="10"/>
<path d="M1511.9 -103.152C1459.9 -60.5078 1437.44 13.9859 1413.3 84.4022C1386.84 161.947 1362.99 242.518 1328.14 314.679C1266.86 441.279 1175.7 446.408 1068.55 457.409C1025.02 461.896 978.801 462.973 936.422 477.231C905.514 487.616 880.239 510.054 852.912 530.082C799.757 569.367 743.742 602.001 685.65 627.526C585.84 670.837 480.818 689.454 375.535 689.249C316.051 689.121 256.95 682.608 197.869 674.351C129.934 664.837 67.432 675.889 0.140747 689.429" stroke="url(#paint33_linear_1_133)" stroke-opacity="0.2" stroke-width="0.83" stroke-miterlimit="10"/>
<path d="M1511.82 -80.535C1416.9 5.65198 1393.88 186.155 1330.47 305.986C1300.08 363.401 1267.32 401.173 1212.95 410.789C1165.12 419.252 1116.22 410.431 1068.29 408.533C1021.24 406.661 977.735 408.815 935.477 438.177C906.922 457.999 881.366 484.924 853.757 506.823C800.938 549.08 745.079 584.826 686.938 613.576C587.973 661.939 483.273 685.762 377.587 689.608C318.124 691.788 259.103 686.788 199.861 680.838C127.982 673.658 68.0357 701.481 0.140747 729.125" stroke="url(#paint34_linear_1_133)" stroke-opacity="0.2" stroke-width="0.79" stroke-miterlimit="10"/>
<path d="M1511.72 -51.8146C1423.82 34.1158 1397.88 189.232 1332.62 299.652C1258.73 424.355 1172.67 380.53 1066.86 363.503C1014.7 355.118 974.716 357.785 932.338 401.532C905.232 429.509 881.084 459.204 852.007 484.155C799.686 529.427 744.128 568.304 686.073 600.267C588.456 653.4 484.38 682.326 378.593 690.326C319.372 694.763 260.472 691.788 201.31 687.608C125.527 682.223 68.6997 721.509 0.261475 759.204" stroke="url(#paint35_linear_1_133)" stroke-opacity="0.2" stroke-width="0.76" stroke-miterlimit="10"/>
<path d="M1511.6 -20.0429C1431.49 63.2207 1400.92 196.617 1334.33 294.728C1253.54 413.61 1169.02 352.989 1065.01 328.731C1009.57 315.909 969.726 318.602 927.729 370.965C901.569 403.635 877.764 434.586 847.962 462.127C796.211 510.335 741.059 552.314 683.215 587.522C587.088 645.399 483.817 679.53 378.07 691.608C319.231 698.301 260.512 697.404 201.552 694.891C122.187 691.531 68.9212 742.587 0.845184 789.412" stroke="url(#paint36_linear_1_133)" stroke-opacity="0.2" stroke-width="0.72" stroke-miterlimit="10"/>
<path d="M1511.48 11.8064C1439.26 90.8132 1403.17 206.695 1335.68 291.036C1251.43 396.173 1163.79 333.86 1063.22 308.832C1007.5 294.959 965.742 295.754 922.035 347.066C894.969 378.838 870.942 411.995 841.684 440.843C790.27 492.034 735.378 537.286 677.661 576.06C583.622 638.35 481.531 678.493 376.299 694.558C318.064 703.533 259.808 704.507 201.23 703.661C123.052 702.507 68.418 749.998 0.865173 796.182" stroke="url(#paint37_linear_1_133)" stroke-opacity="0.2" stroke-width="0.68" stroke-miterlimit="10"/>
<path d="M1511.38 40.6801C1446.98 115.43 1404.5 217.054 1336.71 286.983C1249.52 376.914 1159.3 319.217 1061.02 295.933C1006.19 282.932 961.053 280.983 915.173 327.141C886.659 355.835 861.847 390.736 833.735 420.303C782.562 474.153 728.411 523.645 670.86 565.674C579.309 632.981 478.817 678.235 374.408 699.173C317.058 710.533 259.385 713.713 201.35 714.328C125.125 715.097 68.3175 753.229 0.804932 796.181" stroke="url(#paint38_linear_1_133)" stroke-opacity="0.2" stroke-width="0.65" stroke-miterlimit="10"/>
<path d="M1511.28 63.5286C1453.88 135.535 1405.55 224.773 1337.47 281.496C1247.08 356.785 1156.02 307.293 1058.21 286.753C1004.6 275.521 954.996 270.957 907.164 309.832C876.597 334.603 851.403 370.196 824.317 400.558C773.668 457.332 720.121 510.362 662.992 556.161C573.706 627.757 475.848 679.505 372.215 704.892C315.971 718.636 258.962 724.201 201.793 726.176C127.338 728.74 68.5387 756.717 0.865173 796.31" stroke="url(#paint39_linear_1_133)" stroke-opacity="0.2" stroke-width="0.61" stroke-miterlimit="10"/>
<path d="M1511.11 77.3757C1457.25 152.074 1403.05 234.569 1329.79 279.085C1242.15 332.321 1155.34 298.01 1064.16 280.393C1012.06 270.341 956.686 260.956 906.64 288.291C868.528 309.114 841.16 348.732 811.419 384.043C761.976 442.792 709.959 498.181 654.238 547.006C566.421 623.936 469.469 682.556 365.192 711.995C313.895 726.08 261.761 734.658 209.339 737.638C133.516 742.484 71.5974 758.383 0.865173 796.284" stroke="url(#paint40_linear_1_133)" stroke-opacity="0.2" stroke-width="0.57" stroke-miterlimit="10"/>
<path d="M1511.11 79.1706C1461.27 157.562 1407.56 227.542 1332.74 265.392C1236.86 313.934 1148.9 283.804 1049.88 268.289C998.542 260.238 941.514 252.134 891.951 275.393C851.986 294.138 827.436 331.244 797.614 368.657C749.42 429.124 698.831 486.796 644.68 538.364C560.727 618.268 467.779 681.966 366.218 716.379C244.675 757.563 118.907 737.997 0.865173 796.181" stroke="url(#paint41_linear_1_133)" stroke-opacity="0.2" stroke-width="0.54" stroke-miterlimit="10"/>
<path d="M1511.11 65.8876C1464.01 151.895 1413.12 212.567 1335.24 248.262C1239.72 292.061 1152.7 270.29 1054.08 255.263C1000.63 247.108 943.244 238.261 890.099 253.776C844.923 266.931 822.526 301.549 792.101 342.168C742.417 408.456 690.379 472.153 634.336 529.697C551.832 614.32 460.132 684.351 358.108 722.739C240.449 767.025 115.486 743.433 0.865173 796.181" stroke="url(#paint42_linear_1_133)" stroke-opacity="0.2" stroke-width="0.5" stroke-miterlimit="10"/>
<defs>
<linearGradient id="paint0_linear_1_133" x1="21.8348" y1="655.014" x2="511.514" y2="655.014" gradientUnits="userSpaceOnUse">
<stop offset="0.0260417" stop-color="#7388AB" stop-opacity="0.8"/>
<stop offset="0.57" stop-color="#EBEBEB"/>
<stop offset="1" stop-color="#FF6600" stop-opacity="0.7"/>
</linearGradient>
<linearGradient id="paint1_linear_1_133" x1="-380.163" y1="764.39" x2="1755.78" y2="764.39" gradientUnits="userSpaceOnUse">
<stop offset="0.0260417" stop-color="#7388AB" stop-opacity="0.8"/>
<stop offset="0.57" stop-color="#EBEBEB"/>
<stop offset="1" stop-color="#FF6600" stop-opacity="0.7"/>
</linearGradient>
<linearGradient id="paint2_linear_1_133" x1="-380.214" y1="749.304" x2="1755.78" y2="749.304" gradientUnits="userSpaceOnUse">
<stop offset="0.0260417" stop-color="#7388AB" stop-opacity="0.8"/>
<stop offset="0.57" stop-color="#EBEBEB"/>
<stop offset="1" stop-color="#FF6600" stop-opacity="0.7"/>
</linearGradient>
<linearGradient id="paint3_linear_1_133" x1="-380.289" y1="732.138" x2="1755.79" y2="732.138" gradientUnits="userSpaceOnUse">
<stop offset="0.0260417" stop-color="#7388AB" stop-opacity="0.8"/>
<stop offset="0.57" stop-color="#EBEBEB"/>
<stop offset="1" stop-color="#FF6600" stop-opacity="0.7"/>
</linearGradient>
<linearGradient id="paint4_linear_1_133" x1="-380.39" y1="712.58" x2="1755.81" y2="712.58" gradientUnits="userSpaceOnUse">
<stop offset="0.0260417" stop-color="#7388AB" stop-opacity="0.8"/>
<stop offset="0.57" stop-color="#EBEBEB"/>
<stop offset="1" stop-color="#FF6600" stop-opacity="0.7"/>
</linearGradient>
<linearGradient id="paint5_linear_1_133" x1="-380.425" y1="690.373" x2="1755.97" y2="690.373" gradientUnits="userSpaceOnUse">
<stop offset="0.0260417" stop-color="#7388AB" stop-opacity="0.8"/>
<stop offset="0.57" stop-color="#EBEBEB"/>
<stop offset="1" stop-color="#FF6600" stop-opacity="0.7"/>
</linearGradient>
<linearGradient id="paint6_linear_1_133" x1="-380.572" y1="665.158" x2="1756.08" y2="665.158" gradientUnits="userSpaceOnUse">
<stop offset="0.0260417" stop-color="#7388AB" stop-opacity="0.8"/>
<stop offset="0.57" stop-color="#EBEBEB"/>
<stop offset="1" stop-color="#FF6600" stop-opacity="0.7"/>
</linearGradient>
<linearGradient id="paint7_linear_1_133" x1="-380.612" y1="637.308" x2="1756.15" y2="637.308" gradientUnits="userSpaceOnUse">
<stop offset="0.0260417" stop-color="#7388AB" stop-opacity="0.8"/>
<stop offset="0.57" stop-color="#EBEBEB"/>
<stop offset="1" stop-color="#FF6600" stop-opacity="0.7"/>
</linearGradient>
<linearGradient id="paint8_linear_1_133" x1="-380.607" y1="641.159" x2="1756.24" y2="641.159" gradientUnits="userSpaceOnUse">
<stop offset="0.0260417" stop-color="#7388AB" stop-opacity="0.8"/>
<stop offset="0.57" stop-color="#EBEBEB"/>
<stop offset="1" stop-color="#FF6600" stop-opacity="0.7"/>
</linearGradient>
<linearGradient id="paint9_linear_1_133" x1="-380.678" y1="670.685" x2="1756.34" y2="670.685" gradientUnits="userSpaceOnUse">
<stop offset="0.0260417" stop-color="#7388AB" stop-opacity="0.8"/>
<stop offset="0.57" stop-color="#EBEBEB"/>
<stop offset="1" stop-color="#FF6600" stop-opacity="0.7"/>
</linearGradient>
<linearGradient id="paint10_linear_1_133" x1="-380.547" y1="699.173" x2="1756.42" y2="699.173" gradientUnits="userSpaceOnUse">
<stop offset="0.0260417" stop-color="#7388AB" stop-opacity="0.8"/>
<stop offset="0.57" stop-color="#EBEBEB"/>
<stop offset="1" stop-color="#FF6600" stop-opacity="0.7"/>
</linearGradient>
<linearGradient id="paint11_linear_1_133" x1="-380.542" y1="727.044" x2="1756.51" y2="727.044" gradientUnits="userSpaceOnUse">
<stop offset="0.0260417" stop-color="#7388AB" stop-opacity="0.8"/>
<stop offset="0.57" stop-color="#EBEBEB"/>
<stop offset="1" stop-color="#FF6600" stop-opacity="0.7"/>
</linearGradient>
<linearGradient id="paint12_linear_1_133" x1="-380.688" y1="752.041" x2="1756.62" y2="752.041" gradientUnits="userSpaceOnUse">
<stop offset="0.0260417" stop-color="#7388AB" stop-opacity="0.8"/>
<stop offset="0.57" stop-color="#EBEBEB"/>
<stop offset="1" stop-color="#FF6600" stop-opacity="0.7"/>
</linearGradient>
<linearGradient id="paint13_linear_1_133" x1="-380.703" y1="773.405" x2="1756.69" y2="773.405" gradientUnits="userSpaceOnUse">
<stop offset="0.0260417" stop-color="#7388AB" stop-opacity="0.8"/>
<stop offset="0.57" stop-color="#EBEBEB"/>
<stop offset="1" stop-color="#FF6600" stop-opacity="0.7"/>
</linearGradient>
<linearGradient id="paint14_linear_1_133" x1="-380.819" y1="790.033" x2="1756.77" y2="790.033" gradientUnits="userSpaceOnUse">
<stop offset="0.0260417" stop-color="#7388AB" stop-opacity="0.8"/>
<stop offset="0.57" stop-color="#EBEBEB"/>
<stop offset="1" stop-color="#FF6600" stop-opacity="0.7"/>
</linearGradient>
<linearGradient id="paint15_linear_1_133" x1="-380.729" y1="800.887" x2="1756.8" y2="800.887" gradientUnits="userSpaceOnUse">
<stop offset="0.0260417" stop-color="#7388AB" stop-opacity="0.8"/>
<stop offset="0.57" stop-color="#EBEBEB"/>
<stop offset="1" stop-color="#FF6600" stop-opacity="0.7"/>
</linearGradient>
<linearGradient id="paint16_linear_1_133" x1="-380.734" y1="800.309" x2="1756.83" y2="800.309" gradientUnits="userSpaceOnUse">
<stop offset="0.0260417" stop-color="#7388AB" stop-opacity="0.8"/>
<stop offset="0.57" stop-color="#EBEBEB"/>
<stop offset="1" stop-color="#FF6600" stop-opacity="0.7"/>
</linearGradient>
<linearGradient id="paint17_linear_1_133" x1="-380.739" y1="788.649" x2="1756.85" y2="788.65" gradientUnits="userSpaceOnUse">
<stop offset="0.0260417" stop-color="#7388AB" stop-opacity="0.8"/>
<stop offset="0.57" stop-color="#EBEBEB"/>
<stop offset="1" stop-color="#FF6600" stop-opacity="0.7"/>
</linearGradient>
<linearGradient id="paint18_linear_1_133" x1="-380.739" y1="771.47" x2="1756.85" y2="771.47" gradientUnits="userSpaceOnUse">
<stop offset="0.0260417" stop-color="#7388AB" stop-opacity="0.8"/>
<stop offset="0.57" stop-color="#EBEBEB"/>
<stop offset="1" stop-color="#FF6600" stop-opacity="0.7"/>
</linearGradient>
<linearGradient id="paint19_linear_1_133" x1="-380.84" y1="752.11" x2="1756.86" y2="752.11" gradientUnits="userSpaceOnUse">
<stop offset="0.0260417" stop-color="#7388AB" stop-opacity="0.8"/>
<stop offset="0.57" stop-color="#EBEBEB"/>
<stop offset="1" stop-color="#FF6600" stop-opacity="0.7"/>
</linearGradient>
<linearGradient id="paint20_linear_1_133" x1="-380.915" y1="730.777" x2="1756.87" y2="730.777" gradientUnits="userSpaceOnUse">
<stop offset="0.0260417" stop-color="#7388AB" stop-opacity="0.8"/>
<stop offset="0.57" stop-color="#EBEBEB"/>
<stop offset="1" stop-color="#FF6600" stop-opacity="0.7"/>
</linearGradient>
<linearGradient id="paint21_linear_1_133" x1="-380.739" y1="708.4" x2="1756.85" y2="708.401" gradientUnits="userSpaceOnUse">
<stop offset="0.0260417" stop-color="#7388AB" stop-opacity="0.8"/>
<stop offset="0.57" stop-color="#EBEBEB"/>
<stop offset="1" stop-color="#FF6600" stop-opacity="0.7"/>
</linearGradient>
<linearGradient id="paint22_linear_1_133" x1="-380.739" y1="685.215" x2="1756.85" y2="685.215" gradientUnits="userSpaceOnUse">
<stop offset="0.0260417" stop-color="#7388AB" stop-opacity="0.8"/>
<stop offset="0.57" stop-color="#EBEBEB"/>
<stop offset="1" stop-color="#FF6600" stop-opacity="0.7"/>
</linearGradient>
<linearGradient id="paint23_linear_1_133" x1="-380.714" y1="661.472" x2="1756.85" y2="661.472" gradientUnits="userSpaceOnUse">
<stop offset="0.0260417" stop-color="#7388AB" stop-opacity="0.8"/>
<stop offset="0.57" stop-color="#EBEBEB"/>
<stop offset="1" stop-color="#FF6600" stop-opacity="0.7"/>
</linearGradient>
<linearGradient id="paint24_linear_1_133" x1="-380.739" y1="638.403" x2="1756.85" y2="638.403" gradientUnits="userSpaceOnUse">
<stop offset="0.0260417" stop-color="#7388AB" stop-opacity="0.8"/>
<stop offset="0.57" stop-color="#EBEBEB"/>
<stop offset="1" stop-color="#FF6600" stop-opacity="0.7"/>
</linearGradient>
<linearGradient id="paint25_linear_1_133" x1="-380.714" y1="615.97" x2="1756.85" y2="615.97" gradientUnits="userSpaceOnUse">
<stop offset="0.0260417" stop-color="#7388AB" stop-opacity="0.8"/>
<stop offset="0.57" stop-color="#EBEBEB"/>
<stop offset="1" stop-color="#FF6600" stop-opacity="0.7"/>
</linearGradient>
<linearGradient id="paint26_linear_1_133" x1="-380.663" y1="594.54" x2="1756.84" y2="594.54" gradientUnits="userSpaceOnUse">
<stop offset="0.0260417" stop-color="#7388AB" stop-opacity="0.8"/>
<stop offset="0.57" stop-color="#EBEBEB"/>
<stop offset="1" stop-color="#FF6600" stop-opacity="0.7"/>
</linearGradient>
<linearGradient id="paint27_linear_1_133" x1="-380.739" y1="574.932" x2="1756.85" y2="574.932" gradientUnits="userSpaceOnUse">
<stop offset="0.0260417" stop-color="#7388AB" stop-opacity="0.8"/>
<stop offset="0.57" stop-color="#EBEBEB"/>
<stop offset="1" stop-color="#FF6600" stop-opacity="0.7"/>
</linearGradient>
<linearGradient id="paint28_linear_1_133" x1="-380.739" y1="557.534" x2="1756.85" y2="557.535" gradientUnits="userSpaceOnUse">
<stop offset="0.0260417" stop-color="#7388AB" stop-opacity="0.8"/>
<stop offset="0.57" stop-color="#EBEBEB"/>
<stop offset="1" stop-color="#FF6600" stop-opacity="0.7"/>
</linearGradient>
<linearGradient id="paint29_linear_1_133" x1="-380.739" y1="542.694" x2="1756.85" y2="542.694" gradientUnits="userSpaceOnUse">
<stop offset="0.0260417" stop-color="#7388AB" stop-opacity="0.8"/>
<stop offset="0.57" stop-color="#EBEBEB"/>
<stop offset="1" stop-color="#FF6600" stop-opacity="0.7"/>
</linearGradient>
<linearGradient id="paint30_linear_1_133" x1="-380.739" y1="531.123" x2="1756.85" y2="531.123" gradientUnits="userSpaceOnUse">
<stop offset="0.0260417" stop-color="#7388AB" stop-opacity="0.8"/>
<stop offset="0.57" stop-color="#EBEBEB"/>
<stop offset="1" stop-color="#FF6600" stop-opacity="0.7"/>
</linearGradient>
<linearGradient id="paint31_linear_1_133" x1="-380.739" y1="523.471" x2="1756.85" y2="523.471" gradientUnits="userSpaceOnUse">
<stop offset="0.0260417" stop-color="#7388AB" stop-opacity="0.8"/>
<stop offset="0.57" stop-color="#EBEBEB"/>
<stop offset="1" stop-color="#FF6600" stop-opacity="0.7"/>
</linearGradient>
<linearGradient id="paint32_linear_1_133" x1="-380.603" y1="523.337" x2="1756.79" y2="523.337" gradientUnits="userSpaceOnUse">
<stop offset="0.0260417" stop-color="#7388AB" stop-opacity="0.8"/>
<stop offset="0.57" stop-color="#EBEBEB"/>
<stop offset="1" stop-color="#FF6600" stop-opacity="0.7"/>
</linearGradient>
<linearGradient id="paint33_linear_1_133" x1="-380.714" y1="525.88" x2="1756.73" y2="525.88" gradientUnits="userSpaceOnUse">
<stop offset="0.0260417" stop-color="#7388AB" stop-opacity="0.8"/>
<stop offset="0.57" stop-color="#EBEBEB"/>
<stop offset="1" stop-color="#FF6600" stop-opacity="0.7"/>
</linearGradient>
<linearGradient id="paint34_linear_1_133" x1="-380.693" y1="562.052" x2="1756.64" y2="562.052" gradientUnits="userSpaceOnUse">
<stop offset="0.0260417" stop-color="#7388AB" stop-opacity="0.8"/>
<stop offset="0.57" stop-color="#EBEBEB"/>
<stop offset="1" stop-color="#FF6600" stop-opacity="0.7"/>
</linearGradient>
<linearGradient id="paint35_linear_1_133" x1="-380.517" y1="591.851" x2="1756.5" y2="591.851" gradientUnits="userSpaceOnUse">
<stop offset="0.0260417" stop-color="#7388AB" stop-opacity="0.8"/>
<stop offset="0.57" stop-color="#EBEBEB"/>
<stop offset="1" stop-color="#FF6600" stop-opacity="0.7"/>
</linearGradient>
<linearGradient id="paint36_linear_1_133" x1="-379.756" y1="622.381" x2="1756.27" y2="622.381" gradientUnits="userSpaceOnUse">
<stop offset="0.0260417" stop-color="#7388AB" stop-opacity="0.8"/>
<stop offset="0.57" stop-color="#EBEBEB"/>
<stop offset="1" stop-color="#FF6600" stop-opacity="0.7"/>
</linearGradient>
<linearGradient id="paint37_linear_1_133" x1="-379.7" y1="634.326" x2="1756.13" y2="634.326" gradientUnits="userSpaceOnUse">
<stop offset="0.0260417" stop-color="#7388AB" stop-opacity="0.8"/>
<stop offset="0.57" stop-color="#EBEBEB"/>
<stop offset="1" stop-color="#FF6600" stop-opacity="0.7"/>
</linearGradient>
<linearGradient id="paint38_linear_1_133" x1="-379.75" y1="640.284" x2="1756.02" y2="640.284" gradientUnits="userSpaceOnUse">
<stop offset="0.0260417" stop-color="#7388AB" stop-opacity="0.8"/>
<stop offset="0.57" stop-color="#EBEBEB"/>
<stop offset="1" stop-color="#FF6600" stop-opacity="0.7"/>
</linearGradient>
<linearGradient id="paint39_linear_1_133" x1="-379.65" y1="645.101" x2="1755.89" y2="645.101" gradientUnits="userSpaceOnUse">
<stop offset="0.0260417" stop-color="#7388AB" stop-opacity="0.8"/>
<stop offset="0.57" stop-color="#EBEBEB"/>
<stop offset="1" stop-color="#FF6600" stop-opacity="0.7"/>
</linearGradient>
<linearGradient id="paint40_linear_1_133" x1="-379.609" y1="647.938" x2="1755.7" y2="647.938" gradientUnits="userSpaceOnUse">
<stop offset="0.0260417" stop-color="#7388AB" stop-opacity="0.8"/>
<stop offset="0.57" stop-color="#EBEBEB"/>
<stop offset="1" stop-color="#FF6600" stop-opacity="0.7"/>
</linearGradient>
<linearGradient id="paint41_linear_1_133" x1="-379.609" y1="648.226" x2="1755.7" y2="648.226" gradientUnits="userSpaceOnUse">
<stop offset="0.0260417" stop-color="#7388AB" stop-opacity="0.8"/>
<stop offset="0.57" stop-color="#EBEBEB"/>
<stop offset="1" stop-color="#FF6600" stop-opacity="0.7"/>
</linearGradient>
<linearGradient id="paint42_linear_1_133" x1="-379.609" y1="645.486" x2="1755.7" y2="645.486" gradientUnits="userSpaceOnUse">
<stop offset="0.0260417" stop-color="#7388AB" stop-opacity="0.8"/>
<stop offset="0.57" stop-color="#EBEBEB"/>
<stop offset="1" stop-color="#FF6600" stop-opacity="0.7"/>
</linearGradient>
</defs>
</svg>
