<svg width="14" height="13" viewBox="0 0 14 13" fill="none" xmlns="http://www.w3.org/2000/svg">
<path d="M6.00555 1.08203L6.60711 0.480469C6.88055 0.234375 7.2907 0.234375 7.5368 0.480469L12.8688 5.78516C13.1149 6.05859 13.1149 6.46875 12.8688 6.71484L7.5368 12.0469C7.2907 12.293 6.88055 12.293 6.60711 12.0469L6.00555 11.4453C5.75945 11.1719 5.75945 10.7617 6.00555 10.4883L9.31414 7.34375H1.46649C1.08367 7.34375 0.810236 7.07031 0.810236 6.6875V5.8125C0.810236 5.45703 1.08367 5.15625 1.46649 5.15625H9.31414L6.00555 2.03906C5.75945 1.76562 5.73211 1.35547 6.00555 1.08203Z" fill="white"/>
</svg>
