<svg width="9" height="12" viewBox="0 0 9 12" fill="none" xmlns="http://www.w3.org/2000/svg">
<path d="M0.337685 4.26937C0.337685 4.1568 0.365825 4.07238 0.422106 4.0161C0.478386 3.95982 0.562807 3.93168 0.675369 3.93168C0.78793 3.93168 0.872351 3.95982 0.928632 4.0161L4.05221 7.13968L7.09137 4.0161C7.14765 3.95982 7.23207 3.93168 7.34463 3.93168C7.45719 3.93168 7.54161 3.95982 7.5979 4.0161C7.65418 4.07238 7.68232 4.14273 7.68232 4.22716C7.68232 4.31158 7.65418 4.41007 7.5979 4.52263L4.05221 8.06831L0.422106 4.52263C0.365825 4.41007 0.337685 4.32565 0.337685 4.26937Z" fill="#333333"/>
</svg>
