<svg width="9" height="13" viewBox="0 0 9 13" fill="none" xmlns="http://www.w3.org/2000/svg">
<path d="M0.337646 8.23063C0.337646 8.3432 0.365787 8.42762 0.422068 8.4839C0.478348 8.54018 0.562769 8.56832 0.675331 8.56832C0.787892 8.56832 0.872313 8.54018 0.928594 8.4839L4.05217 5.36032L7.09133 8.4839C7.14761 8.54018 7.23203 8.56832 7.34459 8.56832C7.45716 8.56832 7.54158 8.54018 7.59786 8.4839C7.65414 8.42762 7.68228 8.35727 7.68228 8.27284C7.68228 8.18842 7.65414 8.08993 7.59786 7.97737L4.05217 4.43169L0.422068 7.97737C0.365787 8.08993 0.337646 8.17435 0.337646 8.23063Z" fill="#3F79FF"/>
</svg>
