<svg width="12" height="13" viewBox="0 0 12 13" fill="none" xmlns="http://www.w3.org/2000/svg">
<path d="M3.82783 12C3.67457 12 3.55963 11.9617 3.483 11.8851C3.40637 11.8084 3.36806 11.6935 3.36806 11.5402C3.36806 11.387 3.40637 11.272 3.483 11.1954L7.73588 6.94253L3.483 2.8046C3.40637 2.72797 3.36806 2.61303 3.36806 2.45977C3.36806 2.30651 3.40637 2.19157 3.483 2.11494C3.55963 2.03831 3.65542 2 3.77036 2C3.8853 2 4.0194 2.03831 4.17266 2.11494L9.00024 6.94253L4.17266 11.8851C4.0194 11.9617 3.90446 12 3.82783 12Z" fill="#333333"/>
</svg>
