<svg width="117" height="121" viewBox="0 0 117 121" fill="none" xmlns="http://www.w3.org/2000/svg">
<path d="M24.3691 82.036C29.5237 80.7841 34.6219 83.5615 35.7561 88.2395C36.8904 92.9175 33.6312 97.7246 28.4766 98.9765C24.3484 99.9791 11.4068 97.7289 6.41633 96.7929C5.60457 96.6407 5.32894 95.6165 5.95506 95.0775C9.86797 91.7089 20.2277 83.0418 24.3691 82.036Z" fill="#FF513F"/>
<path d="M25.565 99.311C20.0855 99.311 10.734 97.686 6.40123 96.8735C6.20371 96.8365 6.02064 96.7445 5.87311 96.6079C5.72559 96.4714 5.61961 96.2959 5.56739 96.1017C5.51518 95.9075 5.51885 95.7025 5.57799 95.5103C5.63712 95.3181 5.74932 95.1466 5.90164 95.0154C10.0751 91.4225 20.2274 82.9575 24.3496 81.9564C29.54 80.6955 34.6924 83.5058 35.8356 88.2201C36.9786 92.9346 33.686 97.7956 28.4958 99.0562C27.7624 99.2343 26.7544 99.311 25.565 99.311ZM24.3883 82.1155C20.3005 83.1083 10.1729 91.5545 6.00828 95.1397C5.87936 95.2507 5.78442 95.396 5.73438 95.5587C5.68435 95.7213 5.68126 95.8949 5.72547 96.0592C5.76969 96.2236 5.8594 96.3721 5.98428 96.4877C6.10917 96.6033 6.26413 96.6812 6.43132 96.7124C11.6942 97.6996 24.3755 99.888 28.4572 98.897C33.5597 97.6577 36.7983 92.8854 35.6766 88.2588C34.5547 83.6322 29.4909 80.8764 24.3883 82.1155Z" fill="#371A45"/>
<path d="M27.0827 83.9736C30.6431 83.1089 34.1645 85.0273 34.9479 88.2585C35.7314 91.4896 33.4802 94.81 29.9198 95.6747C27.3073 96.3092 19.4453 94.8831 15.4442 94.0788C14.4769 93.8844 14.1773 92.6488 14.948 92.0323C18.1357 89.482 24.4702 84.6081 27.0827 83.9736Z" fill="#E5A900"/>
<path d="M29.8291 85.8199C32.0409 85.2827 34.2285 86.4744 34.7152 88.4817C35.2019 90.489 33.8034 92.5517 31.5916 93.0889C30.1552 93.4377 26.1642 92.7839 23.5425 92.2825C22.565 92.0956 22.2613 90.8434 23.0445 90.2288C25.1451 88.5806 28.3927 86.1687 29.8291 85.8199Z" fill="#FFFF00"/>
<path d="M24.9911 99.5255C19.3458 99.5255 10.5729 98.2091 6.38235 97.5224C6.07431 97.472 5.78694 97.335 5.55368 97.1274C5.32043 96.9199 5.1509 96.6502 5.06483 96.3499C4.97877 96.0497 4.97972 95.7311 5.06756 95.4313C5.15541 95.1316 5.32654 94.863 5.56102 94.6568C9.66916 91.0431 19.6699 82.5102 23.7973 81.3251C26.3962 80.579 29.1059 80.7975 31.4274 81.9404C33.7672 83.0924 35.4332 85.0435 36.1184 87.4343C36.8037 89.825 36.4245 92.3632 35.0507 94.5814C33.6878 96.7822 31.5058 98.4051 28.9069 99.1514C27.984 99.4163 26.6173 99.5255 24.9911 99.5255ZM24.1039 82.3951C20.0833 83.5494 9.45645 92.7121 6.29513 95.4929C6.21892 95.5599 6.16329 95.6472 6.13474 95.7446C6.10618 95.842 6.10587 95.9455 6.13383 96.0431C6.1618 96.1407 6.2169 96.2283 6.29271 96.2957C6.36851 96.3632 6.46191 96.4077 6.56202 96.4241C10.7158 97.1047 24.5803 99.2361 28.6003 98.0814C30.9331 97.4116 32.8883 95.9604 34.1055 93.9951C35.3119 92.0472 35.647 89.8261 35.0494 87.7411C34.4518 85.6561 32.9911 83.9507 30.9364 82.9391C28.8634 81.9186 26.4372 81.7252 24.1039 82.3951Z" fill="#371A45"/>
<path d="M60.0641 97.4701C59.701 98.8265 58.7108 101.176 56.0009 103.756C53.1023 106.513 48.2395 109.535 40.0801 111.886C39.0455 112.184 38.2461 110.966 38.9405 110.141C40.8327 107.89 43.322 104.467 44.5725 100.819C45.15 99.1344 45.4621 97.4015 45.3284 95.7143C45.2744 95.0196 45.8574 94.4445 46.5481 94.531L59.1452 96.1169C59.2989 96.1357 59.4468 96.1872 59.5789 96.2679C59.7111 96.3487 59.8244 96.4567 59.9114 96.5849C59.9985 96.713 60.0571 96.8583 60.0834 97.011C60.1097 97.1637 60.1031 97.3202 60.0641 97.4701Z" fill="#FF5656"/>
<g opacity="0.35">
<path d="M60.0638 97.4701C59.7007 98.8265 59.5614 98.7373 57.691 101.723C54.739 102.439 48.857 102.105 44.5723 100.819C45.1498 99.1344 45.4618 97.4015 45.3282 95.7143C45.2741 95.0196 45.8571 94.4445 46.5479 94.531L59.145 96.1169C59.2986 96.1357 59.4465 96.1872 59.5786 96.2679C59.7108 96.3487 59.8242 96.4567 59.9112 96.5849C59.9982 96.713 60.0568 96.8583 60.0832 97.011C60.1095 97.1637 60.1029 97.3202 60.0638 97.4701Z" fill="#371A45"/>
</g>
<path d="M39.6596 112.52C39.3541 112.516 39.056 112.425 38.8001 112.258C38.5442 112.09 38.3409 111.854 38.2138 111.576C38.0867 111.298 38.041 110.989 38.082 110.686C38.123 110.383 38.2491 110.098 38.4455 109.864C41.2938 106.491 45.8775 100.008 44.5756 94.4791L44.392 93.6992L60.8334 95.7691L60.828 96.2655C60.8267 96.3741 60.7681 98.9641 58.1267 102.268C54.6664 106.596 48.6074 110.023 40.118 112.455C39.969 112.498 39.8147 112.52 39.6596 112.52ZM45.8061 94.9991C46.6649 100.806 42.1505 107.201 39.2948 110.582C39.2265 110.664 39.1861 110.766 39.1795 110.872C39.1729 110.979 39.2005 111.084 39.2583 111.174C39.3161 111.264 39.4009 111.332 39.5006 111.37C39.6002 111.408 39.7093 111.413 39.8119 111.385C50.0245 108.46 54.8965 104.484 57.1853 101.663C58.9801 99.4514 59.5029 97.5907 59.6545 96.7424L45.8061 94.9991Z" fill="#371A45"/>
<path d="M54.6347 70.5317C54.6006 70.6758 54.5373 70.8114 54.4487 70.9301C54.3601 71.0487 54.2481 71.1479 54.1196 71.2215L43.1258 77.5785C42.5223 77.9268 41.7621 77.6234 41.5434 76.9619C40.182 72.8415 35.9981 69.585 32.4242 67.457C31.5883 66.9572 30.7841 66.52 30.0588 66.149C29.1001 65.6579 29.3637 64.2248 30.4329 64.0974C46.7553 62.1565 52.6635 67.3233 54.4417 69.619C54.541 69.7465 54.61 69.8949 54.6435 70.053C54.6769 70.2112 54.6739 70.3749 54.6347 70.5317Z" fill="#FF5656"/>
<path d="M42.5849 77.8058C42.4433 77.8057 42.3029 77.7797 42.1706 77.7292C42.0052 77.666 41.856 77.5666 41.7339 77.4383C41.6119 77.31 41.52 77.156 41.4651 76.9876C40.0877 72.8185 35.7653 69.5419 32.3818 67.5274C31.6298 67.0777 30.8355 66.6385 30.021 66.2219C29.7977 66.1069 29.6172 65.9232 29.5063 65.6978C29.3953 65.4723 29.3597 65.2172 29.4047 64.9699C29.4497 64.7227 29.573 64.4965 29.7563 64.3247C29.9395 64.153 30.1731 64.0447 30.4226 64.016C46.7717 62.0717 52.7111 67.2515 54.5058 69.5687C54.6127 69.7058 54.6871 69.8655 54.7231 70.0356C54.7592 70.2058 54.756 70.3819 54.7138 70.5507C54.6767 70.7055 54.6085 70.8512 54.5132 70.9787C54.418 71.1062 54.2977 71.213 54.1598 71.2925L43.1662 77.6493C42.9896 77.7517 42.789 77.8056 42.5849 77.8058ZM37.2174 63.7515C35.1874 63.7515 32.9378 63.8819 30.4419 64.1786C30.2273 64.2032 30.0263 64.2962 29.8685 64.4439C29.7108 64.5916 29.6046 64.7861 29.5658 64.9988C29.527 65.2115 29.5575 65.431 29.6529 65.625C29.7483 65.819 29.9035 65.9771 30.0955 66.0761C30.9132 66.4943 31.7107 66.9353 32.4656 67.3867C35.8729 69.4154 40.2272 72.719 41.6205 76.9361C41.6678 77.0814 41.747 77.2143 41.8523 77.3251C41.9575 77.4358 42.0862 77.5216 42.2289 77.5761C42.3676 77.6292 42.5164 77.6506 42.6644 77.6387C42.8125 77.6268 42.956 77.5819 43.0845 77.5074L54.0782 71.1506C54.1967 71.0823 54.3001 70.9905 54.382 70.8808C54.464 70.7711 54.5227 70.6459 54.5546 70.5128L54.5547 70.5121C54.591 70.3673 54.5938 70.2161 54.563 70.0701C54.5321 69.924 54.4683 69.7869 54.3766 69.6692C52.8715 67.7262 48.4168 63.7515 37.2174 63.7515Z" fill="#371A45"/>
<g opacity="0.7">
<path d="M54.6347 70.5317C45.5146 64.0098 33.876 65.6317 32.8206 65.8259C31.8053 66.0132 32.1096 66.8948 32.4242 67.457C31.5883 66.9572 30.7841 66.52 30.0588 66.149C29.1001 65.6579 29.3637 64.2248 30.4329 64.0974C46.7553 62.1565 52.6635 67.3233 54.4417 69.619C54.541 69.7465 54.61 69.8949 54.6435 70.053C54.6769 70.2112 54.6739 70.3749 54.6347 70.5317Z" fill="white"/>
</g>
<path d="M41.4624 79.1828L41.3292 78.3928C40.3842 72.7915 33.645 68.5979 29.7118 66.5966C29.4045 66.4396 29.1557 66.188 29.0019 65.8789C28.8481 65.5698 28.7976 65.2194 28.8576 64.8794C28.9176 64.5393 29.0851 64.2276 29.3354 63.9899C29.5857 63.7522 29.9056 63.6012 30.2481 63.5591C39.0153 62.5016 45.9283 63.3056 50.7959 65.9496C54.5117 67.9678 55.5704 70.3319 55.6136 70.4315L55.8113 70.8868L41.4624 79.1828ZM37.1648 64.2309C35.1436 64.2309 32.891 64.3613 30.3812 64.6641C30.2755 64.6777 30.1769 64.7247 30.0998 64.7983C30.0227 64.872 29.9711 64.9683 29.9527 65.0734C29.9342 65.1784 29.9498 65.2866 29.9971 65.3822C30.0445 65.4777 30.1212 65.5556 30.2159 65.6044C34.1591 67.6109 40.8004 71.7505 42.2614 77.4355L54.3472 70.4479C53.8786 69.725 52.6749 68.2134 50.1629 66.8726C47.7219 65.5696 43.6368 64.2309 37.1648 64.2309Z" fill="#371A45"/>
<path d="M97.6016 85.7657C91.7304 89.6626 84.2111 93.3164 75.6217 95.2213C70.363 96.3877 65.2585 97.0945 60.525 97.3744C59.0408 97.4635 57.5957 97.5097 56.1897 97.5132C54.6727 97.519 53.2036 97.4767 51.7944 97.3878C50.2285 97.2894 48.7345 97.1327 47.3254 96.921C45.3705 96.6249 43.5752 96.2229 41.9735 95.7171C41.3066 95.5082 40.6745 95.281 40.0771 95.0356C39.7404 94.8978 39.4156 94.7548 39.1028 94.6064C36.0988 93.1802 34.1603 91.2522 33.634 88.873C33.1062 86.4938 34.0492 83.9276 36.1704 81.3643C36.8418 80.5609 37.569 79.8059 38.3466 79.105C38.7434 78.7406 39.1629 78.3789 39.6049 78.0199C40.5275 77.2661 41.541 76.5224 42.6456 75.7888C43.8348 75.0016 45.1193 74.2311 46.4992 73.4771C47.74 72.8002 49.0506 72.1424 50.4309 71.5039C51.5602 70.9822 52.7317 70.4759 53.9453 69.985C54.1014 69.9221 54.259 69.8591 54.4181 69.7962C58.8271 68.05 63.7521 66.5313 69.0107 65.3649C77.6002 63.46 85.9521 63.5672 92.9149 64.5994C93.0374 64.6173 93.1584 64.6352 93.2794 64.6547C103.437 66.2131 110.557 69.7214 110.998 71.7132C111.426 73.6427 106.333 79.9741 97.6016 85.7657Z" fill="white"/>
<path d="M55.9185 97.5956C54.5046 97.5956 53.1171 97.5532 51.7898 97.4696C50.2325 97.3716 48.7266 97.2144 47.3138 97.002C45.3468 96.7042 43.542 96.2981 41.9494 95.7954C41.2865 95.5876 40.6463 95.3575 40.0466 95.1114C39.719 94.9773 39.3898 94.8324 39.0683 94.6805C35.9299 93.1905 34.0748 91.2426 33.5547 88.8908C33.0331 86.5396 33.8921 83.9897 36.1079 81.3121C36.7818 80.5058 37.5117 79.748 38.2921 79.0444C38.6753 78.6924 39.0999 78.3263 39.5537 77.9565C40.4753 77.2036 41.5006 76.4513 42.601 75.7206C43.7939 74.9309 45.0924 74.152 46.4606 73.4052C47.7061 72.7257 49.0305 72.061 50.3971 71.4295C51.5442 70.8997 52.7279 70.3882 53.9152 69.9091C54.0716 69.846 54.2294 69.7831 54.3886 69.7202C58.9415 67.9168 63.8554 66.4246 68.9936 65.285C78.6309 63.1476 87.3284 63.6883 92.9274 64.5184C93.0503 64.5364 93.1717 64.5544 93.2929 64.5738C103.18 66.0907 110.602 69.5445 111.079 71.6956C111.501 73.5994 106.595 79.8991 97.6474 85.8339C92.913 88.9763 85.2517 93.1697 75.6399 95.3014C70.4943 96.4427 65.4107 97.1677 60.5304 97.4562C59.069 97.544 57.6088 97.5907 56.1905 97.5951C56.0998 97.5955 56.0091 97.5956 55.9185 97.5956ZM82.9457 63.9511C78.7603 63.9511 74.0215 64.3377 69.029 65.4449C63.8993 66.5827 58.9938 68.0723 54.4487 69.8724C54.2898 69.9353 54.1324 69.9982 53.9764 70.061C52.7915 70.539 51.6104 71.0495 50.4657 71.5782C49.1024 72.2082 47.7812 72.8712 46.5389 73.5491C45.1749 74.2935 43.8804 75.0701 42.6913 75.8572C41.5955 76.5848 40.5746 77.3338 39.6571 78.0834C39.2057 78.4513 38.7836 78.8154 38.4025 79.1654C37.6277 79.8639 36.9031 80.6162 36.2339 81.4166C34.0521 84.0532 33.2044 86.556 33.7145 88.8553C34.2232 91.1552 36.048 93.0653 39.1383 94.5324C39.4572 94.683 39.7836 94.8269 40.1086 94.9598C40.704 95.2041 41.3398 95.4327 41.9985 95.6391C43.5831 96.1394 45.3796 96.5434 47.3383 96.84C48.7462 97.0517 50.2475 97.2085 51.8 97.306C53.2087 97.395 54.6839 97.4369 56.1899 97.4314C57.6052 97.4269 59.0623 97.3803 60.5206 97.2927C65.3924 97.0046 70.4674 96.2809 75.6045 95.1414C85.1918 93.0153 92.8341 88.8322 97.557 85.6975C106.446 79.8011 111.331 73.589 110.919 71.7311C110.508 69.8778 103.594 66.3199 93.2675 64.7357C93.1463 64.7162 93.0257 64.6984 92.9035 64.6804C89.6065 64.1946 86.2783 63.9508 82.9457 63.9511Z" fill="#371A45"/>
<g opacity="0.35">
<path d="M42.0273 95.5077C42.01 95.5785 41.9928 95.6478 41.9741 95.7172C41.3072 95.5082 40.6751 95.281 40.0777 95.0356C39.7616 94.9055 39.4545 94.7711 39.1592 94.6324L39.4699 94.5064L39.4685 94.499C40.2995 94.8885 41.1541 95.2254 42.0273 95.5077Z" fill="black"/>
<path d="M42.0312 95.8209L41.9499 95.7954C41.2868 95.5876 40.6466 95.3575 40.0469 95.1114C39.7219 94.9777 39.4117 94.8414 39.1247 94.7066L38.9551 94.6269L39.3776 94.4555L39.3611 94.3643L39.5037 94.4251C40.3316 94.8129 41.183 95.1486 42.0529 95.4299L42.1249 95.4535L42.107 95.5271C42.0895 95.5986 42.0722 95.6685 42.0534 95.7385L42.0312 95.8209ZM39.365 94.6375C39.6006 94.7451 39.8502 94.8533 40.1091 94.9599C40.6796 95.1941 41.2875 95.4137 41.9169 95.6133C41.9213 95.5962 41.9256 95.5791 41.9299 95.5619C41.0931 95.2882 40.2734 94.9645 39.4752 94.5927L39.365 94.6375Z" fill="#371A45"/>
</g>
<g opacity="0.35">
<path d="M97.9558 85.5945C92.089 89.4973 84.574 93.1586 75.9859 95.0739C70.7287 96.2462 65.6255 96.959 60.892 97.2433C59.4093 97.3339 57.9647 97.3822 56.558 97.388C55.0395 97.3953 53.5739 97.355 52.1612 97.267C50.5954 97.1701 49.1027 97.015 47.6922 96.8047C45.6074 96.492 43.7076 96.0576 42.0267 95.5077C41.1535 95.2254 40.2989 94.8885 39.4679 94.499L39.4693 94.5064L39.1586 94.6324L39.1576 94.6323C37.0061 93.6193 35.3954 92.3517 34.4527 90.8449C34.068 90.2399 33.791 89.5727 33.634 88.873C33.1062 86.4938 34.0492 83.9276 36.1704 81.3643C36.8418 80.5609 37.569 79.8059 38.3466 79.105C39.8342 80.9278 41.1297 83.7066 41.8541 86.9483C41.961 87.4267 42.0524 87.9008 42.1285 88.3706C42.3488 89.7262 43.4021 90.7975 44.7597 90.997C56.8733 92.7769 67.5686 91.8783 76.6463 89.7087C77.2427 89.566 77.2895 88.7365 76.7144 88.5229C75.2631 87.9867 73.9696 87.0947 72.9521 85.9286C71.9346 84.7624 71.2257 83.3594 70.8904 81.848C69.7774 76.855 72.922 71.9041 77.9108 70.7917C82.9011 69.6794 87.8464 72.825 88.9579 77.8195C89.2343 79.0548 89.2541 80.3337 89.016 81.5769C88.778 82.8202 88.2872 84.0011 87.5741 85.0466C87.233 85.5495 87.7624 86.1915 88.3259 85.9625C91.3331 84.7411 94.2646 83.341 97.1049 81.7696C106.352 76.6538 111.337 71.5255 111.337 71.5255C111.766 73.455 106.68 79.7909 97.9558 85.5945Z" fill="#371A45"/>
</g>
<g opacity="0.35">
<path d="M39.1595 94.6324L35.6166 96.0693L34.4536 90.8448C35.3883 92.3389 36.9796 93.5977 39.1037 94.6064C39.1228 94.6156 39.1404 94.6232 39.1595 94.6324Z" fill="black"/>
<path d="M35.5576 96.1816L34.27 90.3972L34.5228 90.8014C35.4318 92.2543 36.9848 93.5096 39.1385 94.5325L39.3621 94.6384L35.5576 96.1816ZM34.6281 91.2526L35.6753 95.9571L38.9559 94.6265C37.0111 93.6867 35.558 92.5534 34.6281 91.2526Z" fill="#371A45"/>
</g>
<path d="M111.381 72.0085C111.371 72.0498 111.359 72.0925 111.347 72.1367C111.323 72.2193 111.295 72.3047 111.262 72.3945C111.245 72.4416 111.226 72.4872 111.208 72.5358C111.049 72.9203 110.859 73.2913 110.64 73.6452C110.605 73.7039 110.57 73.7626 110.532 73.8213C110.274 74.2365 109.962 74.6835 109.596 75.1579C109.545 75.2253 109.491 75.2941 109.436 75.3629C109.313 75.521 109.184 75.6805 109.048 75.8444C108.99 75.9161 108.928 75.9878 108.867 76.0609C108.492 76.5071 108.076 76.9705 107.623 77.4496C107.557 77.5197 107.49 77.5898 107.421 77.6614C106.999 78.1025 106.546 78.553 106.061 79.0129C105.976 79.0946 105.889 79.1777 105.801 79.2594C105.317 79.7145 104.804 80.176 104.262 80.644C104.163 80.7299 104.063 80.8159 103.961 80.9018C102.749 81.9358 101.404 82.9931 99.9366 84.0442C99.8142 84.1328 99.6903 84.2199 99.5663 84.307C99.3185 84.4826 99.0678 84.6568 98.8125 84.8323C98.6857 84.9193 98.5573 85.0064 98.429 85.0934C98.3917 85.1195 98.3529 85.1441 98.3156 85.1703L98.3156 85.1687C98.3297 83.9245 98.2218 82.5188 98.0645 81.1583C97.9203 79.9163 97.7343 78.7122 97.5603 77.7066C97.5525 74.0304 96.6441 70.4121 94.9147 67.1689L94.4174 66.2372L93.3291 64.1936C103.07 65.622 110.098 68.8569 111.269 70.9134C111.31 70.9839 111.345 71.0576 111.374 71.1339C111.393 71.1836 111.409 71.2348 111.42 71.2869C111.463 71.4828 111.45 71.7253 111.381 72.0085Z" fill="#FF5656"/>
<path d="M98.2333 85.3274V85.1703C98.2458 84.06 98.1615 82.7142 97.9827 81.1677C97.8572 80.086 97.6877 78.9262 97.4792 77.7207C97.469 74.0536 96.5637 70.4446 94.8421 67.2075L93.1802 64.0891L93.3405 64.1126C102.877 65.5109 110.108 68.7104 111.339 70.873C111.382 70.9471 111.419 71.0246 111.45 71.1047C111.47 71.1582 111.487 71.2132 111.5 71.2692C111.545 71.4764 111.532 71.7314 111.46 72.0272C111.451 72.0651 111.44 72.1043 111.429 72.1447C111.401 72.2437 111.372 72.3313 111.338 72.4234C111.327 72.4541 111.315 72.4854 111.302 72.5174L111.284 72.565C111.123 72.9541 110.931 73.3295 110.709 73.6877C110.674 73.7466 110.639 73.8061 110.601 73.8658C110.338 74.2875 110.022 74.7395 109.66 75.208C109.609 75.2753 109.555 75.3444 109.5 75.4136C109.377 75.572 109.247 75.7321 109.111 75.8966C109.069 75.9481 109.025 76 108.981 76.0523L108.929 76.1137C108.563 76.5495 108.144 77.018 107.682 77.506C107.616 77.5761 107.549 77.6465 107.479 77.7183C107.065 78.1521 106.606 78.6078 106.117 79.0723C106.023 79.1626 105.94 79.2418 105.856 79.3196C105.374 79.773 104.855 80.2396 104.315 80.706C104.216 80.792 104.116 80.8781 104.014 80.9645C102.754 82.0394 101.398 83.0981 99.9838 84.1109C99.8613 84.1994 99.7371 84.2867 99.613 84.374C99.365 84.5497 99.114 84.7241 98.8584 84.8998C98.7314 84.987 98.6029 85.0741 98.4744 85.1612L98.2333 85.3274ZM93.4772 64.2984L94.9864 67.1303C96.7192 70.3866 97.6307 74.0172 97.6417 77.7065C97.8496 78.9013 98.0194 80.064 98.1453 81.1489C98.3167 82.6311 98.4016 83.9307 98.398 85.0151C98.5218 84.9313 98.6444 84.8478 98.7658 84.7648C99.0207 84.5895 99.2712 84.4155 99.5186 84.2402C99.6425 84.1531 99.7661 84.0662 99.8883 83.9778C101.299 82.9675 102.651 81.9118 103.908 80.8395C104.009 80.7536 104.109 80.6678 104.208 80.5822C104.747 80.117 105.264 79.652 105.744 79.1998C105.828 79.1221 105.91 79.0435 105.991 78.9662C106.492 78.4907 106.948 78.037 107.361 77.6048C107.43 77.5331 107.498 77.4633 107.563 77.3934C108.023 76.9077 108.44 76.4416 108.804 76.0082L108.856 75.9463C108.9 75.8948 108.943 75.8436 108.985 75.7925C109.12 75.629 109.249 75.47 109.372 75.3125C109.426 75.2438 109.48 75.1754 109.53 75.1084C109.889 74.6437 110.202 74.1962 110.463 73.7781C110.5 73.7192 110.535 73.6614 110.569 73.6035C110.786 73.2532 110.974 72.8859 111.132 72.5053L111.15 72.4582C111.162 72.4275 111.173 72.3975 111.184 72.3669C111.218 72.2782 111.245 72.1949 111.267 72.1145C111.282 72.0623 111.292 72.0256 111.301 71.9902L111.301 71.9891C111.367 71.7175 111.38 71.4871 111.34 71.3046C111.329 71.2565 111.315 71.2093 111.297 71.1633C111.269 71.0912 111.236 71.0214 111.197 70.9546C109.992 68.8368 102.885 65.7014 93.4772 64.2984Z" fill="#371A45"/>
<g opacity="0.7">
<path d="M111.269 70.9134C109.739 70.3287 105.435 68.7366 101.253 67.6938C98.5509 67.019 96.1194 66.5402 94.4174 66.2372L93.3291 64.1936C103.07 65.622 110.098 68.8569 111.269 70.9134Z" fill="white"/>
</g>
<g opacity="0.35">
<path d="M111.38 72.0085C111.371 72.0498 111.358 72.0926 111.346 72.1368C111.323 72.2193 111.295 72.3048 111.261 72.3946C111.244 72.4417 111.226 72.4873 111.207 72.5359C111.048 72.9203 110.858 73.2913 110.639 73.6452C110.604 73.704 110.57 73.7627 110.532 73.8214C110.273 74.2366 109.961 74.6836 109.595 75.158C109.544 75.2254 109.49 75.2941 109.436 75.363C109.313 75.5211 109.183 75.6806 109.048 75.8445C108.989 75.9161 108.928 75.9878 108.866 76.061C108.492 76.5071 108.076 76.9705 107.623 77.4496C107.557 77.5198 107.489 77.5899 107.42 77.6614C106.999 78.1025 106.546 78.553 106.061 79.013C105.975 79.0947 105.889 79.1778 105.8 79.2594C105.316 79.7145 104.804 80.176 104.261 80.6441C104.163 80.73 104.062 80.8159 103.961 80.9018C102.749 81.9358 101.404 82.9931 99.9361 84.0442C99.8137 84.1328 99.6898 84.2199 99.5658 84.307C99.318 84.4826 99.0672 84.6568 98.812 84.8323C98.6852 84.9194 98.5568 85.0064 98.4285 85.0934C98.3912 85.1195 98.3539 85.1442 98.3151 85.1688C98.3292 83.9246 98.2213 82.5188 98.064 81.1583C101.739 78.9463 109.571 74.0124 111.373 71.1339C111.392 71.1837 111.408 71.2348 111.42 71.287C111.463 71.4828 111.449 71.7254 111.38 72.0085Z" fill="#371A45"/>
</g>
<path d="M56.3171 97.7058C54.9105 97.7058 53.5307 97.6644 52.2101 97.5827C50.6387 97.4854 49.1189 97.3283 47.6929 97.1158C44.3796 96.6187 41.5602 95.8271 39.3124 94.7629C36.0334 93.2116 34.0882 91.1563 33.5312 88.654C32.9741 86.1518 33.8635 83.4644 36.1745 80.6666C37.7581 78.7483 39.9751 76.8336 42.7637 74.976C43.9654 74.1774 45.2749 73.3895 46.6562 72.6338C47.9063 71.9499 49.2391 71.2791 50.6175 70.6398C51.9161 70.0385 53.2667 69.4587 54.6322 68.9162C59.2003 67.0997 64.1365 65.5943 69.3035 64.4422C79.0076 62.2783 87.7685 62.813 93.4092 63.6426C103.846 65.1731 111.429 68.7681 111.962 71.1655C112.325 72.7937 109.995 75.671 108.574 77.2412C105.973 80.1154 102.341 83.1613 98.3467 85.8177C93.582 88.9873 85.8701 93.2187 76.19 95.3773C71.0228 96.5295 65.915 97.2638 61.0083 97.5598C59.5431 97.6488 58.0744 97.6976 56.6429 97.705C56.5343 97.7055 56.4254 97.7058 56.3171 97.7058ZM83.432 64.0304C79.2585 64.0304 74.5283 64.4175 69.5454 65.5286C64.4358 66.6679 59.5563 68.1557 55.0425 69.9507C53.696 70.4856 52.3645 71.0572 51.0847 71.6498C49.7289 72.2787 48.4182 72.9383 47.1896 73.6104C45.8361 74.3509 44.5542 75.1222 43.3794 75.9029C40.6819 77.6997 38.5461 79.5412 37.0317 81.3757C34.9507 83.8952 34.1382 86.2625 34.6167 88.412C35.0952 90.5615 36.835 92.3598 39.7878 93.7567C41.9373 94.7744 44.6522 95.5341 47.8572 96.0151C49.2513 96.2227 50.7391 96.3764 52.2788 96.4717C53.6767 96.5583 55.1418 96.5981 56.6376 96.592C58.0482 96.5847 59.4962 96.5365 60.9412 96.4489C65.7894 96.1563 70.8384 95.4303 75.9482 94.2909C85.4616 92.1695 93.0449 88.0081 97.7312 84.8907C106.832 78.8379 111.189 72.8088 110.877 71.4075C110.558 69.9765 104.047 66.3275 93.2477 64.7438C89.9973 64.2686 86.7168 64.0302 83.432 64.0304Z" fill="#371A45"/>
<path d="M81.5909 86.7698C80.5145 87.0109 79.4011 87.0371 78.3145 86.847C77.2279 86.6569 76.1895 86.2542 75.2585 85.662C74.3276 85.0698 73.5225 84.2997 72.8893 83.3957C72.2561 82.4917 71.8073 81.4717 71.5684 80.3939C71.476 79.9825 71.415 79.5647 71.3859 79.144C71.0988 75.0635 73.8282 71.2774 77.9391 70.3616C78.2071 70.3007 78.4782 70.254 78.7512 70.2218C82.2211 69.7944 85.5454 71.5787 87.1574 74.5735C87.5242 75.2543 87.7953 75.9825 87.9631 76.7375C88.9714 81.2689 86.1185 85.7606 81.5909 86.7698Z" fill="#EE346A"/>
<g opacity="0.7">
<path d="M71.3972 79.1092C71.6999 75.5472 74.2674 72.4392 77.9391 71.6213C78.2071 71.5604 78.4782 71.5137 78.7512 71.4815C82.2211 71.054 85.5454 72.8383 87.1574 75.8332C87.7073 76.8524 88.0398 77.9749 88.1338 79.1295C88.2743 77.4947 87.9349 75.8543 87.1574 74.4097C85.5454 71.4149 82.2211 69.6306 78.7512 70.058C78.4782 70.0902 78.2071 70.1369 77.9391 70.1978C73.8282 71.1136 71.0988 74.8996 71.3859 78.9802C71.3888 79.0231 71.3936 79.0662 71.3972 79.1092Z" fill="white"/>
</g>
<g opacity="0.35">
<path d="M81.5913 86.7698C79.9754 87.1299 78.2892 87.0043 76.7444 86.4087C75.1996 85.8131 73.865 84.774 72.9082 83.422C72.5395 82.7386 72.2674 82.0073 72.0996 81.249C72.0871 81.1941 72.076 81.1392 72.0649 81.0843C73.0245 82.4245 74.3567 83.4528 75.8957 84.0411C77.4347 84.6295 79.1125 84.7519 80.7205 84.3933C85.1917 83.3967 88.03 79.0024 87.1273 74.5287C87.1375 74.5436 87.1491 74.5586 87.1577 74.5735C87.5246 75.2543 87.7957 75.9825 87.9634 76.7375C88.9718 81.2689 86.1189 85.7606 81.5913 86.7698Z" fill="#371A45"/>
</g>
<path d="M79.7637 87.5288C75.6618 87.5288 71.9529 84.6846 71.0247 80.5148C70.7687 79.366 70.7414 78.178 70.9443 77.0186C71.1471 75.8592 71.5762 74.7512 72.2069 73.7578C72.8377 72.7644 73.6578 71.9051 74.6205 71.2289C75.5831 70.5527 76.6694 70.073 77.8173 69.817C78.9652 69.5611 80.1522 69.5339 81.3106 69.7371C82.469 69.9403 83.576 70.37 84.5685 71.0014C85.561 71.6329 86.4195 72.4538 87.0949 73.4173C87.7704 74.3809 88.2495 75.4682 88.5051 76.617C89.5788 81.4404 86.5315 86.2388 81.7122 87.3134C81.0725 87.4564 80.4191 87.5286 79.7637 87.5288ZM79.7803 70.7143C79.2014 70.7146 78.6244 70.7785 78.0595 70.9049C76.0293 71.3576 74.262 72.5988 73.1462 74.3557C72.0305 76.1125 71.6578 78.241 72.1101 80.2728C73.0506 84.4971 77.2493 87.1683 81.4703 86.227C85.6911 85.2858 88.36 81.0834 87.4196 76.8591C87.0316 75.1194 86.0641 73.5635 84.6758 72.4469C83.2876 71.3303 81.5613 70.7193 79.7803 70.7143Z" fill="#371A45"/>
<path d="M79.7637 87.5457C75.6542 87.5457 71.9383 84.6961 71.0083 80.5185C70.4914 78.1943 70.918 75.7599 72.1943 73.7505C73.4707 71.7411 75.4922 70.3214 77.8143 69.8036C80.1365 69.2859 82.569 69.7124 84.5769 70.9895C86.5849 72.2665 88.0037 74.2895 88.5215 76.6134C89.5972 81.4458 86.5442 86.2531 81.7158 87.3298C81.075 87.473 80.4204 87.5454 79.7637 87.5457ZM79.7803 70.7311C79.2027 70.7314 78.6268 70.7952 78.0631 70.9213C77.06 71.1449 76.1108 71.5642 75.2695 72.155C74.4283 72.7458 73.7116 73.4967 73.1604 74.3647C72.6091 75.2327 72.2341 76.2009 72.0567 77.214C71.8793 78.2271 71.903 79.2653 72.1265 80.2692C73.065 84.4843 77.2547 87.1492 81.4667 86.2107C85.6785 85.2714 88.3416 81.078 87.4033 76.8627C87.0161 75.1268 86.0507 73.5742 84.6654 72.4599C83.2802 71.3457 81.5575 70.736 79.7803 70.7311Z" fill="#371A45"/>
<path d="M84.1523 82.0427C83.3001 83.1181 82.0828 83.8426 80.7318 84.0784C79.3808 84.3143 77.9902 84.045 76.8246 83.3218C75.659 82.5986 74.7996 81.4719 74.4098 80.156C74.02 78.84 74.127 77.4266 74.7105 76.1844C75.2939 74.9423 76.3131 73.958 77.5742 73.4188C78.8354 72.8796 80.2506 72.823 81.5507 73.2599C82.8508 73.6967 83.9452 74.5965 84.6257 75.7882C85.3062 76.9798 85.5255 78.3802 85.2418 79.7231C85.0626 80.5701 84.6897 81.3641 84.1523 82.0427Z" fill="#22A7F0"/>
<path d="M79.7594 84.4427C78.6559 84.4423 77.5749 84.1306 76.6402 83.5435C75.7056 82.9564 74.9551 82.1175 74.475 81.1231C73.9949 80.1287 73.8045 79.019 73.9256 77.9213C74.0468 76.8235 74.4746 75.7822 75.16 74.9166C77.1707 72.375 80.8725 71.9445 83.4119 73.9567C84.0172 74.4356 84.5222 75.0293 84.898 75.7037C85.2739 76.3781 85.5132 77.12 85.6023 77.8871C85.6913 78.6542 85.6284 79.4313 85.4171 80.174C85.2058 80.9167 84.8503 81.6104 84.3709 82.2155C83.8204 82.9114 83.1194 83.4733 82.3207 83.8591C81.522 84.2448 80.6463 84.4444 79.7594 84.4427ZM79.771 73.2456C78.8703 73.2448 77.9843 73.4729 77.1959 73.9087C76.4075 74.3444 75.7426 74.9735 75.2636 75.7368C74.7846 76.5001 74.5072 77.3727 74.4574 78.2727C74.4076 79.1727 74.587 80.0706 74.9789 80.8822C75.3707 81.6938 75.9622 82.3924 76.6977 82.9126C77.4332 83.4329 78.2886 83.7576 79.1839 83.8563C80.0791 83.955 80.9847 83.8245 81.8157 83.4771C82.6467 83.1297 83.376 82.5766 83.935 81.8699C84.5555 81.0863 84.9428 80.1435 85.0525 79.1497C85.1622 78.1558 84.9898 77.1512 84.5552 76.2509C84.1205 75.3506 83.4411 74.5912 82.5949 74.0596C81.7487 73.5281 80.77 73.2459 79.771 73.2456Z" fill="#371A45"/>
<g opacity="0.42">
<path d="M83.9082 79.8159C83.6552 80.5532 83.1319 81.1899 82.483 81.66C81.8196 82.1325 81.0477 82.4298 80.2388 82.5242C79.43 82.6185 78.6104 82.5069 77.8561 82.1998C77.1165 81.8915 76.461 81.3912 76.0469 80.7304C76.7832 80.9779 77.4546 81.1612 78.1247 81.2526C79.4356 81.4426 80.7734 81.2876 82.0062 80.8027C82.6378 80.5601 83.2495 80.2268 83.9082 79.8159Z" fill="#371A45"/>
</g>
<path d="M34.236 93.6705L31.7965 83.7071C31.5016 82.5029 32.5125 81.2841 33.9175 81.15L35.9482 80.9562L39.1882 94.1886L37.298 94.9564C35.9903 95.4877 34.5308 94.8747 34.236 93.6705Z" fill="#FF5656"/>
<g opacity="0.7">
<path d="M33.9996 82.7675L36.0303 82.5737L38.9502 94.499L39.1457 94.4196L35.9057 81.1871L33.875 81.381C32.47 81.5151 31.4591 82.7338 31.754 83.9381L31.8826 84.4632C32.0978 83.594 32.9349 82.8691 33.9996 82.7675Z" fill="white"/>
</g>
<g opacity="0.35">
<path d="M39.1888 94.1889L37.2991 94.9561C35.9908 95.4871 34.531 94.8752 34.237 93.6711L33.3535 90.0618C33.9652 90.6325 34.9634 90.8282 35.8853 90.4532L37.7764 89.686L35.6453 80.9842L35.9488 80.9558L39.1888 94.1889Z" fill="black"/>
<path d="M36.3184 95.2321C35.9287 95.2336 35.5441 95.1423 35.1966 94.9658C34.66 94.6911 34.291 94.2382 34.1572 93.6906L33.2085 89.8148L33.409 90.0019C34.0207 90.5727 35.0033 90.7232 35.8541 90.3773L37.6798 89.6367L35.543 80.9115L36.0111 80.8677L36.028 80.9363L39.2848 94.2381L37.3296 95.0319C37.0086 95.1632 36.6652 95.2312 36.3184 95.2321ZM33.4913 90.2815L34.3162 93.6517C34.4385 94.1524 34.7776 94.5673 35.2711 94.82C35.8653 95.1242 36.6118 95.1465 37.2681 94.8802L39.0921 94.1396L35.8858 81.044L35.7471 81.0569L37.8725 89.7352L35.9157 90.529C35.0918 90.8644 34.1498 90.7609 33.4913 90.2815Z" fill="#371A45"/>
</g>
<path d="M36.0647 95.8443C35.6633 95.8456 35.2673 95.7513 34.9093 95.5694C34.3338 95.2749 33.9364 94.7843 33.7903 94.1877L31.1624 83.4548C31.0163 82.8583 31.142 82.2392 31.5164 81.7118C31.9479 81.1039 32.6402 80.7128 33.416 80.6388L36.374 80.3565L39.8428 94.5235L37.0895 95.6418C36.7641 95.7748 36.4161 95.8436 36.0647 95.8443ZM34.8704 93.9228C34.9384 94.2005 35.132 94.4333 35.4155 94.5783C35.7855 94.7675 36.2549 94.7795 36.6713 94.6106L38.5338 93.8539L35.5226 81.5559L33.5215 81.7469C33.0743 81.7896 32.6636 82.0174 32.423 82.3565C32.2386 82.6162 32.1745 82.9122 32.2425 83.1899L34.8704 93.9228ZM98.5302 85.3713L97.5487 85.3372L97.5592 85.0346C97.8037 77.7937 96.1985 70.61 92.8956 64.163L93.7691 63.714C97.1485 70.3101 98.7908 77.66 98.5407 85.0685L98.5302 85.3713ZM59.9888 97.0647L59.5839 90.8262C59.2256 85.2843 58.0022 79.8329 55.958 74.67L53.9535 69.6037L54.8664 69.2418L56.8709 74.3081C58.9528 79.5663 60.1989 85.1184 60.5639 90.7625L60.9687 97.0011L59.9888 97.0647ZM79.7589 84.6557C78.6154 84.6552 77.4952 84.3323 76.5267 83.7238C75.5581 83.1154 74.7806 82.2461 74.283 81.2157C73.7855 80.1853 73.5882 79.0354 73.7137 77.8978C73.8392 76.7603 74.2825 75.6812 74.9927 74.7842C77.0764 72.1506 80.9123 71.7044 83.5438 73.7896C84.171 74.2858 84.6943 74.901 85.0837 75.5999C85.4732 76.2987 85.7211 77.0676 85.8134 77.8624C85.9057 78.6573 85.8406 79.4625 85.6217 80.2322C85.4027 81.0018 85.0344 81.7207 84.5376 82.3477C83.9672 83.0688 83.2408 83.6512 82.4131 84.0509C81.5854 84.4507 80.6779 84.6575 79.7589 84.6557ZM79.7705 73.4586C78.7099 73.4568 77.6751 73.7858 76.81 74.3999C75.9448 75.0139 75.2924 75.8824 74.9432 76.8848C74.5941 77.8871 74.5657 78.9734 74.8619 79.9926C75.1582 81.0118 75.7644 81.9133 76.5962 82.5718C78.8031 84.3208 82.0204 83.9465 83.7677 81.7376C84.3634 80.9854 84.7352 80.0804 84.8405 79.1263C84.9458 78.1723 84.7804 77.2079 84.3631 76.3436C83.9458 75.4794 83.2937 74.7503 82.4814 74.2401C81.6691 73.7298 80.7295 73.459 79.7705 73.4586Z" fill="#371A45"/>
<g opacity="0.35">
<path d="M92.0565 64.5111C88.7579 66.6537 79.7318 64.8008 77.3809 66.2714C76.5272 66.8052 78.4594 68.6198 77.0782 73.5535C76.1276 76.9505 71.7431 79.9357 68.8911 79.1857C64.0394 77.9093 67.5364 71.9462 59.5756 71.4962C55.1368 71.2448 53.5631 70.7404 53.0386 70.3448C53.1929 70.2801 53.3486 70.2154 53.5058 70.1507C57.8638 68.3552 62.7376 66.7787 67.9478 65.5479C76.4582 63.5376 84.7598 63.5303 91.6936 64.4612C91.8155 64.4773 91.936 64.4935 92.0565 64.5111Z" fill="#293856"/>
<path d="M69.8413 79.3847C69.514 79.3866 69.1878 79.3463 68.8707 79.2649C66.7546 78.7082 66.2042 77.2966 65.6214 75.8021C64.8605 73.8505 64.0735 71.8326 59.5715 71.578C56.0111 71.3763 53.7353 70.9724 52.9898 70.4101L52.876 70.3243L53.0074 70.2692C53.1618 70.2045 53.3177 70.1397 53.4751 70.075C57.9757 68.2207 62.8388 66.6708 67.9294 65.4682C77.4784 63.2125 86.1293 63.6314 91.7049 64.38C91.827 64.3961 91.9479 64.4124 92.0687 64.4302L92.2836 64.4616L92.1014 64.5799C90.2769 65.7648 86.6947 65.7418 83.5346 65.7204C80.9296 65.7039 78.4698 65.6871 77.4247 66.3409C77.1551 66.5095 77.2123 66.8339 77.3674 67.5517C77.6079 68.6648 78.0106 70.5279 77.1575 73.5756C76.3005 76.6375 72.681 79.3845 69.8413 79.3847ZM53.2111 70.3615C53.822 70.728 55.4395 71.1799 59.5807 71.4145C64.1878 71.6749 64.9941 73.7428 65.7739 75.7426C66.3411 77.1971 66.8767 78.571 68.9123 79.1065C71.7537 79.853 76.0616 76.8835 76.9998 73.5314C77.8421 70.5228 77.4448 68.6846 77.2075 67.5864C77.0528 66.8706 76.9594 66.4387 77.338 66.2019C78.4234 65.523 80.9073 65.5389 83.5356 65.5567C86.5637 65.5764 89.9795 65.5991 91.8177 64.5603C91.7731 64.5543 91.7283 64.5484 91.6834 64.5424C86.1212 63.7958 77.4919 63.3778 67.967 65.6275C62.8848 66.8282 58.03 68.3755 53.5373 70.2265C53.4278 70.2716 53.3191 70.3166 53.2111 70.3615Z" fill="#371A45"/>
</g>
<path d="M51.5148 44.1289L49.0246 44.8887L38.5525 10.5065C38.4573 10.1938 38.4901 9.85609 38.6437 9.5676C38.7972 9.2791 39.059 9.06348 39.3714 8.96816L39.5057 8.92722C39.8181 8.8319 40.1555 8.8647 40.4438 9.01841C40.7321 9.17211 40.9475 9.43412 41.0427 9.7468L51.5148 44.1289Z" fill="#FF9D00"/>
<path d="M43.3198 24.6503C43.3198 24.6503 42.2703 24.3428 40.7898 24.2844H40.787C39.0521 24.2148 36.7292 24.4917 34.8205 26.0152C34.8181 26.0175 34.8153 26.0194 34.8122 26.0207C34.2879 26.4424 33.8222 26.9323 33.4276 27.4774C33.4262 27.4788 33.4263 27.4816 33.4249 27.483C33.3859 27.5358 33.3484 27.5887 33.3109 27.643C32.8631 28.2959 32.3775 28.9221 31.8568 29.5184C29.26 32.4902 27.0136 33.1163 26.3866 33.2387C26.3853 33.2394 26.3839 33.2399 26.3824 33.2401C26.2712 33.261 26.2128 33.2665 26.2128 33.2665L25.2342 30.9848L25.009 30.4617L20.6426 20.2859C24.9909 17.8052 26.0696 16.1495 27.4737 14.3562C27.8004 13.9416 28.1424 13.5186 28.5483 13.0762C29.4046 12.1413 30.2706 11.4707 31.12 11.0032C33.803 9.52427 36.3205 10.0627 37.8357 10.6777C37.8417 10.6788 37.8474 10.6811 37.8524 10.6846C37.8733 10.693 37.8913 10.7013 37.9108 10.7083C37.9123 10.7097 37.9143 10.7107 37.9164 10.711C38.7824 11.0714 39.2982 11.447 39.2982 11.447L43.3198 24.6503Z" fill="white"/>
<path d="M26.1613 33.3535L24.934 30.494L20.5386 20.2509L20.6021 20.2146C24.6023 17.9326 25.8105 16.3708 27.0897 14.7172C27.1954 14.5805 27.3014 14.4434 27.4094 14.3056C27.7254 13.9045 28.0747 13.4713 28.4881 13.0208C29.3 12.1344 30.1723 11.4314 31.0807 10.9315C33.7437 9.46359 36.2408 9.94196 37.8666 10.6018L37.9581 10.6396C38.817 10.9983 39.3251 11.3653 39.3465 11.3808L39.3685 11.3969L43.4423 24.7714L43.2969 24.7289C43.2864 24.7258 42.2387 24.4235 40.7867 24.3663C39.1482 24.2996 36.7941 24.5445 34.8716 26.0792L34.8479 26.0944C34.3391 26.508 33.8861 26.9861 33.5005 27.5166L33.4828 27.5409C33.4524 27.5838 33.4153 27.636 33.3783 27.6895C32.9285 28.345 32.441 28.9737 31.9183 29.5725C29.3242 32.5411 27.0637 33.1875 26.4139 33.3168L26.3825 33.322C26.2816 33.3424 26.2206 33.3481 26.2206 33.3481L26.1613 33.3535ZM20.7466 20.3207L26.2637 33.1773C26.2898 33.1733 26.3245 33.1677 26.3674 33.1596C26.9923 33.0369 29.2197 32.412 31.7953 29.4645C32.3138 28.8704 32.7974 28.2467 33.2437 27.5964C33.2795 27.5446 33.3153 27.4941 33.3523 27.4436L33.3698 27.4195C33.7666 26.8722 34.2345 26.3803 34.7612 25.9567C36.7315 24.3849 39.1263 24.1358 40.7903 24.2026C41.6021 24.233 42.4088 24.3439 43.1988 24.5336L39.2282 11.4978C38.8099 11.2194 38.365 10.9832 37.9 10.7928H37.8825L37.8677 10.7794C37.8593 10.7762 37.851 10.7726 37.8424 10.769L37.8036 10.7502C36.2124 10.1071 33.7663 9.63797 31.1596 11.075C30.2668 11.5663 29.4086 12.2583 28.6087 13.1315C28.1989 13.5781 27.8519 14.0084 27.538 14.4068C27.4304 14.5443 27.3246 14.681 27.2191 14.8175C25.9365 16.4756 24.7249 18.0421 20.7466 20.3207Z" fill="#371A45"/>
<path d="M83.2099 52.3439C80.2786 53.4909 75.6135 56.4585 75.5033 57.1334C75.421 57.6467 75.8941 59.3657 76.6935 60.2789C76.9432 60.5642 77.2253 60.7701 77.5324 60.8363C78.8196 61.1112 81.4864 62.3686 81.5834 62.8406C81.5834 62.8406 72.356 63.5067 71.4524 63.995C73.2758 64.9788 75.4783 67.5184 75.0713 70.9315C75.0522 71.0977 75.0302 71.2609 75.0067 71.4197C74.178 77.0416 71.0527 78.4989 69.2645 77.7122C66.0085 76.2799 68.0303 69.4875 59.1571 69.0213C53.5442 68.7272 52.4275 62.5715 52.3849 57.9687C52.3805 57.5423 52.3864 57.1305 52.3982 56.7364C52.4334 55.5011 52.5333 54.457 52.6141 53.7806V53.7791C52.623 53.7144 52.6303 53.6527 52.6362 53.5953C52.6377 53.5909 52.6377 53.5865 52.6391 53.5821C52.6832 53.3909 52.7317 53.1939 52.7831 52.9983C52.789 52.9748 52.7949 52.9527 52.7993 52.9306L52.7258 52.96C52.7258 52.96 49.9106 50.8792 47.0307 46.5426C44.621 42.9119 44.3624 39.6311 45.4468 38.012C46.5517 36.3606 49.0525 36.4326 52.094 39.6178C52.645 40.1957 53.1887 40.7354 53.7191 41.2398C59.9138 47.1279 64.5906 48.2352 64.5906 48.2352L64.4187 48.3043C66.9327 48.9543 71.0674 49.5057 75.4078 47.894C77.4913 47.1205 78.9048 46.4117 79.9774 45.8132C82.5076 44.4 83.157 43.5956 86.2779 43.978C87.2403 44.0956 87.781 44.5015 88.0043 45.0765C88.8154 47.1543 85.5065 51.4454 83.2099 52.3439Z" fill="white"/>
<path d="M70.2328 77.9917C69.8886 77.9939 69.5476 77.9242 69.2318 77.7872C68.0403 77.2631 67.5516 76.0734 66.9856 74.6959C66.0162 72.3366 64.81 69.4003 59.1529 69.1031C53.574 68.8108 52.3487 62.8873 52.3033 57.9695C52.2992 57.5723 52.3035 57.1681 52.3165 56.734C52.3522 55.4838 52.4539 54.4326 52.5331 53.7709C52.5419 53.7043 52.5492 53.6435 52.555 53.587L52.562 53.5553C52.5997 53.3895 52.6431 53.2122 52.6892 53.0347L52.6773 53.0259C52.6491 53.005 49.8175 50.8868 46.9627 46.588C44.4329 42.7761 44.3443 39.5112 45.3789 37.9664C45.8126 37.3182 46.4459 36.9405 47.2103 36.8743C48.6252 36.7515 50.3817 37.7058 52.1533 39.5612C52.6722 40.1055 53.2179 40.6503 53.7756 41.1805C59.8797 46.9825 64.5631 48.1445 64.6096 48.1555L64.8605 48.2151L64.683 48.2864C67.3311 48.937 71.2613 49.3467 75.3795 47.8173C77.6254 46.9834 79.0566 46.2334 79.9376 45.7417C80.3397 45.5172 80.7007 45.3042 81.0192 45.1162C82.7617 44.088 83.636 43.5713 86.288 43.8968C87.2256 44.0113 87.8288 44.3983 88.0808 45.0469C88.9346 47.2341 85.5101 51.532 83.2399 52.4201C80.3549 53.5491 75.6855 56.5261 75.5842 57.1467C75.5046 57.6436 75.9853 59.3455 76.7552 60.2251C77.0129 60.5194 77.2803 60.6982 77.5498 60.7562C78.7927 61.0218 81.5514 62.2773 81.6637 62.8242L81.6824 62.9157L81.5894 62.9223C81.5011 62.9287 73.1115 63.5388 71.642 64.0071C73.625 65.1531 75.5314 67.7663 75.1527 70.9413C75.1335 71.1081 75.1114 71.2721 75.0877 71.4318C74.4859 75.5152 72.7675 77.0262 71.7967 77.5633C71.2833 77.8474 70.7453 77.9917 70.2328 77.9917ZM52.9098 52.7984L52.8796 52.947C52.8756 52.9668 52.8706 52.9867 52.8654 53.0075C52.8112 53.2139 52.7629 53.41 52.7191 53.6005L52.7144 53.6202C52.7118 53.662 52.7044 53.7247 52.6953 53.7903C52.6169 54.4487 52.5156 55.4947 52.4801 56.7388C52.4672 57.1708 52.4629 57.5728 52.4669 57.9678C52.5117 62.8154 53.7095 68.6539 59.1614 68.9396C64.9219 69.2422 66.1501 72.2316 67.1369 74.6335C67.6895 75.9783 68.1666 77.1398 69.2976 77.6372C70.0154 77.953 70.8973 77.8737 71.7175 77.4199C72.6618 76.8974 74.3342 75.4215 74.9259 71.4078C74.9493 71.2498 74.9711 71.0875 74.9902 70.9222C75.3694 67.7427 73.4021 65.1399 71.4137 64.0671L71.2802 63.9951L71.4137 63.9229C72.2761 63.4569 80.3189 62.8514 81.4565 62.7679C81.0904 62.2938 78.7618 61.1827 77.5155 60.9163C77.2107 60.8507 76.9135 60.6544 76.6321 60.3329C75.8047 59.3877 75.34 57.6366 75.4226 57.1205C75.5441 56.3765 80.3291 53.3833 83.1802 52.2677C85.3432 51.4214 88.7364 47.1769 87.9282 45.1063C87.6998 44.5183 87.1413 44.1661 86.2682 44.0594C83.6715 43.7415 82.813 44.248 81.1022 45.2574C80.7829 45.4458 80.4211 45.6592 80.0174 45.8847C79.1315 46.3791 77.6929 47.1331 75.4364 47.9709C71.1502 49.5624 67.0682 49.0739 64.3984 48.3836L64.1571 48.3212L64.338 48.2485C63.3121 47.935 59.0287 46.3995 53.6629 41.2993C53.1033 40.7671 52.5556 40.2204 52.0349 39.6743C50.2983 37.8557 48.5904 36.9182 47.2244 37.0375C46.5112 37.0993 45.92 37.4521 45.5149 38.0576C44.5106 39.5572 44.6109 42.7484 47.0991 46.4972C49.7626 50.5083 52.4017 52.6073 52.7386 52.8669L52.9098 52.7984Z" fill="#371A45"/>
<g opacity="0.35">
<path d="M79.978 45.8131C77.854 49.0737 73.4479 51.3329 68.5888 51.3329C61.611 51.3329 55.2816 46.7778 53.7197 41.2397C59.9144 47.1278 64.5913 48.2351 64.5913 48.2351L64.4194 48.3042C66.9334 48.9542 71.0681 49.5056 75.4085 47.8939C77.4919 47.1204 78.9054 46.4116 79.978 45.8131Z" fill="#371A45"/>
</g>
<g opacity="0.35">
<path d="M83.2103 52.3438C80.279 53.4908 75.6139 56.4584 75.5037 57.1334C75.4214 57.6466 75.8945 59.3656 76.6938 60.2788C75.6168 59.6362 74.6191 58.573 74.6191 56.8452C74.6191 53.085 78.4179 53.5281 83.4914 50.2314C86.5012 48.2757 87.6579 45.9881 88.0047 45.0764C88.8158 47.1543 85.5068 51.4453 83.2103 52.3438Z" fill="#371A45"/>
</g>
<g opacity="0.35">
<path d="M53.9548 52.0298C53.7447 54.1209 53.4634 55.4886 53.8425 58.0768C53.9659 58.918 53.4884 58.6407 52.3849 57.9687C52.3805 57.5422 52.3864 57.1305 52.3982 56.7363C52.4334 55.5011 52.5333 54.457 52.6141 53.7806V53.7791C52.623 53.7144 52.6303 53.6526 52.6362 53.5953C52.6377 53.5909 52.6377 53.5864 52.6391 53.5821C52.6832 53.3909 52.7317 53.1938 52.7831 52.9982C52.789 52.9747 52.7949 52.9526 52.7993 52.9306L52.7258 52.96C52.7258 52.96 49.9106 50.8792 47.0307 46.5426C44.621 42.9118 44.3624 39.631 45.4468 38.012C45.4262 39.1016 45.6158 41.0883 46.8911 43.4427C49.148 47.6131 54.1664 49.9387 53.9548 52.0298Z" fill="#371A45"/>
</g>
<g opacity="0.35">
<path d="M73.2766 64.2921C73.2766 64.2921 70.6274 64.0671 67.9987 63.9671C65.3716 63.8656 62.8678 64.2715 62.8678 62.298C62.8678 61.9148 62.8633 61.387 62.8562 60.7736C62.8559 60.7423 62.8487 60.7114 62.8353 60.6831C62.8219 60.6548 62.8025 60.6298 62.7785 60.6097C62.7545 60.5897 62.7264 60.5751 62.6962 60.567C62.666 60.5588 62.6344 60.5573 62.6035 60.5626C59.6874 61.0494 55.9734 60.753 54.2096 60.5613C54.1704 60.5571 54.1308 60.5637 54.095 60.5804C54.0593 60.5971 54.0288 60.6233 54.0068 60.656C53.9849 60.6888 53.9722 60.727 53.9704 60.7664C53.9685 60.8058 53.9774 60.845 53.9961 60.8798C55.239 63.1812 57.4082 65.2342 61.1958 65.1126C69.6415 64.8435 67.8724 69.6713 70.382 71.533C72.0923 72.8021 73.6615 72.5977 75.1955 71.4198C74.3668 77.0416 71.2415 78.499 69.4534 77.7122C66.1973 76.2799 68.2191 69.4875 59.3459 69.0213C54.0249 68.7422 52.745 63.1966 52.5894 58.6982L53.0572 58.6261L55.6035 58.229L61.8364 57.8335C61.8364 57.8335 62.2786 57.9746 62.8179 58.1967C62.7887 56.3934 62.7515 54.5099 62.7298 53.4035C62.7273 53.2764 62.7501 53.1501 62.797 53.0319C62.8439 52.9138 62.9139 52.8062 63.0029 52.7155C63.0918 52.6248 63.198 52.5527 63.3151 52.5035C63.4322 52.4544 63.558 52.4291 63.685 52.4292L67.987 52.4292L74.0186 61.3818C74.0186 61.3818 80.8188 63.4716 79.9708 63.7979C79.3718 64.0285 73.2766 64.2921 73.2766 64.2921Z" fill="#371A45"/>
</g>
<g opacity="0.35">
<path d="M52.8684 58.6261L52.4012 58.6982C52.3777 58.0129 52.3806 57.3512 52.3982 56.7365C52.5178 57.375 52.6748 58.006 52.8684 58.6261Z" fill="#293856"/>
<path d="M52.3227 58.7932L52.3196 58.7009C52.2982 58.0758 52.2971 57.414 52.3166 56.7341L52.3384 55.9771L52.4788 56.7212C52.5978 57.3566 52.7541 57.9844 52.9467 58.6014L52.9753 58.6924L52.3227 58.7932ZM52.4672 57.4613C52.4644 57.8519 52.4687 58.2337 52.4801 58.6032L52.7623 58.5596C52.6531 58.2046 52.5545 57.8374 52.4672 57.4613Z" fill="#371A45"/>
</g>
<g opacity="0.35">
<path d="M52.4029 58.7541L52.3843 58.7009L52.4015 58.698C52.4015 58.7167 52.4029 58.7354 52.4029 58.7541Z" fill="#293856"/>
<path d="M52.485 59.2355L52.2744 58.6356L52.4659 58.6047L52.485 58.7554V59.2355Z" fill="#371A45"/>
</g>
<path d="M82.1246 64.0281C82.0285 64.0282 81.9341 64.0034 81.8504 63.9561C81.7668 63.9088 81.6968 63.8406 81.6474 63.7581C80.8075 62.3594 77.0915 61.2189 75.7305 60.8975C75.587 60.8636 75.4628 60.774 75.3853 60.6485C75.3078 60.5231 75.2833 60.3719 75.3171 60.2283C75.3509 60.0847 75.4403 59.9604 75.5657 59.8827C75.691 59.8051 75.842 59.7804 75.9855 59.8142C76.5329 59.9432 81.3692 61.1341 82.6007 63.1848C82.6513 63.2693 82.6787 63.3656 82.68 63.4641C82.6813 63.5625 82.6565 63.6596 82.6081 63.7453C82.5597 63.831 82.4895 63.9024 82.4045 63.952C82.3196 64.0017 82.223 64.028 82.1246 64.0281Z" fill="#371A45"/>
<path d="M52.6363 53.5953C52.6304 53.6527 52.6231 53.7145 52.6143 53.7792C52.6165 53.7174 52.6238 53.6559 52.6363 53.5953Z" fill="white"/>
<path d="M52.6955 53.7903L52.5327 53.7756C52.5351 53.7092 52.5431 53.6431 52.5566 53.578L52.718 53.6037C52.712 53.662 52.7046 53.7247 52.6955 53.7903Z" fill="#371A45"/>
<path d="M65.7084 48.505C66.037 48.5724 66.3675 48.6311 66.6999 48.6811C69.3299 49.0669 72.0131 48.8475 74.5456 48.0395C74.8444 47.9438 75.1393 47.8422 75.4285 47.7316C78.829 46.4544 81.7465 44.147 83.7741 41.1312C86.6621 36.842 87.6368 31.3224 85.9523 26.0102C84.8317 22.4576 82.6058 19.3565 79.5996 17.1596C79.2766 16.9233 78.9462 16.6988 78.6084 16.486C76.4709 15.1348 74.0678 14.2599 71.5625 13.9208C71.0173 13.8475 70.467 13.8004 69.9114 13.7795C69.7047 13.7715 69.4973 13.7668 69.2905 13.7673C67.4751 13.7627 65.6702 14.0414 63.9406 14.5931C54.7122 17.5237 49.6041 27.3859 52.533 36.623C54.5206 42.8931 59.6989 47.2614 65.7084 48.505Z" fill="white"/>
<path d="M69.2321 48.9481C68.3804 48.9479 67.53 48.8858 66.6873 48.7622C66.3652 48.7143 66.0302 48.6548 65.6913 48.5853H65.6912C62.625 47.9497 59.7831 46.5091 57.4569 44.4113C55.1307 42.3134 53.4042 39.634 52.4543 36.6478C51.0313 32.1596 51.4397 27.3857 53.6045 23.2055C55.7693 19.0254 59.431 15.9391 63.9153 14.5151C65.6525 13.959 67.4662 13.6791 69.2901 13.6855C69.496 13.6838 69.706 13.6896 69.9139 13.6977C70.4679 13.7184 71.0261 13.7662 71.5727 13.8396C74.0897 14.1804 76.5039 15.0594 78.6515 16.4167C78.9942 16.6331 79.3292 16.8608 79.6472 17.0935C82.6703 19.2979 84.9073 22.4145 86.0297 25.9855C87.6657 31.1448 86.868 36.6818 83.8414 41.177C81.8044 44.2071 78.8731 46.5254 75.4565 47.8083C75.1844 47.9124 74.8942 48.0136 74.57 48.1175C72.924 48.6417 71.2099 48.9209 69.4828 48.9463C69.3993 48.9475 69.3157 48.9481 69.2321 48.9481ZM65.7242 48.4248C66.0602 48.4937 66.3923 48.5527 66.7112 48.6002C69.3289 48.9842 71.9997 48.7658 74.5203 47.9614C74.8415 47.8585 75.1288 47.7584 75.3986 47.6551C78.7834 46.384 81.6875 44.0874 83.7057 41.0855C86.7042 36.632 87.4945 31.1463 85.8737 26.035C84.7618 22.4973 82.5456 19.4097 79.5507 17.2258C79.2356 16.9953 78.9037 16.7696 78.5641 16.5552C76.4365 15.2103 74.0447 14.3396 71.551 14.002C71.0094 13.9292 70.4566 13.8819 69.9077 13.8614C69.7021 13.8534 69.4983 13.8496 69.29 13.8492C67.4833 13.848 65.6872 14.1252 63.9648 14.6712C59.5221 16.082 55.8945 19.1396 53.7498 23.2808C51.6052 27.4222 51.2005 32.1517 52.6103 36.5982C53.5513 39.5567 55.2618 42.2113 57.5664 44.2896C59.871 46.368 62.6866 47.7952 65.7243 48.4248H65.7242Z" fill="#371A45"/>
<g opacity="0.35">
<path d="M67.4564 48.774C67.7901 48.8079 68.1248 48.833 68.4606 48.8492C69.3906 48.891 70.3224 48.8581 71.2472 48.7509C72.9151 48.5581 74.8067 48.2099 76.4263 47.5087C76.7139 47.3834 76.9971 47.2526 77.2737 47.1134C77.8369 46.8339 78.3847 46.5244 78.9147 46.1861C81.4937 44.5404 83.3037 42.2005 84.6877 39.6157C87.1292 35.0571 87.5431 29.4673 85.3323 24.352C84.3338 22.0326 82.8446 19.9575 80.9673 18.2698C81.4289 21.883 80.7533 25.5503 79.0348 28.7613C77.3163 31.9722 74.6402 34.5671 71.3791 36.1846C71.1025 36.3238 70.8193 36.4546 70.5317 36.5799C68.0935 37.6393 65.446 38.1282 62.7905 38.0096C62.4547 37.9939 62.12 37.9688 61.7863 37.9344C58.0917 37.5509 54.6128 36.008 51.8472 33.5264C52.0558 35.165 52.495 36.7658 53.1517 38.2812C55.7605 44.3189 61.3522 48.1427 67.4564 48.774Z" fill="#293856"/>
<path d="M69.2398 48.9485C68.9787 48.9485 68.7178 48.9427 68.4574 48.9311C68.1319 48.9159 67.7926 48.8904 67.4486 48.8555H67.4485C63.4914 48.4464 59.7887 46.7105 56.9418 43.9295C54.0949 41.1486 52.271 37.4861 51.7664 33.5368L51.7388 33.3186L51.9023 33.4655C54.659 35.9295 58.1196 37.4642 61.7952 37.8529C62.136 37.8876 62.4723 37.9128 62.7947 37.9277C65.4377 38.0459 68.0729 37.5592 70.4997 36.5048C70.8086 36.3703 71.0844 36.2415 71.3428 36.1114C74.5822 34.5053 77.2401 31.9275 78.9459 28.7375C80.6748 25.5084 81.3459 21.8923 80.8866 18.2801L80.8589 18.0619L81.0225 18.2088C82.9104 19.9027 84.4069 21.988 85.4079 24.3195C87.555 29.2876 87.3189 34.877 84.7602 39.6545C83.1738 42.6174 81.2762 44.7766 78.9592 46.2553C78.4265 46.5949 77.8762 46.9059 77.3104 47.1869C77.0472 47.3193 76.7687 47.4492 76.4594 47.5838C75.0873 48.1779 73.3856 48.5862 71.257 48.8323C70.5874 48.9098 69.9139 48.9486 69.2398 48.9485ZM67.4652 48.6926C67.8063 48.7272 68.1426 48.7523 68.4648 48.7675C69.3904 48.8086 70.3178 48.7759 71.2382 48.6695C73.3506 48.4254 75.0372 48.0211 76.3943 47.4336C76.7006 47.3003 76.9764 47.1716 77.2374 47.0403C77.798 46.7618 78.3434 46.4537 78.8713 46.1171C81.164 44.6539 83.0431 42.5147 84.616 39.5771C87.151 34.844 87.3848 29.3064 85.2576 24.3845C84.2952 22.1428 82.87 20.13 81.0755 18.4784C81.485 22.0515 80.8003 25.6209 79.0903 28.8149C77.3685 32.0349 74.6857 34.6368 71.4159 36.258C71.1553 36.3892 70.8767 36.5192 70.5648 36.6551C68.1151 37.7194 65.4551 38.2107 62.7872 38.0915C62.4618 38.0763 62.1224 38.0509 61.7785 38.0159C58.1433 37.6313 54.7145 36.1362 51.9578 33.7337C52.5017 37.6024 54.3243 41.1774 57.1349 43.8886C59.9455 46.5998 63.5823 48.291 67.4652 48.6926Z" fill="#371A45"/>
</g>
<g opacity="0.35">
<path d="M82.1212 43.1883C77.9072 47.3588 77.2151 46.9132 76.0558 47.1514C75.1008 47.3485 71.8257 47.7367 69.2426 47.197C66.3495 46.5926 61.9062 44.0647 60.1989 40.1149C59.9328 39.4991 59.7018 38.8687 59.5068 38.2267L61.1584 37.9061C61.4086 38.5467 61.7103 39.1658 62.0605 39.7575C65.2725 45.1897 70.6899 45.975 75.0464 45.3985C78.9739 44.878 82.0257 43.2398 82.1212 43.1883Z" fill="#293856"/>
<path d="M72.2798 47.5549C71.2814 47.5549 70.2129 47.4833 69.226 47.2771C66.0179 46.607 61.7376 43.8805 60.124 40.1474C59.8568 39.5287 59.6247 38.8953 59.4287 38.2504L59.4023 38.1636L61.2099 37.8127L61.2348 37.8764C61.4836 38.5127 61.7834 39.1278 62.1311 39.7159C65.4439 45.3186 70.9781 45.8541 75.0359 45.3173C78.9191 44.8027 81.9552 43.1848 82.0826 43.1162L82.5832 42.8465L82.1789 43.2466C78.4948 46.8925 77.4836 47.0298 76.5055 47.1625C76.3592 47.1824 76.2209 47.2012 76.0725 47.2317C75.5928 47.3307 74.0466 47.5549 72.2798 47.5549ZM59.6118 38.2898C59.8004 38.8988 60.0216 39.4972 60.2742 40.0825C61.8659 43.7648 66.0917 46.4551 69.2596 47.1168C71.9652 47.6819 75.2956 47.2247 76.0394 47.0712C76.1934 47.0395 76.3409 47.0195 76.4835 47.0002C77.4018 46.8755 78.3504 46.7466 81.6925 43.4945C80.678 43.9788 78.1301 45.0725 75.0574 45.4797C70.9495 46.0234 65.3485 45.4789 61.9902 39.7992C61.6496 39.2232 61.3544 38.6215 61.1073 37.9995L59.6118 38.2898Z" fill="#371A45"/>
</g>
<path d="M75.6063 50.407C75.7672 51.1421 75.8685 51.8829 75.9542 52.624C75.9966 52.9947 76.0328 53.3656 76.0657 53.7372C76.098 54.1098 76.1272 54.4781 76.15 54.8573C76.1546 54.9341 76.1432 55.011 76.1166 55.0832C76.0901 55.1554 76.0489 55.2213 75.9957 55.2768C75.9424 55.3323 75.8783 55.3762 75.8074 55.4058C75.7364 55.4353 75.6601 55.4499 75.5832 55.4485C75.5064 55.4472 75.4306 55.4299 75.3607 55.3979C75.2908 55.3658 75.2283 55.3197 75.1771 55.2623C75.1259 55.205 75.087 55.1376 75.063 55.0645C75.039 54.9914 75.0304 54.9142 75.0376 54.8376L75.0382 54.833C75.0743 54.4761 75.1046 54.1081 75.1315 53.7445C75.158 53.3799 75.1812 53.0146 75.1983 52.6495C75.2318 51.9195 75.2495 51.1881 75.2098 50.464L75.2097 50.4609C75.2069 50.4105 75.2232 50.3609 75.2554 50.322C75.2875 50.2831 75.3331 50.2577 75.3831 50.2509C75.4331 50.2441 75.4838 50.2563 75.5251 50.2853C75.5665 50.3142 75.5955 50.3576 75.6063 50.407Z" fill="#371A45"/>
<path d="M76.7585 56.1227C76.6236 56.1226 76.4934 56.0735 76.3921 55.9845C76.2907 55.8955 76.2252 55.7726 76.2076 55.6388C76.19 55.505 76.2215 55.3694 76.2964 55.2572C76.3712 55.1449 76.4843 55.0637 76.6145 55.0287C76.6434 55.0209 79.5915 54.2036 83.2567 51.6359C86.5553 49.325 87.7269 46.5442 86.9537 45.1908C86.3056 44.0559 84.3514 44.0591 81.8546 45.1991C76.2293 47.7673 72.8527 47.498 72.7118 47.4852C72.565 47.472 72.4295 47.401 72.335 47.2879C72.2405 47.1747 72.1947 47.0287 72.2077 46.8818C72.2208 46.7349 72.2915 46.5991 72.4045 46.5044C72.5174 46.4097 72.6633 46.3637 72.8101 46.3766C72.8548 46.3807 76.0777 46.6132 81.393 44.1865C84.5061 42.765 86.9458 42.9343 87.9192 44.6383C88.9511 46.4448 87.9 49.7417 83.8945 52.5477C80.0567 55.2363 77.0301 56.0695 76.9032 56.1036C76.856 56.1163 76.8074 56.1227 76.7585 56.1227Z" fill="#371A45"/>
<path d="M50.4342 44.2987L50.222 44.3634C49.9198 44.4555 49.5935 44.4238 49.3147 44.2751C49.036 44.1264 48.8277 43.873 48.7356 43.5706L46.3408 35.706C46.4414 36.0357 46.6686 36.3121 46.9724 36.4745C47.2763 36.6369 47.6322 36.6721 47.9619 36.5724C48.2917 36.4727 48.5685 36.2462 48.7317 35.9425C48.8949 35.6389 48.9311 35.2829 48.8324 34.9525L51.2264 42.8108C51.272 42.9605 51.2877 43.1178 51.2726 43.2736C51.2575 43.4295 51.2118 43.5808 51.1383 43.719C51.0647 43.8571 50.9647 43.9795 50.8439 44.0789C50.7231 44.1784 50.5839 44.2531 50.4342 44.2987Z" fill="#FF9D00"/>
<path d="M69.2393 49.44C68.9709 49.44 68.7027 49.434 68.4349 49.422C68.0996 49.4063 67.7514 49.3802 67.3987 49.3444L67.3975 49.3443C64.1962 49.0122 61.1408 47.8336 58.545 45.9295C55.9491 44.0253 53.9062 41.4642 52.6259 38.5089C50.7061 34.0666 50.6298 29.1423 52.411 24.6429C54.1921 20.1438 57.6173 16.608 62.0558 14.6868C63.7756 13.9398 65.6012 13.4656 67.4668 13.2813C67.6637 13.2608 67.8739 13.2437 68.106 13.2293C68.6748 13.193 69.2508 13.1839 69.8172 13.2025C72.4263 13.2899 74.986 13.9384 77.3224 15.104C77.6943 15.2891 78.0605 15.4874 78.4105 15.6928C81.7303 17.6337 84.3406 20.589 85.8581 24.1245C88.065 29.2311 87.8224 34.9761 85.1925 39.8866C83.4226 43.1968 80.6646 45.8716 77.3032 47.538C77.0373 47.6719 76.7507 47.8056 76.4305 47.9452C74.161 48.9311 71.7133 49.4399 69.2393 49.44ZM67.5141 48.2037C67.8464 48.2374 68.1738 48.262 68.4873 48.2766C71.0556 48.3911 73.6162 47.918 75.9744 46.8934C76.2737 46.7629 76.5416 46.638 76.7918 46.512C79.9411 44.9516 82.5249 42.446 84.1828 39.345C86.6465 34.7448 86.8739 29.3631 84.8065 24.5796C83.3852 21.268 80.9404 18.4999 77.831 16.6818C77.5035 16.4896 77.1606 16.304 76.8116 16.1302C74.6227 15.0382 72.2246 14.4306 69.7802 14.3485C69.2496 14.3313 68.7109 14.3394 68.1781 14.3736C67.9786 14.386 67.7796 14.4015 67.5817 14.4221C65.8332 14.5947 64.1223 15.0391 62.5105 15.7392C58.353 17.5387 55.1444 20.8509 53.4761 25.0652C51.8076 29.2798 51.8791 33.8926 53.6774 38.0537C54.8767 40.822 56.7904 43.221 59.2219 45.0047C61.6535 46.7884 64.5154 47.8925 67.5141 48.2037Z" fill="#371A45"/>
<path d="M67.4265 46.4548C70.5321 46.8046 73.0526 47.0885 76.1582 47.4384C76.1728 47.4321 76.1873 47.4258 76.2019 47.4196C76.4895 47.2943 76.7727 47.1634 77.0493 47.0242C80.3038 45.4106 82.9741 42.8207 84.6878 39.6158C87.1293 35.0571 87.5432 29.4673 85.3325 24.352C84.1518 21.6086 82.2877 19.2141 79.9184 17.3975C79.1 17.2404 78.2705 17.148 77.4375 17.1212C76.9296 17.1048 76.4194 17.1127 75.9069 17.1451C75.7165 17.1573 75.525 17.1719 75.3353 17.1927C73.6664 17.3576 72.0335 17.7818 70.4951 18.45C62.2864 22.0023 58.5101 31.5413 62.0602 39.7577C63.2119 42.4341 65.0663 44.7484 67.4265 46.4548Z" fill="#293856"/>
<path d="M76.1712 47.5222L67.3965 46.5337L67.3791 46.5212C65.0089 44.804 63.1456 42.4786 61.9857 39.7902C60.26 35.7963 60.1914 31.3693 61.7927 27.3247C63.3938 23.2799 66.473 20.1015 70.4632 18.3748C72.0093 17.7033 73.6506 17.277 75.3278 17.1112C75.5179 17.0903 75.7106 17.0756 75.9023 17.0632C76.4192 17.031 76.9366 17.023 77.4407 17.0393C78.278 17.0664 79.1117 17.1593 79.9344 17.317L79.9688 17.3324C82.3463 19.1604 84.2185 21.5652 85.4081 24.3195C87.5552 29.2875 87.3192 34.877 84.7605 39.6544C83.0389 42.8745 80.3561 45.4765 77.0862 47.0975C76.8256 47.2287 76.547 47.3587 76.2351 47.4946L76.1712 47.5222ZM67.4576 46.3757L76.1463 47.3545L76.1701 47.3443C76.4789 47.2098 76.7547 47.081 77.0131 46.9509C80.2527 45.345 82.9106 42.7672 84.6162 39.577C87.1512 34.8439 87.3851 29.3064 85.2579 24.3845C84.0819 21.6619 82.2328 19.2838 79.8846 17.4742C79.0765 17.3203 78.2576 17.2296 77.4354 17.203C76.9368 17.1868 76.4243 17.1949 75.9125 17.2268C75.7236 17.239 75.5333 17.2535 75.3447 17.274C73.684 17.4382 72.059 17.8603 70.5281 18.5251C66.5782 20.2345 63.5299 23.3809 61.9448 27.385C60.3598 31.3889 60.4276 35.7715 62.1359 39.7252C63.2813 42.3799 65.1195 44.6771 67.4576 46.3757Z" fill="#371A45"/>
<g opacity="0.7">
<path d="M74.9762 19.0973C74.8399 18.9686 75.3448 19.0329 75.5293 19.0067C75.6864 18.9826 75.8451 18.9635 76.003 18.9465C76.4275 18.9015 76.8515 18.8764 77.275 18.8713C77.9686 18.8635 78.6617 18.9104 79.348 19.0114C81.3838 20.4364 83.0203 22.3603 84.1011 24.599C86.1241 28.7729 85.8986 32.316 84.1916 36.0232C84.1916 36.0232 84.1666 33.609 82.3473 29.1828C81.3296 26.7071 79.8949 23.7425 74.9762 19.0973Z" fill="white"/>
</g>
<g opacity="0.35">
<path d="M67.9565 46.7319C67.957 46.7329 67.957 46.7329 67.9581 46.7325C69.4954 46.9093 71.0494 46.8819 72.5796 46.6509C72.8897 46.6036 73.197 46.5498 73.5 46.4862C76.6585 45.8376 79.5773 44.3302 81.9357 42.1296C84.294 39.929 86.0006 37.1204 86.868 34.0123C83.0581 38.327 77.7116 40.5934 72.3003 40.6309C68.9509 40.6583 65.6509 39.8227 62.7174 38.2045C62.2074 37.9217 61.7039 37.6154 61.2134 37.2828C62.2143 41.1596 64.6171 44.5267 67.9565 46.7319Z" fill="#111A28"/>
</g>
<path d="M75.3303 48.1697C74.847 48.1697 74.4349 48.0294 74.0533 47.8996C73.5932 47.7431 73.1959 47.6082 72.6606 47.6856L71.8293 47.8064L71.9797 47.234L71.8109 47.4052L71.4812 47.4016L71.4018 47.3749C67.5708 46.0813 63.6094 44.7437 61.5498 39.9787C59.7738 35.8684 59.7033 31.3124 61.3511 27.1498C62.9989 22.9873 66.1679 19.7163 70.2743 17.9392C71.8656 17.2482 73.5548 16.8095 75.281 16.6389C75.4487 16.6205 75.6325 16.6051 75.8711 16.5897C76.4044 16.5566 76.9369 16.5483 77.4553 16.565C78.3174 16.5929 79.176 16.6886 80.0232 16.851L80.1522 16.8758L80.2565 16.9557C82.6982 18.8328 84.6209 21.3025 85.8427 24.131C88.0477 29.233 87.8054 34.9728 85.1778 39.8787C83.4096 43.1857 80.6541 45.8581 77.2959 47.5229C77.03 47.6567 76.7438 47.7903 76.4238 47.9297C76.0799 48.0849 75.7075 48.1666 75.3303 48.1697ZM73.2347 46.5609C73.6856 46.5989 74.064 46.7276 74.4113 46.8458C74.9688 47.0356 75.3717 47.1727 75.9812 46.9087C76.2808 46.7781 76.5489 46.6531 76.7994 46.527C77.3458 46.2558 77.8773 45.9555 78.3917 45.6275C80.8311 44.067 82.83 41.9067 84.1977 39.3529C86.6639 34.7482 86.8914 29.3611 84.822 24.5729C83.6932 21.9596 81.9266 19.6719 79.6844 17.9198C78.9364 17.7831 78.1794 17.7021 77.4194 17.6775C76.9358 17.6619 76.4384 17.6696 75.9413 17.7005C75.7604 17.7121 75.5772 17.7261 75.3957 17.7459C73.7821 17.905 72.2032 18.3149 70.7157 18.9608C66.8819 20.6198 63.9234 23.6737 62.385 27.5598C60.8466 31.446 60.9125 35.6995 62.5705 39.5369C64.2622 43.4507 67.1878 44.763 71.4394 46.2124C72.0164 45.6972 72.4675 45.5597 72.8459 45.7753C73.15 45.9488 73.2354 46.2567 73.2347 46.5609Z" fill="#371A45"/>
<path d="M52.7831 52.9982C52.7317 53.1938 52.6832 53.3908 52.6392 53.582C52.6891 53.185 52.7258 52.96 52.7258 52.96L52.7831 52.9982Z" fill="white"/>
<path d="M52.7191 53.6004L52.5581 53.5718C52.6083 53.1729 52.6452 52.9467 52.6452 52.9467L52.6657 52.8214L52.8773 52.9624L52.8624 53.0191C52.8112 53.2138 52.7629 53.4099 52.7191 53.6004Z" fill="#371A45"/>
<path d="M74.8491 61.5761L66.7608 62.296C66.5918 62.3111 66.4443 62.2014 66.4443 62.0607V52.6932C66.4443 52.5525 66.5918 52.4429 66.7608 52.4579L74.8491 53.1778C75.9107 53.2723 76.7155 54.014 76.7155 54.8977V59.8562C76.7155 60.74 75.9107 61.4816 74.8491 61.5761Z" fill="white"/>
<path d="M66.5756 52.4939L66.4434 53.7571V52.6939C66.4447 52.6516 66.4578 52.6105 66.4812 52.5751C66.5045 52.5398 66.5372 52.5117 66.5756 52.4939Z" fill="white"/>
<path d="M66.525 53.7656L66.3618 53.757V52.6938C66.3629 52.6365 66.38 52.5805 66.4112 52.5324C66.4423 52.4842 66.4863 52.4456 66.5382 52.4211L66.6731 52.3511L66.525 53.7656Z" fill="#371A45"/>
<g opacity="0.35">
<path d="M76.7154 55.0617V60.0204C76.7154 60.9042 75.9102 61.6453 74.8479 61.7394L66.7607 62.46C66.5918 62.4747 66.4434 62.3644 66.4434 62.2247V58.5807L74.3939 58.7042C75.4606 58.7204 76.3378 58.066 76.4289 57.1881L76.6831 54.7588C76.7049 54.8583 76.7158 54.9598 76.7154 55.0617Z" fill="#293856"/>
<path d="M66.7302 62.5433C66.6313 62.5444 66.5356 62.5085 66.4619 62.4426C66.4309 62.4154 66.4059 62.3819 66.3887 62.3443C66.3715 62.3068 66.3623 62.266 66.3618 62.2247V58.4976L74.3954 58.6224C74.408 58.6226 74.4207 58.6227 74.4332 58.6227C75.4421 58.6227 76.2619 58.0075 76.3478 57.1797L76.6541 54.2524L76.7633 54.7409C76.7863 54.8463 76.7978 54.9538 76.7975 55.0617V60.0204C76.7975 60.9488 75.9625 61.7229 74.8554 61.821L66.7682 62.5416C66.7555 62.5427 66.7428 62.5433 66.7302 62.5433ZM66.5254 58.664V62.2247C66.526 62.2433 66.5305 62.2615 66.5386 62.2783C66.5467 62.295 66.5583 62.3099 66.5724 62.3219C66.5973 62.343 66.6262 62.3589 66.6574 62.3686C66.6885 62.3783 66.7213 62.3817 66.7538 62.3784L74.8409 61.6579C75.863 61.5673 76.6339 60.8633 76.6339 60.0204V56.0186L76.5106 57.1967C76.4148 58.1196 75.5112 58.8011 74.3929 58.7861L66.5254 58.664Z" fill="#371A45"/>
</g>
<path d="M66.4439 53.7571V58.4172L66.2764 58.4143C66.106 58.4113 65.9708 58.2878 65.9855 58.1481L66.4439 53.7571Z" fill="white"/>
<path d="M66.5253 58.5005L66.2746 58.4961C66.2192 58.496 66.1644 58.4844 66.1137 58.4621C66.063 58.4398 66.0174 58.4072 65.9799 58.3664C65.952 58.336 65.9308 58.3001 65.9177 58.261C65.9045 58.2219 65.8998 58.1805 65.9037 58.1395L66.3621 53.7485L66.5253 53.757V58.5005ZM66.3617 55.3288L66.0665 58.1565C66.065 58.175 66.0675 58.1936 66.0737 58.211C66.0799 58.2285 66.0897 58.2444 66.1025 58.2578C66.1251 58.2815 66.1522 58.3003 66.1823 58.3131C66.2124 58.3259 66.2448 58.3325 66.2775 58.3323L66.3617 58.3338V55.3288Z" fill="#371A45"/>
<path d="M66.7291 62.854C66.5123 62.8551 66.3029 62.7752 66.142 62.6298C66.0626 62.5577 65.999 62.4699 65.9552 62.372C65.9114 62.274 65.8884 62.168 65.8877 62.0607V52.6933C65.8884 52.586 65.9114 52.48 65.9552 52.382C65.999 52.2841 66.0626 52.1963 66.142 52.1242C66.2319 52.0431 66.3377 51.9816 66.4526 51.9437C66.5675 51.9057 66.6891 51.8921 66.8096 51.9037L74.8977 52.6235C76.2507 52.744 77.271 53.7217 77.271 54.8977V59.8563C77.271 61.0323 76.2507 62.01 74.8978 62.1305H74.8977L66.8095 62.8503C66.7826 62.8527 66.7558 62.854 66.7291 62.854ZM66.9998 53.038V61.716L74.7992 61.0218C75.5616 60.954 76.1589 60.442 76.1589 59.8563V54.8977C76.1589 54.312 75.5616 53.8 74.7991 53.7322L66.9998 53.038Z" fill="#371A45"/>
<path d="M64.56 52.4298H66.2693C66.3157 52.4298 66.3602 52.4482 66.393 52.4811C66.4258 52.5139 66.4442 52.5584 66.4442 52.6048V62.1492C66.4442 62.1956 66.4258 62.2401 66.393 62.273C66.3602 62.3058 66.3157 62.3242 66.2693 62.3242H64.56C64.3479 62.3242 64.1445 62.2399 63.9945 62.0898C63.8445 61.9397 63.7603 61.7361 63.7603 61.5239V53.2302C63.7603 53.0179 63.8445 52.8143 63.9945 52.6642C64.1445 52.5141 64.3479 52.4298 64.56 52.4298Z" fill="white"/>
<path d="M66.2691 62.406H64.5597C64.326 62.4058 64.102 62.3128 63.9367 62.1474C63.7714 61.982 63.6785 61.7577 63.6782 61.5238V53.2301C63.6785 52.9962 63.7714 52.772 63.9367 52.6066C64.102 52.4412 64.326 52.3482 64.5597 52.3479H66.2691C66.3372 52.348 66.4024 52.3751 66.4505 52.4232C66.4986 52.4714 66.5257 52.5367 66.5257 52.6048V62.1491C66.5257 62.2172 66.4986 62.2825 66.4505 62.3307C66.4024 62.3789 66.3372 62.406 66.2691 62.406ZM64.5597 52.5116C64.3694 52.5118 64.1869 52.5876 64.0523 52.7223C63.9178 52.857 63.842 53.0396 63.8418 53.2301V61.5238C63.842 61.7143 63.9178 61.8969 64.0523 62.0316C64.1869 62.1663 64.3694 62.2421 64.5597 62.2423H66.2691C66.2938 62.2423 66.3174 62.2324 66.3349 62.215C66.3523 62.1975 66.3621 62.1738 66.3621 62.1491V52.6048C66.3621 52.5801 66.3523 52.5565 66.3349 52.539C66.3174 52.5215 66.2938 52.5117 66.2691 52.5116H64.5597Z" fill="#371A45"/>
<g opacity="0.35">
<path d="M66.4452 58.4495V62.1391C66.4453 62.1634 66.4406 62.1876 66.4313 62.2101C66.422 62.2326 66.4084 62.2531 66.3912 62.2703C66.374 62.2875 66.3535 62.3012 66.331 62.3104C66.3085 62.3197 66.2844 62.3244 66.2601 62.3243H64.6071C64.383 62.3243 64.1681 62.2352 64.0097 62.0766C63.8513 61.9181 63.7622 61.703 63.7622 61.4788V57.7877C63.7621 57.8989 63.7838 58.009 63.8262 58.1117C63.8686 58.2144 63.9308 58.3078 64.0093 58.3864C64.0877 58.4651 64.1809 58.5275 64.2835 58.5701C64.3861 58.6127 64.496 58.6347 64.6071 58.6348H66.2601C66.3091 58.6347 66.3562 58.6152 66.3909 58.5804C66.4256 58.5457 66.4451 58.4986 66.4452 58.4495Z" fill="#293856"/>
<path d="M66.2593 62.4062H64.6063C64.3606 62.4059 64.1251 62.3081 63.9514 62.1343C63.7777 61.9604 63.68 61.7247 63.6797 61.4788V57.7877H63.8433C63.8433 57.9904 63.9236 58.1848 64.0667 58.3282C64.2097 58.4717 64.4038 58.5525 64.6063 58.5529H66.2593C66.2867 58.5529 66.313 58.542 66.3323 58.5226C66.3517 58.5032 66.3626 58.4769 66.3627 58.4495H66.5262V62.1391C66.5262 62.2099 66.498 62.2778 66.448 62.3279C66.398 62.378 66.3301 62.4061 66.2593 62.4062ZM63.8433 58.3143V61.4788C63.8435 61.6813 63.924 61.8754 64.067 62.0186C64.2101 62.1617 64.404 62.2423 64.6063 62.2425H66.2593C66.2729 62.2426 66.2864 62.2401 66.299 62.2349C66.3116 62.2298 66.3231 62.2222 66.3327 62.2125C66.3423 62.2029 66.3499 62.1914 66.3551 62.1788C66.3602 62.1662 66.3628 62.1527 66.3627 62.1391V58.6959C66.33 58.7096 66.2948 58.7167 66.2593 58.7166H64.6063C64.4561 58.7166 64.3081 58.6799 64.1751 58.6098C64.0422 58.5397 63.9283 58.4383 63.8433 58.3143Z" fill="#371A45"/>
</g>
<path d="M66.2697 62.8807H64.5604C64.2009 62.8803 63.8563 62.7372 63.6021 62.4829C63.348 62.2285 63.205 61.8836 63.2046 61.5239V53.2302C63.205 52.8704 63.348 52.5256 63.6021 52.2712C63.8563 52.0168 64.2009 51.8737 64.5604 51.8733H66.2697C66.4635 51.8735 66.6493 51.9507 66.7863 52.0878C66.9234 52.225 67.0004 52.4109 67.0006 52.6049V62.1492C67.0004 62.3431 66.9234 62.5291 66.7863 62.6662C66.6493 62.8034 66.4635 62.8805 66.2697 62.8807ZM64.5604 52.9863C64.4958 52.9864 64.4338 53.0121 64.3881 53.0578C64.3425 53.1035 64.3168 53.1655 64.3167 53.2302V61.5239C64.3168 61.5885 64.3425 61.6505 64.3881 61.6962C64.4338 61.7419 64.4958 61.7676 64.5604 61.7677H65.8885V52.9863H64.5604Z" fill="#371A45"/>
<path d="M54.4802 66.4993L53.4179 66.4714C49.655 66.3684 46.8192 63.0082 47.3496 59.2775L48.7249 48.8705L49.1128 50.0572L49.1142 50.0175C49.1142 50.0175 52.7699 52.9174 52.7111 53.4483C52.6627 53.8865 52.2939 57.9422 52.4937 60.4157L54.4802 66.4993Z" fill="white"/>
<path d="M54.5946 66.5843L53.4163 66.5533C52.5169 66.5287 51.6328 66.3142 50.8221 65.9237C50.0113 65.5333 49.2922 64.9758 48.7117 64.2877C48.1313 63.5996 47.7028 62.7966 47.4542 61.9312C47.2055 61.0657 47.1425 60.1575 47.2691 59.266L48.6915 48.5031L49.1657 49.9532C49.782 50.4423 52.8538 52.9091 52.7931 53.4573C52.7886 53.4979 52.3637 57.7833 52.5759 60.4091L54.5946 66.5843ZM48.7595 49.238L47.4313 59.2883C47.3078 60.157 47.3691 61.042 47.6113 61.8853C47.8535 62.7286 48.2711 63.5112 48.8366 64.1817C49.4021 64.8522 50.1028 65.3955 50.8928 65.776C51.6828 66.1565 52.5443 66.3656 53.4207 66.3896L54.367 66.4144L52.4165 60.4412C52.1994 57.7823 52.6259 53.48 52.6305 53.4392C52.6646 53.1313 50.9065 51.5523 49.1905 50.1822L49.1776 50.5173L48.7595 49.238Z" fill="#371A45"/>
<g opacity="0.35">
<path d="M54.4802 66.4993L53.4179 66.4714C49.655 66.3684 46.8192 63.0082 47.3496 59.2775L47.354 59.2392L48.7249 48.8705L49.1128 50.0572L49.1142 50.0175C49.1142 50.0175 52.7699 52.9174 52.7111 53.4483C52.6627 53.8865 52.2939 57.9422 52.4937 60.4157L53.0021 61.9715L54.4802 66.4993Z" fill="#371A45"/>
</g>
<path d="M53.0026 61.9715C50.5547 61.6656 48.5182 60.6642 47.3545 59.2392L48.7254 48.8705L49.1133 50.0572L49.1148 50.0175C49.1148 50.0175 52.7704 52.9174 52.7117 53.4483C52.6632 53.8865 52.2944 57.9422 52.4942 60.4157L53.0026 61.9715Z" fill="white"/>
<path d="M54.4803 67.0565C54.4752 67.0565 54.4701 67.0564 54.4649 67.0563L53.4028 67.0275C52.4366 67.0012 51.4868 66.7708 50.6158 66.3514C49.7448 65.9321 48.9721 65.3332 48.3486 64.594C47.725 63.8549 47.2646 62.9922 46.9975 62.0625C46.7304 61.1327 46.6627 60.157 46.7988 59.1993L48.1739 48.7975C48.1834 48.725 48.2071 48.6551 48.2437 48.5918C48.2802 48.5285 48.3288 48.473 48.3868 48.4285C48.4448 48.384 48.511 48.3514 48.5815 48.3325C48.6521 48.3136 48.7257 48.3088 48.7982 48.3184C48.8706 48.328 48.9404 48.3517 49.0037 48.3884C49.0669 48.425 49.1223 48.4737 49.1667 48.5317C49.2112 48.5898 49.2437 48.656 49.2625 48.7267C49.2814 48.7974 49.2861 48.871 49.2765 48.9435L47.9006 59.3506C47.7858 60.1534 47.8419 60.9714 48.0652 61.751C48.2886 62.5305 48.6742 63.254 49.1966 63.8739C49.7191 64.4938 50.3666 64.9961 51.0967 65.3478C51.8269 65.6996 52.6231 65.8928 53.4331 65.9148L54.4952 65.9437C54.6413 65.9477 54.7799 66.0091 54.8811 66.1146C54.9823 66.2201 55.038 66.3612 55.036 66.5074C55.0341 66.6537 54.9747 66.7933 54.8707 66.896C54.7667 66.9988 54.6265 67.0564 54.4803 67.0565ZM83.3857 52.7148C83.2762 52.7149 83.1698 52.6782 83.0836 52.6105C80.7346 50.7718 79.9822 45.4972 79.9513 45.2736C79.9336 45.1445 79.9678 45.0137 80.0463 44.9098C80.1249 44.8059 80.2415 44.7376 80.3705 44.7197C80.4994 44.7019 80.6302 44.736 80.734 44.8146C80.8378 44.8932 80.9062 45.0099 80.9241 45.1389C80.9311 45.1897 81.6525 50.2425 83.6886 51.8363C83.7692 51.8994 83.828 51.986 83.857 52.0841C83.886 52.1823 83.8836 52.287 83.8503 52.3837C83.8169 52.4804 83.7542 52.5643 83.671 52.6237C83.5877 52.6831 83.488 52.7149 83.3857 52.7148Z" fill="#371A45"/>
<path d="M64.7734 56.8455L64.9587 58.6363C64.9587 58.6363 62.3813 58.8892 62.3476 58.8049C62.314 58.7206 62.0781 56.984 62.1287 56.984C62.1792 56.984 64.7734 56.8455 64.7734 56.8455Z" fill="white"/>
<path d="M62.5714 58.9002C62.2974 58.9002 62.2843 58.8674 62.2715 58.8351C62.2659 58.8214 61.979 57.057 62.0583 56.9397L62.0827 56.9037L62.1285 56.9022C62.1837 56.9012 63.8798 56.8111 64.7689 56.7636L64.8467 56.7594L65.0484 58.7097L64.9665 58.7177C63.5525 58.8564 62.8879 58.9002 62.5714 58.9002ZM62.4154 58.7386C62.6678 58.759 63.9945 58.6474 64.8686 58.5626L64.6998 56.9313C64.2657 56.9545 62.5816 57.0443 62.2033 57.0626C62.2143 57.3469 62.3668 58.4953 62.4154 58.7386Z" fill="#371A45"/>
<path d="M51.7463 56.7649H53.2625V58.8836C53.2625 58.8836 51.707 58.7319 51.707 58.7094C51.707 58.6869 51.7463 56.7649 51.7463 56.7649Z" fill="white"/>
<path d="M53.3437 58.9737L53.254 58.965C51.6246 58.8061 51.6246 58.8061 51.6246 58.7093C51.6246 58.6866 51.6599 56.96 51.664 56.7631L51.6656 56.683H53.3437V58.9737ZM51.7895 58.6431C51.9952 58.673 52.6893 58.7448 53.1801 58.7931V56.8467H51.8259C51.8194 57.1666 51.7953 58.3481 51.7895 58.6431ZM47.944 48.3408C47.8268 48.3407 47.7134 48.2987 47.6244 48.2223C47.5354 48.1459 47.4767 48.0401 47.4589 47.9241C47.441 47.8082 47.4652 47.6896 47.5271 47.5899C47.589 47.4903 47.6844 47.416 47.7962 47.3807C47.8399 47.3668 52.1795 45.9406 53.672 41.4181C53.6922 41.3568 53.7243 41.3001 53.7664 41.2512C53.8085 41.2023 53.8598 41.1621 53.9174 41.1331C53.975 41.1041 54.0378 41.0867 54.1021 41.0819C54.1664 41.0771 54.231 41.0851 54.2923 41.1054C54.3535 41.1256 54.4102 41.1577 54.459 41.1999C54.5078 41.242 54.5479 41.2934 54.5769 41.3511C54.6059 41.4087 54.6232 41.4716 54.6279 41.5359C54.6326 41.6003 54.6247 41.665 54.6044 41.7263C52.9501 46.739 48.2889 48.256 48.0912 48.3181C48.0436 48.3331 47.994 48.3407 47.944 48.3408Z" fill="#371A45"/>
<path d="M50.1143 45.2988C49.7949 45.2986 49.484 45.1958 49.2272 45.0056C48.9705 44.8154 48.7815 44.5478 48.688 44.2421L38.3919 10.4375C38.2767 10.0591 38.3163 9.65044 38.5022 9.30135C38.688 8.95226 39.0048 8.69135 39.3828 8.576L39.4828 8.5455C39.8608 8.4302 40.2691 8.46989 40.6179 8.65585C40.9667 8.84181 41.2274 9.15881 41.3427 9.53713L51.6389 43.3419C51.7537 43.7202 51.7138 44.1287 51.528 44.4776C51.3422 44.8266 51.0258 45.0876 50.648 45.2033L50.548 45.2339C50.4074 45.2769 50.2612 45.2987 50.1143 45.2988ZM39.9171 9.62728C39.8832 9.6273 39.8494 9.63234 39.8169 9.64224L39.7168 9.67283C39.6735 9.68602 39.6333 9.70762 39.5984 9.73638C39.5634 9.76515 39.5345 9.80051 39.5132 9.84047C39.492 9.88042 39.4788 9.92418 39.4744 9.96923C39.47 10.0143 39.4745 10.0598 39.4877 10.1031L49.784 43.9078C49.7972 43.9511 49.8187 43.9914 49.8475 44.0264C49.8762 44.0613 49.9116 44.0903 49.9515 44.1116C49.9914 44.1329 50.0352 44.1461 50.0802 44.1505C50.1252 44.1548 50.1707 44.1503 50.214 44.1371L50.3139 44.1066C50.4013 44.0798 50.4745 44.0195 50.5174 43.9388C50.5604 43.8581 50.5696 43.7636 50.543 43.6762L40.2469 9.87152C40.2252 9.80085 40.1816 9.739 40.1222 9.69503C40.0628 9.65107 39.991 9.62732 39.9171 9.62728Z" fill="#371A45"/>
<path d="M45.5264 38.5532C45.5264 38.5532 46.3393 36.4964 48.2385 37.2213C50.1378 37.9463 50.4285 39.059 50.4285 39.6491C50.4285 40.2392 49.2549 44.6789 48.3621 44.5778C47.4692 44.4766 45.5264 38.5532 45.5264 38.5532Z" fill="white"/>
<path d="M48.6243 36.5736C49.4198 36.8859 50.0812 37.4666 50.4941 38.2153C50.8925 38.9641 50.9785 39.8306 50.8446 40.6032C50.8276 40.7001 50.8208 40.8003 50.7947 40.8939L50.7161 41.1742L50.6367 41.4534C50.6115 41.5468 50.5675 41.6315 50.5337 41.7207C50.4596 41.8959 50.3924 42.0747 50.312 42.2452L50.0457 42.7408C49.9597 42.9058 49.8629 43.0651 49.7561 43.2175L49.4502 43.6807C49.2311 43.9766 49.0009 44.2626 48.7773 44.5526C48.7348 44.6078 48.6725 44.6443 48.6037 44.6545C48.5348 44.6647 48.4646 44.6478 48.4079 44.6073C48.3513 44.5669 48.3124 44.506 48.2997 44.4375C48.2869 44.369 48.3011 44.2982 48.3394 44.24L48.352 44.221C48.547 43.9265 48.7486 43.6368 48.9373 43.3412L49.1944 42.8843C49.2843 42.7358 49.364 42.5812 49.4328 42.4218L49.6453 41.9508C49.707 41.7915 49.7542 41.6285 49.8097 41.4685C49.8389 41.3894 49.8638 41.3088 49.8844 41.2271L49.9347 40.9827L49.9858 40.7395C49.9978 40.6589 50.0055 40.5778 50.009 40.4964C50.0734 39.8495 49.9488 39.2204 49.6337 38.7135C49.3072 38.2133 48.819 37.8405 48.2508 37.6575L48.2425 37.6549C48.1706 37.6325 48.1038 37.5961 48.046 37.5479C47.9882 37.4996 47.9404 37.4404 47.9054 37.3737C47.8704 37.3069 47.8489 37.2339 47.8421 37.1589C47.8353 37.0838 47.8434 37.0081 47.8658 36.9362C47.8882 36.8642 47.9246 36.7974 47.9729 36.7395C48.0211 36.6816 48.0803 36.6338 48.147 36.5989C48.2137 36.5639 48.2866 36.5424 48.3616 36.5356C48.4366 36.5288 48.5122 36.5369 48.5841 36.5594C48.5974 36.5635 48.6116 36.5686 48.6243 36.5736ZM25.8614 33.8581L19.9355 20.0481L20.3672 19.802C24.2863 17.5673 25.4667 16.042 26.7163 14.4271C27.1428 13.8759 27.5839 13.306 28.1389 12.7C33.5992 6.73844 39.565 10.9531 39.6245 10.9962L38.9727 11.8979C38.7611 11.7457 33.7386 8.23322 28.9587 13.4521C28.4349 14.024 28.0081 14.5754 27.5956 15.1086C26.3792 16.6805 25.1229 18.3039 21.3483 20.52L26.5439 32.6279C27.4987 32.362 30.108 31.3055 32.8529 27.3267C36.4436 22.122 43.4067 24.0961 43.4766 24.1168L43.1631 25.1846C42.9094 25.1107 36.8982 23.4217 33.7681 27.9591C30.0044 33.4145 26.4151 33.8067 26.2642 33.8207L25.8614 33.8581Z" fill="#261130"/>
<g opacity="0.07">
<path d="M43.0804 24.379C42.9136 24.2315 42.0002 24.18 40.7894 24.2844H40.7867C38.9572 24.4402 36.4522 24.9494 34.8202 26.0151C34.8178 26.0174 34.815 26.0193 34.8119 26.0207C34.1974 26.4241 33.7081 26.9055 33.4273 27.4774C33.4259 27.4787 33.4259 27.4815 33.4245 27.4829C33.0742 28.1939 32.5126 28.8812 31.8565 29.5184C29.7004 31.615 26.5142 33.176 26.3863 33.2386C26.385 33.2394 26.3836 33.2399 26.3821 33.24L25.2338 30.9848L24.9697 30.4672C24.9697 30.4672 24.9822 30.4658 25.0087 30.4617C25.4591 30.3907 29.7573 29.6032 32.4625 24.9007C32.7828 24.4688 32.9718 23.9536 33.0069 23.417C33.0419 22.8803 32.9216 22.3448 32.6602 21.8749L28.0697 13.6207C28.3963 13.2061 28.142 13.5186 28.5479 13.0762C29.4042 12.1412 29.7127 11.9239 30.5621 11.4565L35.1894 20.1852C35.4574 20.6913 35.8744 21.1027 36.3838 21.3637C36.8932 21.6247 37.4705 21.7228 38.0374 21.6445C38.9643 21.5159 39.7406 21.3835 40.0012 21.0065C40.8103 19.8378 37.8354 10.6776 37.8354 10.6776C37.8414 10.6787 37.8471 10.6811 37.8521 10.6846C37.873 10.6929 37.891 10.7013 37.9105 10.7082C37.912 10.7097 37.9139 10.7107 37.916 10.711C39.5244 11.5889 43.0804 24.379 43.0804 24.379Z" fill="#371A45"/>
</g>
<path d="M52.7249 53.5173C52.6061 53.5173 52.4905 53.4791 52.3951 53.4083C52.277 53.321 49.4678 51.2186 46.5678 46.8502C43.5504 42.305 43.8026 38.4614 45.6112 37.0137C47.3019 35.6605 49.8756 36.4904 52.4957 39.234C59.2585 46.3157 64.6663 47.6811 64.7201 47.694C64.8634 47.7283 64.9873 47.8181 65.0645 47.9437C65.1417 48.0693 65.166 48.2205 65.1319 48.3639C65.0979 48.5074 65.0083 48.6315 64.8829 48.7089C64.7575 48.7864 64.6065 48.8109 64.4631 48.777C64.2314 48.7222 58.7069 47.3491 51.6917 40.003C49.5446 37.7545 47.4807 36.9425 46.3058 37.883C44.9076 39.0021 44.9698 42.4319 47.494 46.2342C50.2775 50.427 53.0288 52.493 53.0563 52.5134C53.1503 52.5832 53.2199 52.6808 53.2553 52.7925C53.2906 52.9041 53.2899 53.0241 53.2532 53.1353C53.2165 53.2465 53.1456 53.3432 53.0508 53.4118C52.9559 53.4804 52.8419 53.5173 52.7249 53.5173Z" fill="#371A45"/>
<path d="M82.1217 43.1882C77.9076 47.3587 77.2156 46.9131 76.0563 47.1513C75.1012 47.3484 71.8261 47.7366 69.243 47.1969C66.3499 46.5925 61.9067 44.0646 60.1993 40.1148C59.9333 39.499 59.7022 38.8686 59.5073 38.2266C56.9506 29.8033 61.0677 20.6213 69.3312 17.0449C70.9961 16.3218 72.7633 15.8624 74.5693 15.6832C74.7765 15.6626 74.9822 15.6479 75.1894 15.6332C75.7433 15.5979 76.2958 15.5906 76.8468 15.6082C76.9202 15.6097 76.9937 15.6126 77.0672 15.617C77.4242 15.795 77.7769 15.9847 78.1207 16.1876C78.491 16.4053 78.8554 16.6361 79.2094 16.8817C79.2477 16.9081 79.2759 16.9466 79.2896 16.991C79.3034 17.0354 79.3018 17.0831 79.2852 17.1265C79.2686 17.1699 79.2379 17.2065 79.1981 17.2304C79.1582 17.2542 79.1115 17.264 79.0655 17.2582C78.5255 17.1845 77.9821 17.1388 77.4375 17.1214C76.9305 17.1052 76.4192 17.1126 75.9079 17.1449C75.7169 17.1567 75.5259 17.1714 75.3349 17.192C73.6663 17.3579 72.0335 17.7821 70.4949 18.4493C62.9308 21.7242 58.276 30.518 61.1588 37.906C61.409 38.5466 61.7107 39.1657 62.061 39.7574C65.2729 45.1896 70.6903 45.9749 75.0469 45.3984C78.9744 44.8779 82.0262 43.2397 82.1217 43.1882Z" fill="white"/>
<path d="M72.28 47.5548C71.2817 47.5548 70.2132 47.4833 69.2263 47.277C66.0181 46.6069 61.7378 43.8804 60.1242 40.1474C59.857 39.5286 59.6249 38.8953 59.429 38.2504C56.8275 29.6796 61.0706 20.5309 69.2987 16.9698C70.9713 16.2432 72.7468 15.7816 74.5613 15.6017C74.7691 15.5811 74.9756 15.5663 75.1836 15.5516C75.7275 15.5168 76.2879 15.5084 76.8494 15.5264C76.923 15.5279 76.9975 15.5308 77.072 15.5353L77.1036 15.5438C77.4754 15.729 77.8316 15.9219 78.1623 16.1172C78.5471 16.3433 78.9152 16.5779 79.256 16.8144C79.3093 16.8513 79.3487 16.905 79.3678 16.967C79.387 17.0289 79.3848 17.0955 79.3616 17.1561C79.3384 17.2166 79.2955 17.2676 79.2399 17.3008C79.1843 17.3341 79.1191 17.3477 79.0548 17.3394C78.5175 17.2662 77.9768 17.2208 77.4348 17.2033C76.9272 17.187 76.4151 17.195 75.913 17.2267C75.696 17.2401 75.5151 17.2549 75.3436 17.2734C73.6831 17.4385 72.0584 17.8606 70.5273 18.5245C62.7167 21.9062 58.4614 30.7682 61.235 37.8762C61.4839 38.5126 61.7836 39.1277 62.1314 39.7158C65.4441 45.3185 70.9775 45.8545 75.0361 45.3172C78.9194 44.8027 81.9555 43.1848 82.0829 43.1161L82.5834 42.8465L82.1791 43.2465C78.4951 46.8924 77.4838 47.0297 76.5058 47.1624C76.3594 47.1823 76.2212 47.2011 76.0727 47.2316C75.593 47.3306 74.0468 47.5548 72.28 47.5548ZM76.2771 15.681C75.9117 15.681 75.5495 15.6924 75.1946 15.715C74.9888 15.7296 74.7838 15.7442 74.5774 15.7647C72.7797 15.9429 71.0207 16.4002 69.3636 17.1201C61.212 20.6481 57.0083 29.7117 59.5855 38.2028C59.7798 38.8418 60.0098 39.4693 60.2745 40.0824C61.8662 43.7647 66.0919 46.455 69.2598 47.1168C71.9654 47.6819 75.2959 47.2246 76.0397 47.0711C76.1936 47.0395 76.3411 47.0195 76.4838 47.0001C77.402 46.8755 78.3506 46.7465 81.6928 43.4945C80.6783 43.9787 78.1303 45.0724 75.0576 45.4796C70.9497 46.0229 65.3488 45.4788 61.9904 39.7992C61.6382 39.2035 61.3346 38.5803 61.0825 37.9358C58.2778 30.748 62.5733 21.7898 70.4624 18.3741C72.0088 17.7036 73.6498 17.2773 75.3268 17.1105C75.5002 17.0918 75.6835 17.0768 75.9029 17.0632C76.4098 17.0312 76.9271 17.0234 77.44 17.0396C77.9875 17.0573 78.5337 17.1031 79.0765 17.177C79.1043 17.1804 79.1324 17.1744 79.1564 17.1599C79.1804 17.1454 79.1989 17.1233 79.2089 17.097C79.2188 17.0708 79.2197 17.042 79.2115 17.0152C79.2032 16.9884 79.1861 16.9652 79.1631 16.9492C78.8253 16.7149 78.4607 16.4825 78.0793 16.2583C77.7562 16.0676 77.4086 15.8791 77.0456 15.6979C76.9788 15.6941 76.9119 15.6915 76.8451 15.6901C76.6553 15.6841 76.466 15.6811 76.2771 15.681Z" fill="#371A45"/>
<g opacity="0.35">
<path d="M82.1211 43.1882C77.9071 47.3587 77.215 46.9131 76.0557 47.1514C75.1007 47.3484 71.8256 47.7367 69.2425 47.1969C66.3494 46.5925 61.9061 44.0647 60.1988 40.1148C59.9327 39.499 59.7017 38.8686 59.5067 38.2266C59.3224 37.6198 59.1718 37.0032 59.0557 36.3796C59.6437 36.6633 60.2517 36.9037 60.8747 37.0988C60.9599 37.3693 61.0544 37.6385 61.1583 37.9061C61.4085 38.5466 61.7102 39.1658 62.0604 39.7575C65.2724 45.1897 70.6898 45.9749 75.0463 45.3985C78.9738 44.8779 82.0256 43.2397 82.1211 43.1882Z" fill="#293856"/>
<path d="M72.2793 47.5549C71.281 47.5549 70.2125 47.4833 69.2256 47.2771C66.0174 46.607 61.7371 43.8804 60.1235 40.1474C59.8563 39.5286 59.6242 38.8953 59.4283 38.2504C59.2431 37.6406 59.0918 37.021 58.975 36.3945L58.9458 36.2365L59.0907 36.3058C59.6751 36.5878 60.2794 36.8267 60.8986 37.0205L60.9396 37.0331L60.9525 37.0742C61.0385 37.3472 61.1333 37.6172 61.2343 37.8764C61.4832 38.5126 61.7829 39.1278 62.1306 39.7158C65.4434 45.3185 70.9768 45.8545 75.0354 45.3173C78.9186 44.8027 81.9548 43.1848 82.0822 43.1162L82.5827 42.8465L82.1784 43.2465C78.4944 46.8925 77.4831 47.0297 76.505 47.1624C76.3587 47.1824 76.2204 47.2011 76.072 47.2316C75.5923 47.3306 74.0461 47.5549 72.2793 47.5549ZM59.1659 36.5223C59.2773 37.0892 59.4171 37.6501 59.5849 38.2029C59.7791 38.8419 60.0091 39.4694 60.2738 40.0824C61.8655 43.7647 66.0912 46.4551 69.2591 47.1168C71.9647 47.6819 75.2951 47.2247 76.039 47.0711C76.1929 47.0395 76.3404 47.0195 76.483 47.0001C77.4013 46.8755 78.3499 46.7466 81.6921 43.4945C80.6775 43.9788 78.1296 45.0725 75.0569 45.4796C70.9491 46.0234 65.348 45.4789 61.9897 39.7992C61.6375 39.2035 61.3339 38.5804 61.0818 37.9358C60.9845 37.6862 60.893 37.4269 60.8093 37.1643C60.248 36.9868 59.699 36.7723 59.1659 36.5223Z" fill="#371A45"/>
</g>
<path d="M72.2783 47.963C71.2539 47.963 70.1564 47.8896 69.1419 47.6777H69.1418C66.3988 47.1047 61.6335 44.6696 59.7481 40.3096C57.8369 35.8873 57.7609 30.9849 59.5342 26.5054C61.3073 22.0261 64.7171 18.506 69.1355 16.5935C70.8475 15.8504 72.6647 15.3783 74.5218 15.1943C74.7327 15.1735 74.9432 15.1576 75.1546 15.1428C75.7101 15.1073 76.2834 15.0986 76.8618 15.1168C76.9364 15.1187 77.0135 15.1223 77.0907 15.126L77.1936 15.131L77.2859 15.1769C77.6565 15.3616 78.0212 15.5588 78.3696 15.7633C78.7487 15.9862 79.1251 16.2264 79.4886 16.4774C79.6177 16.5665 79.7131 16.6966 79.7593 16.8466C79.8056 16.9966 79.7999 17.1579 79.7433 17.3043C79.6867 17.4508 79.5825 17.5739 79.4474 17.6537C79.3123 17.7336 79.1543 17.7656 78.9989 17.7445C78.4758 17.6736 77.9494 17.6294 77.4218 17.6123C76.9359 17.5968 76.4365 17.6044 75.9376 17.6355C75.7556 17.6472 75.5714 17.6611 75.3889 17.6811C73.7688 17.8409 72.1836 18.2525 70.6902 18.901C66.3652 20.7726 62.9243 24.5353 61.486 28.9663C60.2891 32.653 60.6432 36.3966 62.483 39.5075C65.6821 44.9171 71.0456 45.4318 74.9817 44.9112C78.5448 44.4398 81.3547 43.0364 81.8818 42.7598L82.2471 42.5682L82.5139 42.8874L82.7677 43.2173L82.4842 43.5221C80.257 45.9163 77.443 47.3674 76.1561 47.6329C75.6658 47.7341 74.0862 47.963 72.2783 47.963ZM69.3425 46.7157C71.7208 47.2123 74.8812 46.8924 75.9578 46.6705C76.6985 46.5175 78.0877 45.8706 79.5371 44.8164C78.3196 45.2399 76.7947 45.6627 75.1105 45.8855C71.6478 46.3434 65.2933 46.1891 61.6379 40.008C59.6525 36.6508 59.2669 32.6215 60.552 28.6626C62.0762 23.9673 65.7205 19.9808 70.3004 17.9989C71.8855 17.3106 73.5681 16.8736 75.2876 16.7036C75.455 16.6852 75.6381 16.67 75.8755 16.6546C76.4063 16.6217 76.937 16.6134 77.4535 16.63C77.6169 16.6354 77.7805 16.6431 77.9443 16.6534C77.9204 16.6391 77.8965 16.6249 77.8726 16.6109C77.5724 16.4348 77.2592 16.2641 76.9403 16.1029C76.9048 16.1013 76.8693 16.1001 76.8338 16.0992C76.2838 16.0817 75.7418 16.0901 75.2201 16.1234C75.0213 16.1374 74.8201 16.1523 74.6183 16.1723C72.8623 16.3464 71.1441 16.7928 69.5253 17.4956C65.3476 19.3039 62.1237 22.6322 60.4471 26.8674C58.7705 31.1028 58.8424 35.7381 60.6493 39.9194C62.3741 43.9078 66.8969 46.2048 69.3426 46.7157H69.3425Z" fill="#371A45"/>
<path d="M60.5982 40.0743C62.5997 38.0712 62.5997 34.8234 60.5982 32.8202C58.5967 30.817 55.3516 30.817 53.3501 32.8202C51.3486 34.8234 51.3486 38.0712 53.3501 40.0743C55.3516 42.0775 58.5967 42.0775 60.5982 40.0743Z" fill="white"/>
<path d="M56.9753 42.1363C55.8665 42.1345 54.7824 41.8088 53.8559 41.1992C52.9295 40.5895 52.2009 39.7225 51.7597 38.7044C50.5161 35.8268 51.8436 32.4731 54.7189 31.2286C55.4932 30.8947 56.332 30.7375 57.1745 30.7683C58.017 30.7992 58.8421 31.0173 59.5899 31.4069C60.3377 31.7964 60.9896 32.3477 61.4981 33.0207C62.0066 33.6937 62.3592 34.4715 62.5301 35.2977C62.701 36.124 62.686 36.9779 62.4863 37.7977C62.2865 38.6174 61.907 39.3824 61.3752 40.0371C60.8434 40.6918 60.1726 41.2199 59.4116 41.5829C58.6506 41.946 57.8184 42.1351 56.9753 42.1363ZM52.7804 38.2627C53.2001 39.2337 53.9432 40.029 54.883 40.5132C55.8229 40.9973 56.9015 41.1404 57.9349 40.9179C58.9684 40.6954 59.8927 40.1212 60.5506 39.293C61.2084 38.4649 61.559 37.4341 61.5426 36.3763C61.5262 35.3185 61.1438 34.2991 60.4606 33.4918C59.7774 32.6845 58.8357 32.1392 57.7958 31.949C56.756 31.7587 55.6824 31.9351 54.758 32.4483C53.8336 32.9614 53.1155 33.7794 52.7262 34.763C52.5036 35.3209 52.3937 35.9175 52.4031 36.5183C52.4124 37.119 52.5406 37.7119 52.7804 38.2627Z" fill="#371A45"/>
<path d="M59.1009 39.9874C60.7104 38.3765 60.7104 35.7648 59.1009 34.1539C57.4914 32.5431 54.8818 32.5431 53.2722 34.1539C51.6627 35.7648 51.6627 38.3765 53.2722 39.9874C54.8818 41.5983 57.4914 41.5983 59.1009 39.9874Z" fill="white"/>
<path d="M56.1874 41.2797C55.3671 41.2784 54.565 41.0374 53.8795 40.5864C53.1941 40.1354 52.6551 39.4939 52.3287 38.7406C51.9719 37.9111 51.8919 36.9885 52.1005 36.1098C52.309 35.231 52.7951 34.4431 53.4866 33.8627C54.1781 33.2824 55.0381 32.9406 55.939 32.8882C56.8399 32.8357 57.7337 33.0754 58.4877 33.5715C59.2418 34.0677 59.8159 34.794 60.1249 35.6425C60.4339 36.4911 60.4613 37.4168 60.203 38.2822C59.9448 39.1476 59.4146 39.9066 58.6913 40.4465C57.9679 40.9865 57.0898 41.2787 56.1874 41.2797ZM52.4789 38.6757C52.8499 39.5342 53.5069 40.2374 54.3379 40.6655C55.1689 41.0935 56.1224 41.22 57.0361 41.0233C57.9498 40.8266 58.7671 40.3189 59.3488 39.5867C59.9304 38.8545 60.2403 37.9432 60.2258 37.0079C60.2113 36.0727 59.8732 35.1714 59.2692 34.4576C58.6652 33.7439 57.8325 33.2618 56.9131 33.0936C55.9938 32.9254 55.0446 33.0814 54.2273 33.5351C53.41 33.9888 52.7751 34.712 52.4309 35.5817C52.2341 36.0749 52.137 36.6024 52.1452 37.1335C52.1535 37.6646 52.2669 38.1887 52.4789 38.6757Z" fill="#371A45"/>
<g opacity="0.35">
<path d="M59.7414 38.8411C60.1774 38.0998 60.3695 37.2402 60.2905 36.3836C59.7981 37.0635 59.1101 37.5766 58.3185 37.8546C57.5268 38.1326 56.6692 38.1621 55.8604 37.9392C55.0515 37.7164 54.3299 37.2517 53.7919 36.6074C53.254 35.9631 52.9254 35.1698 52.85 34.3335C52.7716 34.4405 52.6988 34.5539 52.6299 34.6709C52.0773 35.6147 51.922 36.7395 52.1981 37.798C52.4743 38.8564 53.1592 39.7617 54.1022 40.3147C55.0453 40.8677 56.1692 41.0231 57.2268 40.7468C58.2843 40.4704 59.1889 39.7849 59.7414 38.8411Z" fill="#293856"/>
<path d="M56.1785 40.962C55.4391 40.9608 54.7131 40.7643 54.0738 40.3925C53.4345 40.0206 52.9046 39.4866 52.5375 38.8442C52.1703 38.2018 51.9791 37.4739 51.983 36.7339C51.9869 35.9939 52.1857 35.268 52.5596 34.6295C52.6286 34.511 52.7037 34.396 52.7844 34.285L52.9123 34.1105L52.9319 34.326C53.0057 35.1457 53.3278 35.9232 53.855 36.5548C54.3822 37.1863 55.0895 37.6418 55.8823 37.8603C56.675 38.0787 57.5156 38.0498 58.2915 37.7774C59.0674 37.505 59.7418 37.002 60.2245 36.3358L60.3524 36.1585L60.3723 36.3763C60.4534 37.2499 60.2575 38.1268 59.8123 38.8826L59.8124 38.8825C59.4408 39.5164 58.9098 40.042 58.2723 40.4068C57.6347 40.7716 56.9129 40.963 56.1785 40.962ZM52.7945 34.5598C52.7635 34.608 52.7324 34.6587 52.7008 34.7124C52.1592 35.6375 52.007 36.74 52.2777 37.7774C52.5483 38.8148 53.2196 39.7021 54.1439 40.2441C55.0683 40.7862 56.1699 40.9385 57.2064 40.6676C58.2429 40.3967 59.1295 39.7249 59.6711 38.7998L59.6712 38.7997C60.0615 38.1371 60.2532 37.3761 60.2233 36.6074C59.709 37.2442 59.0202 37.7168 58.2414 37.9674C57.4626 38.218 56.6276 38.2357 55.8389 38.0183C55.0502 37.8009 54.342 37.3579 53.8012 36.7435C53.2604 36.1292 52.9106 35.3702 52.7945 34.5598Z" fill="#371A45"/>
</g>
<path d="M56.1872 41.6894C55.287 41.688 54.4068 41.4236 53.6546 40.9286C52.9025 40.4337 52.311 39.7298 51.9528 38.9032C51.5613 37.9928 51.4734 36.9804 51.7023 36.0161C51.9312 35.0518 52.4646 34.1871 53.2234 33.5502C53.9822 32.9133 54.926 32.5383 55.9146 32.4807C56.9032 32.4231 57.8841 32.6861 58.7116 33.2306C59.539 33.775 60.1691 34.572 60.5082 35.5032C60.8473 36.4344 60.8774 37.4503 60.5939 38.3999C60.3105 39.3496 59.7288 40.1825 58.9349 40.7751C58.1411 41.3677 57.1775 41.6883 56.1872 41.6894ZM52.8541 38.5131C53.1392 39.1727 53.6133 39.7328 54.2164 40.1228C54.8196 40.5127 55.5247 40.7149 56.2427 40.7037C56.9606 40.6926 57.6591 40.4686 58.2499 40.0601C58.8407 39.6516 59.2972 39.077 59.5616 38.4089C59.8261 37.7408 59.8866 37.0092 59.7356 36.3066C59.5846 35.604 59.2289 34.962 58.7133 34.4618C58.1978 33.9616 57.5456 33.6257 56.8393 33.4964C56.1329 33.3672 55.4041 33.4504 54.7451 33.7357C54.3054 33.9226 53.9072 34.195 53.5736 34.5371C53.24 34.8792 52.9776 35.2843 52.8016 35.7287C52.6257 36.1732 52.5398 36.6482 52.5488 37.1262C52.5578 37.6042 52.6616 38.0756 52.8541 38.5131Z" fill="#371A45"/>
<path d="M75.9561 57.3226C75.9529 57.474 75.715 58.6918 75.715 58.6918C75.715 58.6918 75.3281 58.6837 74.8531 58.6739C74.2597 58.6616 73.7913 58.0367 73.807 57.2781C73.8227 56.5195 74.3165 55.9145 74.9099 55.9268L75.7718 55.9447C75.7718 55.9447 75.9612 57.076 75.9561 57.3226Z" fill="#22A7F0"/>
<path d="M75.9426 58.9748L74.847 58.9521C74.1014 58.9366 73.51 58.1831 73.5288 57.2724C73.5476 56.3617 74.178 55.6361 74.9154 55.6487L76.0077 55.6713L76.0458 55.8988C76.078 56.0919 76.239 57.0689 76.2337 57.3284V57.3285C76.2305 57.4867 76.0605 58.372 75.9876 58.7452L75.9426 58.9748ZM74.8918 56.2049C74.4579 56.2049 74.0971 56.6855 74.0846 57.284C74.0722 57.8878 74.4194 58.3866 74.8585 58.3957L75.4863 58.4088C75.5829 57.9043 75.6729 57.4034 75.6778 57.3156C75.68 57.1786 75.6019 56.64 75.5345 56.2181L74.9039 56.205C74.8998 56.205 74.8958 56.2049 74.8918 56.2049Z" fill="#371A45"/>
<path d="M76.8176 57.3406C76.8333 56.582 76.3649 55.9571 75.7715 55.9448C75.178 55.9325 74.6842 56.5375 74.6685 57.296C74.6529 58.0546 75.1212 58.6795 75.7147 58.6918C76.3081 58.7041 76.8019 58.0991 76.8176 57.3406Z" fill="#22A7F0"/>
<path d="M75.7334 58.9703C75.7254 58.9703 75.7174 58.9702 75.7094 58.97C75.335 58.9623 74.9912 58.7742 74.7412 58.4407C74.5065 58.1276 74.3821 57.719 74.3911 57.2901C74.4099 56.3795 75.0408 55.6545 75.7777 55.6665C76.1521 55.6742 76.4958 55.8623 76.7458 56.1958C76.9805 56.5089 77.1049 56.9175 77.0959 57.3464C77.0931 57.7584 76.9532 58.1577 76.6985 58.4813C76.4407 58.7973 76.0987 58.9703 75.7334 58.9703ZM75.7541 56.2228C75.3202 56.2228 74.9594 56.7033 74.9469 57.3018C74.9353 57.5892 75.0194 57.8724 75.186 58.1068C75.3312 58.3005 75.5212 58.4095 75.7208 58.4137C75.9252 58.4133 76.1149 58.3166 76.268 58.1292C76.4441 57.9019 76.5398 57.6225 76.5401 57.3348V57.3347C76.5517 57.0473 76.4676 56.7641 76.301 56.5297C76.1558 56.336 75.9659 56.227 75.7663 56.2229C75.7622 56.2228 75.7581 56.2228 75.7541 56.2228Z" fill="#371A45"/>
<g opacity="0.7">
<path d="M67.2798 33.5416C68.5559 33.3327 69.3931 31.9569 69.1498 30.4687C68.9065 28.9805 67.6749 27.9435 66.3988 28.1524C65.1228 28.3614 64.2856 29.7372 64.5289 31.2254C64.7722 32.7135 66.0038 33.7506 67.2798 33.5416Z" fill="white"/>
</g>
<g opacity="0.7">
<path d="M67.1722 37.8803C67.6902 37.7223 67.961 37.1044 67.777 36.5002C67.593 35.8961 67.0239 35.5344 66.5058 35.6925C65.9878 35.8505 65.717 36.4684 65.9011 37.0725C66.0851 37.6767 66.6542 38.0383 67.1722 37.8803Z" fill="white"/>
</g>
<path d="M71.5796 62.1453C71.5431 62.1453 71.5069 62.1381 71.4732 62.1242C71.4394 62.1102 71.4088 62.0897 71.383 62.0638C71.3572 62.038 71.3367 62.0073 71.3227 61.9736C71.3087 61.9398 71.3016 61.9036 71.3016 61.8671V58.2761C71.3014 58.1659 71.2577 58.0603 71.1798 57.9824C71.102 57.9045 70.9964 57.8607 70.8863 57.8606C70.6288 57.8603 70.3819 57.7578 70.1998 57.5755C70.0178 57.3933 69.9153 57.1462 69.915 56.8885V52.7635C69.915 52.6897 69.9443 52.6189 69.9965 52.5667C70.0486 52.5145 70.1193 52.4852 70.1931 52.4852C70.2668 52.4852 70.3375 52.5145 70.3897 52.5667C70.4418 52.6189 70.4711 52.6897 70.4711 52.7635V56.8885C70.4712 56.9986 70.515 57.1043 70.5928 57.1822C70.6707 57.2601 70.7762 57.3039 70.8863 57.304C71.1438 57.3043 71.3907 57.4068 71.5728 57.5891C71.7549 57.7713 71.8573 58.0184 71.8576 58.2761V61.8671C71.8576 61.9036 71.8504 61.9398 71.8365 61.9736C71.8225 62.0073 71.802 62.038 71.7762 62.0638C71.7504 62.0897 71.7197 62.1102 71.686 62.1242C71.6523 62.1381 71.6161 62.1453 71.5796 62.1453Z" fill="#371A45"/>
<path d="M75.1188 71.3535C74.9087 73.4696 74.1226 76.4357 71.5792 77.5827C67.5474 79.4018 66.5041 73.377 66.2911 72.9535C66.078 72.5299 65.073 69.6094 60.2933 69.1227C55.515 68.6359 55.64 67.4228 55.64 67.4228L59.8775 65.0684L59.998 65.0008L63.9725 64.3493C63.9725 64.3493 67.1624 63.3376 70.8871 64.0567C74.6104 64.7772 75.0468 68.7242 75.1364 69.0462C75.1702 69.1653 75.2437 70.1138 75.1188 71.3535Z" fill="white"/>
<g opacity="0.35">
<path d="M75.1188 71.3536C74.9087 73.4697 74.1226 76.4358 71.5792 77.5828C67.5474 79.4018 66.5041 73.377 66.2911 72.9535C66.078 72.53 65.073 69.6095 60.2933 69.1228C55.515 68.636 55.64 67.4228 55.64 67.4228L59.8775 65.0685C62.0947 65.4552 65.4142 66.4393 66.7524 67.4225C68.8204 68.9418 69.1092 71.2676 69.6162 72.2053C70.3911 73.6384 72.3115 74.8691 75.1188 71.3536Z" fill="#371A45"/>
</g>
<path d="M70.233 78.4665C69.8228 78.4686 69.4166 78.385 69.0404 78.2212C67.6741 77.6204 67.1266 76.2875 66.547 74.8763C65.5807 72.5243 64.4857 69.8583 59.1273 69.5776C57.1165 69.4723 55.4845 68.6564 54.2765 67.1526C50.6172 62.5972 52.1116 53.2649 52.177 52.8698C52.2013 52.7243 52.2822 52.5943 52.4021 52.5085C52.522 52.4227 52.671 52.388 52.8164 52.4121C52.9618 52.4362 53.0917 52.5171 53.1775 52.637C53.2634 52.7569 53.2982 52.9061 53.2742 53.0516C53.259 53.1436 51.7958 62.29 55.1441 66.4563C56.1593 67.7194 57.4812 68.3768 59.1854 68.4661C65.2466 68.7836 66.5927 72.0605 67.5755 74.4531C68.11 75.7543 68.5321 76.782 69.4878 77.2023C70.082 77.4634 70.8257 77.3832 71.5281 76.9814C73.0721 76.0986 74.1625 73.8695 74.5199 70.866C74.748 68.9475 74.3355 67.3796 73.2938 66.2056C72.0577 64.8125 70.2362 64.3182 69.0518 64.3182C68.9043 64.3182 68.7629 64.2595 68.6586 64.1552C68.5543 64.0508 68.4957 63.9093 68.4957 63.7617C68.4957 63.6141 68.5543 63.4725 68.6586 63.3681C68.7629 63.2638 68.9043 63.2051 69.0518 63.2051C70.4667 63.2051 72.6443 63.7974 74.1253 65.4665C75.3695 66.8686 75.8877 68.7812 75.6242 70.9975C75.0774 75.5941 73.1689 77.3251 72.0799 77.9479C71.4784 78.2918 70.8429 78.4665 70.233 78.4665Z" fill="#371A45"/>
<path d="M65.0748 71.7331C64.98 71.733 64.8873 71.7056 64.8078 71.654C64.7283 71.6024 64.6654 71.5288 64.6268 71.4423C64.5881 71.3557 64.5753 71.2598 64.5898 71.1661C64.6044 71.0724 64.6457 70.9849 64.7088 70.9142C64.8491 70.7572 68.1846 67.066 71.7502 66.9346C73.1277 66.8853 74.3501 67.367 75.3882 68.3705C75.4347 68.4153 75.4718 68.4688 75.4976 68.528C75.5233 68.5872 75.5372 68.6509 75.5383 68.7154C75.5395 68.78 75.5279 68.8441 75.5043 68.9042C75.4806 68.9642 75.4454 69.0191 75.4006 69.0655C75.3558 69.1119 75.3023 69.1491 75.2431 69.1748C75.1839 69.2005 75.1203 69.2143 75.0558 69.2154C74.9913 69.2165 74.9272 69.2049 74.8672 69.1812C74.8072 69.1575 74.7525 69.1222 74.7061 69.0773C73.8555 68.2553 72.8991 67.8755 71.7864 67.9168C68.6338 68.0328 65.4727 71.5337 65.441 71.5691C65.395 71.6208 65.3386 71.6621 65.2754 71.6903C65.2123 71.7186 65.1439 71.7332 65.0748 71.7331Z" fill="#371A45"/>
<path d="M52.3137 56.2114C54.5119 56.5447 59.5082 57.1478 63.7632 56.5363C63.9279 56.5124 64.0958 56.5246 64.2552 56.5721C64.4147 56.6196 64.5619 56.7013 64.6867 56.8115C64.8114 56.9216 64.9107 57.0577 64.9776 57.2101C65.0446 57.3626 65.0776 57.5278 65.0743 57.6943L65.0726 57.7764C65.0675 58.0444 64.9687 58.3022 64.7934 58.5049C64.6181 58.7076 64.3774 58.8425 64.1131 58.886C59.704 59.609 54.2856 59.2673 51.9812 59.0666C51.8347 59.0539 51.6923 59.012 51.5622 58.9434C51.4322 58.8748 51.3171 58.7809 51.2238 58.6672C51.1305 58.5535 51.0609 58.4223 51.019 58.2813C50.977 58.1403 50.9637 57.9923 50.9797 57.846L51.052 57.1839C51.068 57.0359 51.1138 56.8926 51.1866 56.7627C51.2594 56.6329 51.3577 56.5191 51.4756 56.4283C51.5934 56.3374 51.7285 56.2714 51.8725 56.2341C52.0165 56.1968 52.1666 56.1891 52.3137 56.2114Z" fill="white"/>
<path d="M57.8071 59.4055C55.3424 59.4055 53.1585 59.2513 51.9744 59.1482C51.8171 59.1346 51.6641 59.0896 51.5244 59.0159C51.3847 58.9423 51.2611 58.8414 51.1609 58.7193C51.0607 58.5971 50.9858 58.4562 50.9408 58.3047C50.8958 58.1532 50.8815 57.9943 50.8987 57.8372L50.9709 57.1751C50.9881 57.0161 51.0373 56.8622 51.1155 56.7226C51.1937 56.5831 51.2993 56.4609 51.4259 56.3633C51.5525 56.2657 51.6976 56.1948 51.8523 56.1548C52.0071 56.1147 52.1683 56.1065 52.3263 56.1305C54.3286 56.4341 59.4504 57.0736 63.7519 56.4552C63.9283 56.4296 64.1082 56.4427 64.279 56.4936C64.4498 56.5445 64.6075 56.6321 64.7412 56.7501C64.8748 56.8682 64.9812 57.0139 65.0529 57.1773C65.1245 57.3406 65.1599 57.5176 65.1563 57.696L65.1547 57.7781C65.1492 58.0653 65.0433 58.3414 64.8555 58.5586C64.6677 58.7758 64.4098 58.9202 64.1267 58.9669C62.103 59.2987 59.8578 59.4054 57.8071 59.4055ZM52.1458 56.2807C51.8945 56.2815 51.6524 56.375 51.4656 56.5433C51.2789 56.7116 51.1607 56.9428 51.1336 57.1928L51.0613 57.8549C51.0465 57.9903 51.0588 58.1273 51.0976 58.2579C51.1364 58.3885 51.2009 58.51 51.2873 58.6153C51.3737 58.7206 51.4802 58.8075 51.6007 58.871C51.7211 58.9345 51.853 58.9733 51.9886 58.9851C54.152 59.1735 59.6628 59.5327 64.1002 58.8053C64.3456 58.7648 64.5691 58.6396 64.7319 58.4513C64.8946 58.2631 64.9864 58.0237 64.9911 57.7749L64.9927 57.6927C64.9958 57.5381 64.9651 57.3847 64.903 57.2431C64.8408 57.1015 64.7486 56.9752 64.6327 56.8729C64.5169 56.7706 64.3802 56.6947 64.2321 56.6506C64.084 56.6065 63.928 56.5952 63.7751 56.6174C59.452 57.2385 54.3114 56.597 52.3017 56.2925C52.2501 56.2846 52.198 56.2807 52.1458 56.2807Z" fill="#371A45"/>
<g opacity="0.35">
<path d="M65.0745 57.6937L65.073 57.776C65.0677 58.0441 64.9688 58.3018 64.7936 58.5045C64.6184 58.7073 64.3778 58.8423 64.1136 58.8863C59.7041 59.6083 54.2853 59.2672 51.9814 59.0672C51.835 59.0544 51.6926 59.0125 51.5626 58.9439C51.4326 58.8753 51.3176 58.7814 51.2244 58.6677C51.1312 58.554 51.0616 58.4228 51.0198 58.2818C50.9779 58.1408 50.9647 57.9928 50.9808 57.8466L51.0528 57.1834C51.0542 57.1658 51.0571 57.1481 51.0601 57.1319C51.1387 57.3167 51.2658 57.4766 51.4281 57.5947C51.5903 57.7128 51.7815 57.7846 51.9814 57.8025C54.2853 58.0025 59.7041 58.3451 64.1136 57.6216C64.278 57.5947 64.4345 57.5321 64.5721 57.4381C64.7097 57.3441 64.8251 57.221 64.91 57.0775C65.0225 57.2629 65.0797 57.4768 65.0745 57.6937Z" fill="#371A45"/>
</g>
<path d="M57.8054 59.8147C55.325 59.8147 53.1297 59.6599 51.9389 59.5562C51.7273 59.5378 51.5215 59.4773 51.3336 59.3782C51.1457 59.2791 50.9794 59.1434 50.8446 58.9792C50.7098 58.8149 50.6092 58.6253 50.5486 58.4215C50.488 58.2178 50.4688 58.004 50.4919 57.7927L50.5642 57.1306C50.5874 56.9167 50.6536 56.7097 50.7588 56.5221C50.8641 56.3344 51.0061 56.1701 51.1765 56.0388C51.3468 55.9076 51.5419 55.8122 51.7501 55.7583C51.9582 55.7045 52.1751 55.6934 52.3876 55.7257H52.3875C54.372 56.0264 59.4461 56.6604 63.6937 56.0499C63.9289 56.0159 64.1686 56.0334 64.3963 56.1013C64.624 56.1693 64.8342 56.286 65.0122 56.4434C65.1903 56.6008 65.3321 56.7951 65.4276 57.0128C65.5231 57.2305 65.5702 57.4664 65.5655 57.7041L65.5639 57.7862C65.5564 58.1691 65.4152 58.5372 65.1647 58.8268C64.9143 59.1163 64.5704 59.3088 64.1929 59.371C62.1449 59.7067 59.8758 59.8147 57.8054 59.8147ZM52.1469 56.6902C51.9963 56.6907 51.8511 56.7468 51.7392 56.8477C51.6273 56.9486 51.5565 57.0873 51.5403 57.2372L51.4681 57.8994C51.4591 57.9806 51.4665 58.0628 51.4898 58.1411C51.513 58.2194 51.5517 58.2923 51.6035 58.3554C51.6553 58.4185 51.7192 58.4707 51.7914 58.5088C51.8636 58.5468 51.9427 58.5701 52.024 58.5771C54.172 58.7641 59.6423 59.1212 64.034 58.4011C64.1851 58.3761 64.3226 58.299 64.4227 58.1831C64.5228 58.0672 64.5791 57.9198 64.582 57.7667L64.5836 57.6846C64.5862 57.5896 64.5678 57.4951 64.5297 57.4081C64.4916 57.321 64.4348 57.2434 64.3632 57.1809C64.2916 57.1177 64.2071 57.0708 64.1156 57.0434C64.0242 57.0161 63.9278 57.0091 63.8333 57.0227C59.4564 57.6518 54.268 57.0049 52.2405 56.6973H52.2404C52.2095 56.6926 52.1782 56.6903 52.1469 56.6902Z" fill="#371A45"/>
</svg>
