<svg width="48" height="48" viewBox="0 0 48 48" fill="none" xmlns="http://www.w3.org/2000/svg">
<rect width="48" height="48" rx="6" fill="#000479" fill-opacity="0.06"/>
<path d="M36.232 13.496C35.5611 13.082 34.7883 12.8627 34 12.8627C33.2117 12.8627 32.4389 13.082 31.768 13.496L21.856 19.612C21.7485 19.6783 21.6595 19.7706 21.5972 19.8805C21.535 19.9903 21.5014 20.1141 21.4997 20.2403C21.498 20.3666 21.5282 20.4912 21.5875 20.6027C21.6468 20.7142 21.7333 20.8089 21.839 20.878L26 23.598V30.25C26 30.546 26.162 30.73 26.353 30.915C26.485 31.044 26.6214 31.1684 26.762 31.288C27.2435 31.6988 27.7586 32.0685 28.302 32.393C29.634 33.193 31.579 34 34 34C36.42 34 38.366 33.193 39.698 32.393C40.2414 32.0685 40.7565 31.6988 41.238 31.288C41.3785 31.1679 41.5152 31.0435 41.648 30.915C41.837 30.73 42 30.55 42 30.25V23.598L45 21.637V27.75C45 27.9489 45.079 28.1397 45.2197 28.2803C45.3603 28.421 45.5511 28.5 45.75 28.5C45.9489 28.5 46.1397 28.421 46.2803 28.2803C46.421 28.1397 46.5 27.9489 46.5 27.75V20.5C46.5 20.4567 46.4967 20.415 46.49 20.375C46.5148 20.2278 46.4951 20.0766 46.4335 19.9407C46.3718 19.8048 46.2711 19.6903 46.144 19.612L36.232 13.496ZM40.5 24.579V29.937C40.4353 29.997 40.356 30.0677 40.262 30.149C39.96 30.409 39.51 30.757 38.927 31.107C37.759 31.807 36.079 32.5 34 32.5C31.92 32.5 30.24 31.807 29.073 31.107C28.5116 30.7695 27.9848 30.3776 27.5 29.937V24.579L31.674 27.309C32.3655 27.7612 33.1738 28.002 34 28.002C34.8262 28.002 35.6345 27.7612 36.326 27.309L40.5 24.579ZM32.556 14.772C32.99 14.5042 33.49 14.3624 34 14.3624C34.51 14.3624 35.01 14.5042 35.444 14.772L44.352 20.268L35.505 26.053C35.0576 26.3456 34.5346 26.5014 34 26.5014C33.4654 26.5014 32.9424 26.3456 32.495 26.053L23.648 20.268L32.556 14.772Z" fill="#000479"/>
</svg>
