<svg width="48" height="48" viewBox="0 0 48 48" fill="none" xmlns="http://www.w3.org/2000/svg">
<rect width="48" height="48" rx="6" fill="#000479" fill-opacity="0.06"/>
<path d="M26.232 13.496C25.5611 13.082 24.7883 12.8627 24 12.8627C23.2117 12.8627 22.4389 13.082 21.768 13.496L11.856 19.612C11.7485 19.6783 11.6595 19.7706 11.5972 19.8805C11.535 19.9903 11.5014 20.1141 11.4997 20.2403C11.498 20.3666 11.5282 20.4912 11.5875 20.6027C11.6468 20.7142 11.7333 20.8089 11.839 20.878L16 23.598V30.25C16 30.546 16.162 30.73 16.353 30.915C16.485 31.044 16.6214 31.1684 16.762 31.288C17.2435 31.6988 17.7586 32.0685 18.302 32.393C19.634 33.193 21.579 34 24 34C26.42 34 28.366 33.193 29.698 32.393C30.2414 32.0685 30.7565 31.6988 31.238 31.288C31.3785 31.1679 31.5152 31.0435 31.648 30.915C31.837 30.73 32 30.55 32 30.25V23.598L35 21.637V27.75C35 27.9489 35.079 28.1397 35.2197 28.2803C35.3603 28.421 35.5511 28.5 35.75 28.5C35.9489 28.5 36.1397 28.421 36.2803 28.2803C36.421 28.1397 36.5 27.9489 36.5 27.75V20.5C36.5 20.4567 36.4967 20.415 36.49 20.375C36.5148 20.2278 36.4951 20.0766 36.4335 19.9407C36.3718 19.8048 36.2711 19.6903 36.144 19.612L26.232 13.496ZM30.5 24.579V29.937C30.4353 29.997 30.356 30.0677 30.262 30.149C29.96 30.409 29.51 30.757 28.927 31.107C27.759 31.807 26.079 32.5 24 32.5C21.92 32.5 20.24 31.807 19.073 31.107C18.5116 30.7695 17.9848 30.3776 17.5 29.937V24.579L21.674 27.309C22.3655 27.7612 23.1738 28.002 24 28.002C24.8262 28.002 25.6345 27.7612 26.326 27.309L30.5 24.579ZM22.556 14.772C22.99 14.5042 23.49 14.3624 24 14.3624C24.51 14.3624 25.01 14.5042 25.444 14.772L34.352 20.268L25.505 26.053C25.0576 26.3456 24.5346 26.5014 24 26.5014C23.4654 26.5014 22.9424 26.3456 22.495 26.053L13.648 20.268L22.556 14.772Z" fill="#000479"/>
</svg>
