<svg width="32" height="32" viewBox="0 0 32 32" fill="none" xmlns="http://www.w3.org/2000/svg">
<path d="M23.8391 18.9145C22.7085 18.9169 21.5847 18.7384 20.5104 18.3857C20.2576 18.3037 19.9877 18.2894 19.7276 18.3439C19.4675 18.3985 19.2261 18.5201 19.0275 18.6968L16.9535 20.2834C14.7098 19.1615 12.8904 17.3422 11.7686 15.0984L13.3033 13.0244C13.4989 12.8287 13.6371 12.5832 13.7029 12.3144C13.7688 12.0457 13.7597 11.764 13.6767 11.5001C13.3241 10.4258 13.1456 9.30201 13.1478 8.17134C13.1479 7.96944 13.1074 7.76959 13.0286 7.58369C12.9498 7.3978 12.8344 7.22968 12.6892 7.08935C12.5441 6.94903 12.3721 6.83938 12.1837 6.76694C11.9952 6.69449 11.7941 6.66075 11.5923 6.66771H8.15989C7.76469 6.67043 7.38645 6.82862 7.10699 7.10808C6.82754 7.38753 6.66934 7.76577 6.66663 8.16097C6.66937 12.7146 8.4795 17.0809 11.6994 20.3007C14.9192 23.5206 19.2855 25.3307 23.8391 25.3335C24.2343 25.3308 24.6126 25.1726 24.892 24.8931C25.1715 24.6137 25.3297 24.2354 25.3324 23.8402V20.4182C25.3324 20.0212 25.1754 19.6403 24.8957 19.3586C24.6159 19.0769 24.2361 18.9173 23.8391 18.9145Z" fill="#2316FB"/>
</svg>
