<svg width="48" height="48" viewBox="0 0 48 48" fill="none" xmlns="http://www.w3.org/2000/svg">
<rect width="48" height="48" rx="6" fill="#000479" fill-opacity="0.06"/>
<g clip-path="url(#clip0_1_284)">
<path fill-rule="evenodd" clip-rule="evenodd" d="M11.7822 13.6875C11.7822 13.2733 12.1221 12.9375 12.5414 12.9375H19.4164C20.8363 12.9375 22.1961 13.5016 23.1972 14.5027C23.5083 14.8139 23.7769 15.1593 23.9993 15.53C24.2217 15.1593 24.4903 14.8139 24.8014 14.5027C25.8025 13.5016 27.1623 12.9375 28.5822 12.9375H35.4572C35.8765 12.9375 36.2164 13.2733 36.2164 13.6875V30.875C36.2164 31.2892 35.8765 31.625 35.4572 31.625H27.4368C26.7295 31.625 26.0493 31.9059 25.5463 32.4089C25.043 32.9122 24.7586 33.5968 24.7586 34.3125C24.7586 34.7267 24.4186 35.0625 23.9993 35.0625C23.58 35.0625 23.24 34.7267 23.24 34.3125C23.24 33.5968 22.9556 32.9122 22.4523 32.4089C21.9493 31.9059 21.2691 31.625 20.5618 31.625H12.5414C12.1221 31.625 11.7822 31.2892 11.7822 30.875V13.6875ZM23.24 31.0885C22.4911 30.4691 21.5449 30.125 20.5618 30.125H13.3007V14.4375H19.4164C20.4275 14.4375 21.399 14.8391 22.1168 15.5569C22.835 16.275 23.24 17.2509 23.24 18.2704V31.0885ZM24.7586 18.2704V31.0885C25.5075 30.4691 26.4537 30.125 27.4368 30.125H34.6979V14.4375H28.5822C27.5711 14.4375 26.5996 14.8391 25.8818 15.5569C25.1636 16.275 24.7586 17.2509 24.7586 18.2704Z" fill="#000479"/>
</g>
<defs>
<clipPath id="clip0_1_284">
<rect width="24.2962" height="22" fill="white" transform="translate(11.8519 13)"/>
</clipPath>
</defs>
</svg>
