<svg width="18" height="17" viewBox="0 0 18 17" fill="none" xmlns="http://www.w3.org/2000/svg">
<g clip-path="url(#clip0_176_3702)">
<g clip-path="url(#clip1_176_3702)">
<path d="M0.501465 1H5.50146C6.38543 1 7.23319 1.35115 7.85825 1.97621C8.48331 2.60127 8.83447 3.44903 8.83447 4.333V16C8.83447 15.337 8.57107 14.7011 8.10223 14.2322C7.63339 13.7634 6.99751 13.5 6.33447 13.5H0.501465V1Z" stroke="#72809F" stroke-linecap="round" stroke-linejoin="round"/>
<path d="M17.1675 1H12.1675C11.2835 1 10.4357 1.35115 9.81069 1.97621C9.18563 2.60127 8.83447 3.44903 8.83447 4.333V16C8.83447 15.337 9.09786 14.7011 9.56671 14.2322C10.0355 13.7634 10.6714 13.5 11.3345 13.5H17.1675V1Z" stroke="#72809F" stroke-linecap="round" stroke-linejoin="round"/>
</g>
</g>
<defs>
<clipPath id="clip0_176_3702">
<rect width="17.67" height="16" fill="white" transform="translate(0 0.5)"/>
</clipPath>
<clipPath id="clip1_176_3702">
<rect width="17.667" height="16" fill="white" transform="translate(0.00146484 0.5)"/>
</clipPath>
</defs>
</svg>
