<svg width="84" height="43" viewBox="0 0 84 43" fill="none" xmlns="http://www.w3.org/2000/svg">
<path d="M74.3026 42.1411L73.0263 30.6649L83.6032 35.2977L74.3026 42.1411ZM0.520325 14.7995C1.91088 8.00334 8.86851 3.33673 16.6647 1.5226C24.5086 -0.302611 33.6787 0.626793 39.9899 5.52213L38.7641 7.10246C33.0697 2.6855 24.5746 1.73548 17.118 3.47056C9.61389 5.21671 3.63584 9.55011 2.47973 15.2005L0.520325 14.7995ZM39.9899 5.52213C48.3699 12.0221 50.6399 19.5796 49.0897 25.6497C47.5548 31.6599 42.2888 36.0185 36.1028 36.0185V34.0185C41.3139 34.0185 45.8277 30.3399 47.1519 25.1548C48.4607 20.0298 46.6693 13.2341 38.7641 7.10246L39.9899 5.52213ZM36.1028 36.0185C28.8696 36.0185 22.9627 27.9623 26.4323 18.4869L28.3104 19.1746C25.22 27.6143 30.5344 34.0185 36.1028 34.0185V36.0185ZM26.4323 18.4869C28.9012 11.7447 36.4797 7.31715 44.7443 5.84093C53.0442 4.35839 62.4348 5.76849 68.8348 11.1592L67.5464 12.6889C61.7334 7.79257 53.0064 6.3968 45.0959 7.80977C37.1501 9.22905 30.4255 13.3984 28.3104 19.1746L26.4323 18.4869ZM68.8348 11.1592C76.756 17.8311 79.5604 26.9818 78.9093 33.9896L76.9179 33.8046C77.5101 27.4302 74.9523 18.9269 67.5464 12.6889L68.8348 11.1592Z" fill="#FF6600"/>
</svg>
