<svg width="18" height="19" viewBox="0 0 18 19" fill="none" xmlns="http://www.w3.org/2000/svg">
<g clip-path="url(#clip0_1_439)">
<g clip-path="url(#clip1_1_439)">
<path d="M0 9.50023C2.96574e-09 7.72027 0.527812 5.98029 1.51669 4.5003C2.50557 3.02031 3.91111 1.86679 5.55557 1.18561C7.20003 0.504422 9.00955 0.326167 10.7553 0.673382C12.5011 1.0206 14.1047 1.87769 15.3633 3.13627C16.622 4.39486 17.4792 5.99841 17.8265 7.74415C18.1738 9.4899 17.9957 11.2994 17.3146 12.9439C16.6335 14.5884 15.48 15.994 14.0001 16.983C12.5202 17.972 10.7802 18.4999 9.00026 18.5C6.61413 18.4974 4.32648 17.5484 2.63918 15.8612C0.951889 14.174 0.00275026 11.8864 0 9.50023ZM1.89471 9.50023C1.89471 10.9056 2.31144 12.2794 3.09221 13.4479C3.87298 14.6164 4.98271 15.5271 6.28108 16.0649C7.57945 16.6027 9.00814 16.7434 10.3865 16.4693C11.7648 16.1951 13.0309 15.5183 14.0246 14.5246C15.0184 13.5309 15.6951 12.2648 15.9693 10.8865C16.2435 9.50812 16.1027 8.07943 15.5649 6.78106C15.0271 5.48269 14.1164 4.37295 12.9479 3.59218C11.7794 2.81142 10.4056 2.39468 9.00026 2.39468C7.11638 2.39675 5.31026 3.14603 3.97816 4.47813C2.64605 5.81023 1.89677 7.61636 1.89471 9.50023ZM11.7688 13.0517L11.68 12.9852L8.39034 10.226C8.20769 10.0723 8.08955 9.8555 8.0594 9.61868L8.05161 9.50023V5.0266C8.05101 4.78524 8.14254 4.55274 8.30752 4.37656C8.47249 4.20038 8.69848 4.09379 8.93936 4.07855C9.18024 4.0633 9.41787 4.14055 9.60374 4.29452C9.78961 4.4485 9.90972 4.6676 9.93956 4.90711L9.94736 5.0266V9.0576L12.8983 11.5337C13.0762 11.683 13.1931 11.8925 13.2267 12.1224C13.2603 12.3523 13.2083 12.5865 13.0806 12.7805L13.0152 12.8694C12.8659 13.0474 12.6564 13.1644 12.4266 13.1982C12.1968 13.232 11.9625 13.1802 11.7683 13.0527L11.7688 13.0517Z" fill="#333333"/>
<mask id="mask0_1_439" style="mask-type:luminance" maskUnits="userSpaceOnUse" x="0" y="0" width="18" height="19">
<path d="M0 9.50023C2.96574e-09 7.72027 0.527812 5.98029 1.51669 4.5003C2.50557 3.02031 3.91111 1.86679 5.55557 1.18561C7.20003 0.504422 9.00955 0.326167 10.7553 0.673382C12.5011 1.0206 14.1047 1.87769 15.3633 3.13627C16.622 4.39486 17.4792 5.99841 17.8265 7.74415C18.1738 9.4899 17.9957 11.2994 17.3146 12.9439C16.6335 14.5884 15.48 15.994 14.0001 16.983C12.5202 17.972 10.7802 18.4999 9.00026 18.5C6.61413 18.4974 4.32648 17.5484 2.63918 15.8612C0.951889 14.174 0.00275026 11.8864 0 9.50023ZM1.89471 9.50023C1.89471 10.9056 2.31144 12.2794 3.09221 13.4479C3.87298 14.6164 4.98271 15.5271 6.28108 16.0649C7.57945 16.6027 9.00814 16.7434 10.3865 16.4693C11.7648 16.1951 13.0309 15.5183 14.0246 14.5246C15.0184 13.5309 15.6951 12.2648 15.9693 10.8865C16.2435 9.50812 16.1027 8.07943 15.5649 6.78106C15.0271 5.48269 14.1164 4.37295 12.9479 3.59218C11.7794 2.81142 10.4056 2.39468 9.00026 2.39468C7.11638 2.39675 5.31026 3.14603 3.97816 4.47813C2.64605 5.81023 1.89677 7.61636 1.89471 9.50023ZM11.7688 13.0517L11.68 12.9852L8.39034 10.226C8.20769 10.0723 8.08955 9.8555 8.0594 9.61868L8.05161 9.50023V5.0266C8.05101 4.78524 8.14254 4.55274 8.30752 4.37656C8.47249 4.20038 8.69848 4.09379 8.93936 4.07855C9.18024 4.0633 9.41787 4.14055 9.60374 4.29452C9.78961 4.4485 9.90972 4.6676 9.93956 4.90711L9.94736 5.0266V9.0576L12.8983 11.5337C13.0762 11.683 13.1931 11.8925 13.2267 12.1224C13.2603 12.3523 13.2083 12.5865 13.0806 12.7805L13.0152 12.8694C12.8659 13.0474 12.6564 13.1644 12.4266 13.1982C12.1968 13.232 11.9625 13.1802 11.7683 13.0527L11.7688 13.0517Z" fill="white"/>
</mask>
<g mask="url(#mask0_1_439)">
<path d="M161.195 -136.952H-141.963V166.206H161.195V-136.952Z" fill="#333333"/>
</g>
</g>
</g>
<defs>
<clipPath id="clip0_1_439">
<rect width="18" height="18" fill="white" transform="translate(0 0.5)"/>
</clipPath>
<clipPath id="clip1_1_439">
<rect width="18" height="18" fill="white" transform="translate(0 0.5)"/>
</clipPath>
</defs>
</svg>
