<svg width="24" height="18" viewBox="0 0 24 18" fill="none" xmlns="http://www.w3.org/2000/svg">
<path d="M5 5.43427V5.0752C5 4.84313 5.09219 4.62057 5.25628 4.45648C5.42038 4.29238 5.64294 4.2002 5.875 4.2002H18.125C18.3571 4.2002 18.5796 4.29238 18.7437 4.45648C18.9078 4.62057 19 4.84313 19 5.0752V5.43427L12 9.80927L5 5.43427ZM12.2319 10.6963C12.1623 10.7397 12.082 10.7627 12 10.7627C11.918 10.7627 11.8377 10.7397 11.7681 10.6963L5 6.46612V13.8252C5 14.0573 5.09219 14.2798 5.25628 14.4439C5.42038 14.608 5.64294 14.7002 5.875 14.7002H18.125C18.3571 14.7002 18.5796 14.608 18.7437 14.4439C18.9078 14.2798 19 14.0573 19 13.8252V6.46612L12.2319 10.6963Z" fill="white"/>
</svg>
