<svg width="14" height="14" viewBox="0 0 14 14" fill="none" xmlns="http://www.w3.org/2000/svg">
<g clip-path="url(#clip0_1_101)">
<g clip-path="url(#clip1_1_101)">
<path d="M0 0V3.5H3.5V0H0ZM5.25 0V3.5H8.75V0H5.25ZM10.5 0V3.5H14V0H10.5ZM0 5.25V8.75H3.5V5.25H0ZM5.25 5.25V8.75H8.75V5.25H5.25ZM10.5 5.25V8.75H14V5.25H10.5ZM0 10.5V14H3.5V10.5H0ZM5.25 10.5V14H8.75V10.5H5.25ZM10.5 10.5V14H14V10.5H10.5Z" fill="#333333"/>
</g>
</g>
<defs>
<clipPath id="clip0_1_101">
<rect width="14" height="14" fill="white"/>
</clipPath>
<clipPath id="clip1_1_101">
<rect width="14" height="14" fill="white"/>
</clipPath>
</defs>
</svg>
