<svg width="14" height="15" viewBox="0 0 14 15" fill="none" xmlns="http://www.w3.org/2000/svg">
<g clip-path="url(#clip0_176_3354)">
<g clip-path="url(#clip1_176_3354)">
<path d="M0 0.5V4H3.5V0.5H0ZM5.25 0.5V4H8.75V0.5H5.25ZM10.5 0.5V4H14V0.5H10.5ZM0 5.75V9.25H3.5V5.75H0ZM5.25 5.75V9.25H8.75V5.75H5.25ZM10.5 5.75V9.25H14V5.75H10.5ZM0 11V14.5H3.5V11H0ZM5.25 11V14.5H8.75V11H5.25ZM10.5 11V14.5H14V11H10.5Z" fill="#3F79FF"/>
</g>
</g>
<defs>
<clipPath id="clip0_176_3354">
<rect width="14" height="14" fill="white" transform="translate(0 0.5)"/>
</clipPath>
<clipPath id="clip1_176_3354">
<rect width="14" height="14" fill="white" transform="translate(0 0.5)"/>
</clipPath>
</defs>
</svg>
