<svg width="24" height="24" viewBox="0 0 24 24" fill="none" xmlns="http://www.w3.org/2000/svg">
<path d="M12.8818 20.8729C14.7904 18.4843 19.1435 12.6951 19.1435 9.44329C19.1435 5.49949 15.9438 2.2998 12 2.2998C8.05619 2.2998 4.85651 5.49949 4.85651 9.44329C4.85651 12.6951 9.20957 18.4843 11.1182 20.8729C11.5758 21.4421 12.4241 21.4421 12.8818 20.8729ZM12 7.06213C12.6315 7.06213 13.2372 7.313 13.6837 7.75956C14.1303 8.20611 14.3812 8.81177 14.3812 9.44329C14.3812 10.0748 14.1303 10.6805 13.6837 11.127C13.2372 11.5736 12.6315 11.8245 12 11.8245C11.3685 11.8245 10.7628 11.5736 10.3163 11.127C9.8697 10.6805 9.61883 10.0748 9.61883 9.44329C9.61883 8.81177 9.8697 8.20611 10.3163 7.75956C10.7628 7.313 11.3685 7.06213 12 7.06213Z" fill="white"/>
</svg>
