<svg width="15" height="14" viewBox="0 0 15 14" fill="none" xmlns="http://www.w3.org/2000/svg">
<path d="M8.16807 13.65C9.5708 11.8945 12.77 7.63984 12.77 5.25C12.77 2.35156 10.4185 0 7.52002 0C4.62158 0 2.27002 2.35156 2.27002 5.25C2.27002 7.63984 5.46924 11.8945 6.87197 13.65C7.2083 14.0684 7.83174 14.0684 8.16807 13.65ZM7.52002 3.5C7.98415 3.5 8.42927 3.68437 8.75746 4.01256C9.08565 4.34075 9.27002 4.78587 9.27002 5.25C9.27002 5.71413 9.08565 6.15925 8.75746 6.48744C8.42927 6.81563 7.98415 7 7.52002 7C7.05589 7 6.61077 6.81563 6.28258 6.48744C5.95439 6.15925 5.77002 5.71413 5.77002 5.25C5.77002 4.78587 5.95439 4.34075 6.28258 4.01256C6.61077 3.68437 7.05589 3.5 7.52002 3.5Z" fill="#363636"/>
</svg>
