<svg width="24" height="24" viewBox="0 0 24 24" fill="none" xmlns="http://www.w3.org/2000/svg">
<path d="M17.8794 14.1858C17.0314 14.1876 16.1885 14.0537 15.3828 13.7891C15.1932 13.7277 14.9908 13.7169 14.7957 13.7578C14.6006 13.7988 14.4196 13.89 14.2707 14.0225L12.7152 15.2124C11.0324 14.371 9.66787 13.0065 8.82648 11.3237L9.97754 9.76822C10.1242 9.62143 10.2279 9.43725 10.2772 9.23569C10.3266 9.03413 10.3198 8.8229 10.2575 8.62494C9.99311 7.81921 9.8592 6.9764 9.86088 6.12839C9.86097 5.97697 9.83056 5.82708 9.77147 5.68766C9.71238 5.54824 9.62582 5.42215 9.51695 5.3169C9.40807 5.21166 9.27912 5.12942 9.13778 5.07509C8.99644 5.02076 8.8456 4.99545 8.69427 5.00067H6.11995C5.82355 5.00271 5.53987 5.12136 5.33028 5.33095C5.12069 5.54054 5.00204 5.82422 5 6.12062C5.00206 9.53581 6.35965 12.8105 8.77456 15.2254C11.1895 17.6403 14.4642 18.9979 17.8794 19C18.1758 18.998 18.4595 18.8793 18.6691 18.6697C18.8786 18.4601 18.9973 18.1765 18.9993 17.8801V15.3135C18.9993 15.0158 18.8816 14.7301 18.6718 14.5188C18.462 14.3076 18.1771 14.1878 17.8794 14.1858Z" fill="white"/>
</svg>
