<svg width="12" height="12" viewBox="0 0 12 12" fill="none" xmlns="http://www.w3.org/2000/svg">
<path fill-rule="evenodd" clip-rule="evenodd" d="M10.75 8.208C10.56 8.058 10.328 7.963 10.124 7.868C9.45602 7.595 8.77402 7.418 8.18902 7.281C7.98402 7.241 7.69802 7.159 7.41202 7.268C7.19402 7.349 7.05702 7.513 6.93502 7.663C6.89402 7.717 6.83902 7.773 6.79802 7.826C6.68802 7.936 6.39002 7.881 6.02202 7.676C5.59902 7.458 5.09502 7.063 4.61802 6.586C4.14102 6.109 3.74502 5.606 3.52702 5.182C3.32302 4.814 3.26702 4.514 3.37702 4.405C3.41702 4.365 3.47302 4.325 3.54102 4.269C3.69102 4.146 3.85402 4.01 3.93602 3.792C4.04502 3.506 3.96302 3.206 3.92302 3.015C3.78602 2.429 3.60902 1.748 3.33602 1.08C3.25502 0.862 3.14602 0.644 2.99602 0.453C2.80502 0.221 2.57302 0.0569998 2.31402 0.0169998C1.96002 -0.0520002 1.56402 0.0849998 1.16902 0.425C0.869021 0.685 0.611022 0.998 0.419021 1.366C0.229021 1.734 0.0930215 2.102 0.0380215 2.497C-0.0979785 3.424 0.134021 4.447 0.760021 5.632C1.29202 6.654 1.97402 7.582 2.77802 8.412V8.426C3.59502 9.23 4.53602 9.912 5.54402 10.443C6.51202 10.948 7.37102 11.207 8.16102 11.207C8.33902 11.207 8.51602 11.193 8.67902 11.167C9.07502 11.111 9.45602 10.975 9.81102 10.784C10.165 10.594 10.478 10.334 10.751 10.034C11.091 9.654 11.228 9.257 11.16 8.889C11.146 8.631 10.983 8.384 10.75 8.208Z" fill="#C6C5C4"/>
</svg>
