<svg width="48" height="48" viewBox="0 0 48 48" fill="none" xmlns="http://www.w3.org/2000/svg">
<rect width="48" height="48" rx="6" fill="#000479" fill-opacity="0.06"/>
<g clip-path="url(#clip0_34_8)">
<path d="M26.5484 13.3153C26.6473 13.3153 26.7439 13.286 26.8262 13.231C26.9084 13.1761 26.9725 13.098 27.0103 13.0066C27.0482 12.9153 27.0581 12.8147 27.0388 12.7177C27.0195 12.6208 26.9718 12.5317 26.9019 12.4617C26.832 12.3918 26.7429 12.3442 26.6459 12.3249C26.5489 12.3056 26.4484 12.3155 26.357 12.3533C26.2657 12.3912 26.1876 12.4553 26.1326 12.5375C26.0777 12.6197 26.0484 12.7164 26.0484 12.8153C26.0485 12.9478 26.1012 13.0749 26.195 13.1687C26.2887 13.2624 26.4158 13.3151 26.5484 13.3153ZM26.5484 12.5653C26.5978 12.5653 26.6462 12.5799 26.6873 12.6074C26.7284 12.6349 26.7604 12.6739 26.7793 12.7196C26.7983 12.7653 26.8032 12.8156 26.7936 12.8641C26.7839 12.9126 26.7601 12.9571 26.7251 12.9921C26.6902 13.027 26.6456 13.0508 26.5971 13.0605C26.5486 13.0701 26.4984 13.0652 26.4527 13.0463C26.407 13.0273 26.368 12.9953 26.3405 12.9542C26.313 12.9131 26.2984 12.8647 26.2984 12.8153C26.2984 12.749 26.3248 12.6855 26.3717 12.6386C26.4185 12.5917 26.4821 12.5654 26.5484 12.5653ZM36.0508 19.5292C35.9848 19.5292 35.9204 19.5487 35.8656 19.5854C35.8108 19.622 35.768 19.674 35.7428 19.7349C35.7176 19.7959 35.711 19.8629 35.7238 19.9275C35.7367 19.9922 35.7685 20.0516 35.8151 20.0982C35.8617 20.1448 35.9211 20.1766 35.9857 20.1894C36.0504 20.2023 36.1174 20.1957 36.1783 20.1705C36.2392 20.1452 36.2913 20.1025 36.3279 20.0477C36.3646 19.9929 36.3841 19.9284 36.3841 19.8625C36.384 19.7741 36.3489 19.6894 36.2864 19.6269C36.2239 19.5644 36.1391 19.5293 36.0508 19.5292ZM36.0508 20.0292C36.0178 20.0292 35.9856 20.0194 35.9582 20.0011C35.9308 19.9828 35.9094 19.9567 35.8968 19.9263C35.8842 19.8958 35.8809 19.8623 35.8873 19.83C35.8937 19.7977 35.9096 19.768 35.9329 19.7447C35.9562 19.7213 35.9859 19.7055 36.0183 19.699C36.0506 19.6926 36.0841 19.6959 36.1146 19.7085C36.145 19.7211 36.171 19.7425 36.1894 19.7699C36.2077 19.7973 36.2174 19.8295 36.2174 19.8625C36.2174 19.9067 36.1998 19.9491 36.1686 19.9803C36.1373 20.0116 36.095 20.0291 36.0508 20.0292ZM14.3345 10.8986C14.2685 10.8986 14.2041 10.9182 14.1493 10.9548C14.0945 10.9914 14.0517 11.0435 14.0265 11.1044C14.0013 11.1653 13.9947 11.2323 14.0075 11.297C14.0204 11.3616 14.0521 11.421 14.0988 11.4677C14.1454 11.5143 14.2048 11.546 14.2694 11.5589C14.3341 11.5717 14.4011 11.5651 14.462 11.5399C14.5229 11.5147 14.575 11.472 14.6116 11.4171C14.6482 11.3623 14.6678 11.2979 14.6678 11.232C14.6677 11.1436 14.6325 11.0589 14.5701 10.9964C14.5076 10.9339 14.4228 10.8987 14.3345 10.8986ZM14.3345 11.3986C14.3015 11.3986 14.2693 11.3888 14.2419 11.3705C14.2145 11.3522 14.1931 11.3262 14.1805 11.2957C14.1679 11.2653 14.1646 11.2318 14.171 11.1994C14.1774 11.1671 14.1933 11.1374 14.2166 11.1141C14.2399 11.0908 14.2696 11.0749 14.3019 11.0685C14.3343 11.0621 14.3678 11.0654 14.3982 11.078C14.4287 11.0906 14.4547 11.112 14.473 11.1394C14.4914 11.1668 14.5011 11.199 14.5011 11.232C14.5011 11.2761 14.4835 11.3185 14.4523 11.3498C14.421 11.381 14.3787 11.3986 14.3345 11.3986ZM31.5417 11.3986C31.4757 11.3986 31.4113 11.4182 31.3565 11.4548C31.3017 11.4914 31.2589 11.5435 31.2337 11.6044C31.2085 11.6653 31.2019 11.7323 31.2147 11.797C31.2276 11.8616 31.2594 11.921 31.306 11.9677C31.3526 12.0143 31.412 12.046 31.4766 12.0589C31.5413 12.0717 31.6083 12.0651 31.6692 12.0399C31.7301 12.0147 31.7822 11.972 31.8188 11.9171C31.8555 11.8623 31.875 11.7979 31.875 11.732C31.8749 11.6436 31.8398 11.5589 31.7773 11.4964C31.7148 11.4339 31.6301 11.3987 31.5417 11.3986ZM31.5417 11.8986C31.5087 11.8986 31.4765 11.8888 31.4491 11.8705C31.4217 11.8522 31.4003 11.8262 31.3877 11.7957C31.3751 11.7653 31.3718 11.7318 31.3782 11.6994C31.3846 11.6671 31.4005 11.6374 31.4238 11.6141C31.4471 11.5908 31.4768 11.5749 31.5092 11.5685C31.5415 11.5621 31.575 11.5654 31.6055 11.578C31.6359 11.5906 31.6619 11.612 31.6803 11.6394C31.6986 11.6668 31.7083 11.699 31.7083 11.732C31.7083 11.7761 31.6907 11.8185 31.6595 11.8498C31.6282 11.881 31.5859 11.8986 31.5417 11.8986ZM15.7778 20.0292C15.7778 19.9632 15.7582 19.8988 15.7216 19.844C15.685 19.7892 15.6329 19.7464 15.572 19.7212C15.5111 19.696 15.4441 19.6894 15.3794 19.7022C15.3147 19.7151 15.2553 19.7469 15.2087 19.7935C15.1621 19.8401 15.1304 19.8995 15.1175 19.9641C15.1046 20.0288 15.1112 20.0958 15.1365 20.1567C15.1617 20.2176 15.2044 20.2697 15.2592 20.3063C15.3141 20.343 15.3785 20.3625 15.4444 20.3625C15.5328 20.3624 15.6175 20.3273 15.68 20.2648C15.7425 20.2023 15.7777 20.1175 15.7778 20.0292ZM15.2778 20.0292C15.2778 19.9962 15.2875 19.964 15.3059 19.9366C15.3242 19.9092 15.3502 19.8878 15.3807 19.8752C15.4111 19.8626 15.4446 19.8593 15.4769 19.8657C15.5093 19.8721 15.539 19.888 15.5623 19.9113C15.5856 19.9346 15.6015 19.9643 15.6079 19.9967C15.6143 20.029 15.611 20.0625 15.5984 20.093C15.5858 20.1234 15.5644 20.1494 15.537 20.1678C15.5096 20.1861 15.4774 20.1958 15.4444 20.1958C15.4002 20.1958 15.3579 20.1782 15.3266 20.147C15.2954 20.1157 15.2778 20.0734 15.2778 20.0292Z" fill="#0C3461"/>
<path d="M11.6525 16.154L11.9003 15.8282L11.7438 15.7395L11.5848 16.1045H11.5795L11.418 15.742L11.2587 15.8333L11.504 16.1515V16.1567L11.1205 16.1072V16.2845L11.5065 16.235V16.2402L11.2587 16.5582L11.4073 16.6522L11.577 16.2845H11.582L11.7385 16.6495L11.9028 16.5557L11.6525 16.2427V16.2375L12.0462 16.2845V16.1072L11.6525 16.1593V16.154Z" fill="#0B67CE"/>
<path d="M17.9557 13.9297L17.813 14.1128L17.8987 14.167L17.9963 13.9552H17.9993L18.0893 14.1655L18.184 14.1113L18.0398 13.9312V13.9282L18.2665 13.9552V13.8532L18.0398 13.8832V13.8802L18.1825 13.6925L18.0925 13.6413L18.0008 13.8515H17.9978L17.9048 13.6428L17.813 13.6955L17.9543 13.8787V13.8817L17.7335 13.8532V13.9552L17.9557 13.9267V13.9297Z" fill="#0B67CE"/>
<path d="M36.639 12.8408L36.4963 13.024L36.5818 13.078L36.6795 12.8663H36.6825L36.7727 13.0765L36.8673 13.0225L36.7232 12.8423V12.8393L36.9498 12.8663V12.7642L36.7232 12.7942V12.7912L36.8658 12.6035L36.7757 12.5525L36.684 12.7627H36.681L36.588 12.554L36.4963 12.6065L36.6375 12.7898V12.7928L36.4167 12.7642V12.8663L36.639 12.8378V12.8408Z" fill="#0B67CE"/>
<path d="M32.337 17.342V17.168L31.9508 17.2192V17.214L32.1938 16.8943L32.0403 16.8075L31.8843 17.1655H31.8792L31.7207 16.8098L31.5645 16.8995L31.805 17.2115V17.2167L31.4288 17.168V17.342L31.8075 17.2933V17.2985L31.5645 17.6105L31.7103 17.7027L31.8767 17.342H31.8817L32.0352 17.7L32.1963 17.608L31.9508 17.301V17.2958L32.337 17.342Z" fill="#0B67CE"/>
<path d="M22.0343 10.7855L22.244 10.5097L22.1115 10.4347L21.977 10.7435H21.9725L21.8358 10.4368L21.701 10.5142L21.9085 10.7833V10.7877L21.5842 10.7458V10.8958L21.9107 10.854V10.8583L21.701 11.1275L21.8268 11.207L21.9703 10.8958H21.9747L22.107 11.2047L22.2462 11.1253L22.0343 10.8605V10.8562L22.3673 10.8958V10.7458L22.0343 10.7898V10.7855Z" fill="#0B67CE"/>
<path d="M21.771 16.5444C21.8151 16.5444 21.8588 16.5357 21.8995 16.5187C21.9401 16.5018 21.977 16.4769 22.008 16.4455C22.3776 16.072 23.1893 15.4961 24.4698 15.8328C24.5552 15.8553 24.6462 15.8429 24.7225 15.7983C24.7989 15.7538 24.8544 15.6807 24.8769 15.5952C24.8994 15.5097 24.887 15.4188 24.8424 15.3425C24.7979 15.2661 24.7248 15.2106 24.6394 15.1881C24.0988 15.027 23.5247 15.0153 22.978 15.1541C22.4313 15.293 21.9323 15.5772 21.534 15.9766C21.4878 16.0233 21.4564 16.0827 21.4438 16.1473C21.4312 16.2119 21.438 16.2787 21.4634 16.3394C21.4887 16.4001 21.5314 16.452 21.5862 16.4885C21.6409 16.5249 21.7052 16.5444 21.771 16.5444Z" fill="#0B67CE"/>
<path d="M10.3333 35.232C10.5174 35.232 10.6667 35.0828 10.6667 34.8987C10.6667 34.7146 10.5174 34.5653 10.3333 34.5653C10.1492 34.5653 10 34.7146 10 34.8987C10 35.0828 10.1492 35.232 10.3333 35.232Z" fill="#0C3461"/>
<path d="M11.8333 34.5653H11.3333C11.2449 34.5653 11.1601 34.6004 11.0976 34.6629C11.0351 34.7254 11 34.8102 11 34.8986C11 34.987 11.0351 35.0718 11.0976 35.1343C11.1601 35.1968 11.2449 35.2319 11.3333 35.2319H11.8333C11.9217 35.2319 12.0065 35.1968 12.069 35.1343C12.1316 35.0718 12.1667 34.987 12.1667 34.8986C12.1667 34.8102 12.1316 34.7254 12.069 34.6629C12.0065 34.6004 11.9217 34.5653 11.8333 34.5653ZM36.6667 34.5653H36.1667C36.0783 34.5653 35.9935 34.6004 35.931 34.6629C35.8685 34.7254 35.8333 34.8102 35.8333 34.8986C35.8333 34.987 35.8685 35.0718 35.931 35.1343C35.9935 35.1968 36.0783 35.2319 36.1667 35.2319H36.6667C36.7551 35.2319 36.8399 35.1968 36.9024 35.1343C36.9649 35.0718 37 34.987 37 34.8986C37 34.8102 36.9649 34.7254 36.9024 34.6629C36.8399 34.6004 36.7551 34.5653 36.6667 34.5653Z" fill="#0C3461"/>
<path d="M37.6667 35.232C37.8508 35.232 38 35.0828 38 34.8987C38 34.7146 37.8508 34.5653 37.6667 34.5653C37.4826 34.5653 37.3333 34.7146 37.3333 34.8987C37.3333 35.0828 37.4826 35.232 37.6667 35.232Z" fill="#0C3461"/>
<path fill-rule="evenodd" clip-rule="evenodd" d="M10.9916 34.5568C11.0822 34.4662 11.2052 34.4153 11.3333 34.4153H11.8333C11.9615 34.4153 12.0845 34.4662 12.1751 34.5568C12.2658 34.6475 12.3167 34.7704 12.3167 34.8986C12.3167 35.0268 12.2658 35.1497 12.1751 35.2404C12.0845 35.331 11.9615 35.3819 11.8333 35.3819H11.3333C11.2052 35.3819 11.0822 35.331 10.9916 35.2404C10.9009 35.1497 10.85 35.0268 10.85 34.8986C10.85 34.7704 10.9009 34.6475 10.9916 34.5568ZM11.3333 34.7153C11.2847 34.7153 11.2381 34.7346 11.2037 34.769C11.1693 34.8034 11.15 34.85 11.15 34.8986C11.15 34.9472 11.1693 34.9939 11.2037 35.0283C11.2381 35.0626 11.2847 35.0819 11.3333 35.0819H11.8333C11.882 35.0819 11.9286 35.0626 11.963 35.0283C11.9974 34.9939 12.0167 34.9472 12.0167 34.8986C12.0167 34.85 11.9974 34.8034 11.963 34.769C11.9286 34.7346 11.882 34.7153 11.8333 34.7153H11.3333ZM35.8249 34.5568C35.9155 34.4662 36.0385 34.4153 36.1667 34.4153H36.6667C36.7949 34.4153 36.9178 34.4662 37.0084 34.5568C37.0991 34.6475 37.15 34.7704 37.15 34.8986C37.15 35.0268 37.0991 35.1497 37.0084 35.2404C36.9178 35.331 36.7949 35.3819 36.6667 35.3819H36.1667C36.0385 35.3819 35.9155 35.331 35.8249 35.2404C35.7343 35.1497 35.6833 35.0268 35.6833 34.8986C35.6833 34.7704 35.7343 34.6475 35.8249 34.5568ZM36.1667 34.7153C36.118 34.7153 36.0714 34.7346 36.037 34.769C36.0027 34.8034 35.9833 34.85 35.9833 34.8986C35.9833 34.9472 36.0027 34.9939 36.037 35.0283C36.0714 35.0626 36.118 35.0819 36.1667 35.0819H36.6667C36.7153 35.0819 36.7619 35.0626 36.7963 35.0283C36.8307 34.9939 36.85 34.9472 36.85 34.8986C36.85 34.85 36.8307 34.8034 36.7963 34.769C36.7619 34.7346 36.7153 34.7153 36.6667 34.7153H36.1667ZM10.3333 34.7153C10.2321 34.7153 10.15 34.7974 10.15 34.8987C10.15 34.9999 10.2321 35.082 10.3333 35.082C10.4346 35.082 10.5167 34.9999 10.5167 34.8987C10.5167 34.7974 10.4346 34.7153 10.3333 34.7153ZM9.85001 34.8987C9.85001 34.6317 10.0664 34.4153 10.3333 34.4153C10.6003 34.4153 10.8167 34.6317 10.8167 34.8987C10.8167 35.1656 10.6003 35.382 10.3333 35.382C10.0664 35.382 9.85001 35.1656 9.85001 34.8987ZM37.6667 34.7153C37.5654 34.7153 37.4833 34.7974 37.4833 34.8987C37.4833 34.9999 37.5654 35.082 37.6667 35.082C37.7679 35.082 37.85 34.9999 37.85 34.8987C37.85 34.7974 37.7679 34.7153 37.6667 34.7153ZM37.1833 34.8987C37.1833 34.6317 37.3997 34.4153 37.6667 34.4153C37.9336 34.4153 38.15 34.6317 38.15 34.8987C38.15 35.1656 37.9336 35.382 37.6667 35.382C37.3997 35.382 37.1833 35.1656 37.1833 34.8987Z" fill="#0C3461"/>
<path d="M35.1202 34.5653H34.2045C34.4225 34.3035 34.5571 33.9825 34.591 33.6435C34.694 32.3349 34.6887 31.0201 34.5751 29.7124C34.3428 26.0919 28.7253 25.3342 28.5027 25.3063C27.6284 25.1501 27.2199 24.4454 27.0317 23.9015C27.8633 22.8854 28.468 21.7031 28.8052 20.434C28.9436 19.9336 29.0143 19.4168 29.0154 18.8975C29.0154 18.7546 29.0079 18.6134 28.996 18.4735C29.5782 17.5023 29.5619 16.3294 29.4004 15.6398C29.3501 15.4254 29.2443 14.9808 28.8827 15.0148C28.0925 15.0924 26.5096 14.5726 25.9605 14.364C22.5786 12.9862 20.5816 15.0613 20.1904 15.5252C17.9986 16.3496 19.111 20.4744 19.1601 20.6522C19.1744 20.702 19.2001 20.7479 19.2352 20.786C19.5393 22.0105 20.1163 23.1503 20.9231 24.1203C20.7057 24.6194 20.3012 25.1705 19.5564 25.3038C19.3177 25.3342 13.7142 26.0897 13.4687 29.6983C13.3024 31.0099 13.288 32.3363 13.4258 33.6512C13.4648 33.9885 13.6031 34.3066 13.8231 34.5653H12.8798C12.8324 34.5591 12.7842 34.5631 12.7384 34.577C12.6927 34.5909 12.6504 34.6144 12.6145 34.646C12.5785 34.6775 12.5497 34.7164 12.53 34.76C12.5103 34.8035 12.5001 34.8508 12.5001 34.8986C12.5001 34.9464 12.5103 34.9937 12.53 35.0373C12.5497 35.0809 12.5785 35.1197 12.6145 35.1513C12.6504 35.1828 12.6927 35.2063 12.7384 35.2202C12.7842 35.2342 12.8324 35.2382 12.8798 35.232H35.1202C35.1676 35.2382 35.2158 35.2342 35.2616 35.2202C35.3073 35.2063 35.3496 35.1828 35.3855 35.1513C35.4215 35.1197 35.4503 35.0809 35.47 35.0373C35.4897 34.9937 35.4999 34.9464 35.4999 34.8986C35.4999 34.8508 35.4897 34.8035 35.47 34.76C35.4503 34.7164 35.4215 34.6775 35.3855 34.646C35.3496 34.6144 35.3073 34.5909 35.2616 34.577C35.2158 34.5631 35.1676 34.5591 35.1202 34.5653ZM24.0834 27.4656C24.1563 27.5955 24.6627 28.431 24.6627 28.431L23.508 28.4289C23.508 28.4289 24.0428 27.5642 24.0834 27.4656ZM23.8505 26.1822L22.9178 25.4038C23.2466 25.4951 23.5863 25.5416 23.9276 25.542C24.4909 25.5423 25.0463 25.4093 25.5484 25.1539L24.3162 26.1822C24.3035 26.1928 24.2916 26.2044 24.2806 26.2168C24.2507 26.2526 24.223 26.2904 24.1979 26.3297H23.9688C23.9437 26.2904 23.916 26.2526 23.8861 26.2168C23.8751 26.2044 23.8632 26.1928 23.8505 26.1822ZM23.9234 29.0957H24.2525L24.8652 32.9287C24.7145 33.4612 24.6373 34.0118 24.6356 34.5652H23.6875V34.5497C23.6865 33.9493 23.5966 33.3522 23.4207 32.7781L23.9234 29.0957ZM30.1285 26.3604C31.6977 26.8417 33.787 27.8407 33.9106 29.7657C34.0192 31.0353 34.0248 32.3117 33.9273 33.5822C33.8926 33.8499 33.7631 34.0963 33.5622 34.2766C33.3614 34.457 33.1025 34.5594 32.8327 34.5652H25.3025C25.3069 33.3849 25.6941 32.2378 26.406 31.2963L30.0776 26.461C30.1002 26.4306 30.1174 26.3966 30.1285 26.3604ZM29.4575 26.1752L25.8751 30.8931C25.6769 31.1543 25.5003 31.4313 25.3472 31.7212L24.9224 29.0639C24.9546 29.0497 24.9844 29.0305 25.0106 29.0069C25.0106 29.0069 25.0572 29.0812 25.0682 29.0941C25.1529 29.2021 25.2628 29.2877 25.3884 29.3433C25.5139 29.3989 25.6511 29.4229 25.788 29.4132C25.9175 29.3846 26.039 29.3278 26.1439 29.2467C26.2488 29.1655 26.3344 29.0622 26.3946 28.9441L28.4704 25.975C28.616 25.9971 28.9812 26.058 29.4575 26.1752ZM27.7265 25.8755C27.7265 25.8755 25.8156 28.6191 25.8036 28.6346C25.7921 28.6555 25.7753 28.6731 25.755 28.6856C25.7346 28.6981 25.7113 28.7051 25.6874 28.7059C25.6636 28.7068 25.6399 28.7014 25.6187 28.6903C25.5975 28.6793 25.5796 28.6629 25.5666 28.6428C25.5666 28.6428 24.7806 27.3497 24.7697 27.3367C24.6964 27.2424 24.6562 27.1266 24.6554 27.0071C24.6546 26.8877 24.6931 26.7713 24.7651 26.6759L26.7434 25.025L27.7265 25.8755ZM20.4903 16.1267C20.558 16.1051 20.6171 16.0625 20.6591 16.005C21.029 15.55 21.4966 15.184 22.0271 14.9341C22.5576 14.6842 23.1376 14.5567 23.724 14.5612C24.408 14.5709 25.0836 14.7141 25.7126 14.9829L25.7198 14.9858C25.8002 15.0164 27.5804 15.6888 28.7177 15.6888H28.7244C28.889 16.34 28.8642 17.0245 28.6531 17.6621C28.5316 18.0117 28.3323 18.3291 28.0703 18.5905C27.8082 18.8518 27.4902 19.0502 27.1403 19.1707C27.1115 19.1816 24.2383 20.2286 22.3732 18.5337C22.3281 18.4928 22.2727 18.465 22.2129 18.4533C22.1532 18.4416 22.0914 18.4465 22.0342 18.4675C21.9771 18.4885 21.9267 18.5247 21.8887 18.5722C21.8507 18.6198 21.8264 18.6768 21.8185 18.7372L21.7028 19.6223L20.9932 19.1486C20.9327 19.1083 20.8607 19.0888 20.7881 19.0932C20.7156 19.0976 20.6464 19.1255 20.5912 19.1728L19.686 19.9489C19.4793 18.8846 19.1855 16.5408 20.4903 16.1267ZM19.8895 20.6525L20.8332 19.8435C20.8332 19.8435 21.5398 20.315 21.5417 20.3163C21.8784 20.541 22.3173 20.3915 22.3326 19.9473L22.4038 19.4037C22.9872 19.7896 23.6515 20.0361 24.3455 20.1242C24.9326 20.1996 25.5275 20.192 26.1126 20.1016C26.8823 19.9882 27.6602 19.7784 28.2803 19.288C28.289 19.2811 28.3357 19.2526 28.3365 19.2426C28.3121 19.5858 28.2538 19.9259 28.1624 20.2577C27.7133 21.8953 26.8418 23.3394 25.7712 24.2195C24.5076 25.2591 22.6121 25.0388 21.4557 23.7184C20.7071 22.829 20.1714 21.7804 19.8895 20.6525ZM21.4234 25.025L23.4016 26.6759C23.4736 26.7713 23.5121 26.8877 23.5113 27.0071C23.5105 27.1266 23.4703 27.2424 23.397 27.3368C23.3861 27.3497 22.4799 28.7547 22.4624 28.7517C22.443 28.7491 20.4402 25.8755 20.4402 25.8755L21.4234 25.025ZM19.6572 25.9626C19.667 25.9609 19.676 25.9582 19.6858 25.9564C19.6894 25.9623 19.6919 25.9688 19.6959 25.9745L21.7721 28.944C21.8258 29.0659 21.909 29.1725 22.0141 29.2543C22.1192 29.336 22.243 29.3904 22.3743 29.4126C22.4046 29.4166 22.4351 29.4187 22.4656 29.4187C22.5885 29.4144 22.7089 29.3831 22.8183 29.327C22.9277 29.2709 23.0234 29.1914 23.0985 29.0942C23.1059 29.085 23.1127 29.0755 23.1189 29.0657C23.1602 29.0846 23.2049 29.0948 23.2502 29.0957L22.9116 31.5794C22.7815 31.3449 22.6359 31.1194 22.4759 30.9044L18.8408 26.1163C19.319 26.0087 19.6404 25.9649 19.6572 25.9626ZM14.13 29.7835C14.1315 29.7742 14.1324 29.7646 14.1331 29.755C14.2617 27.7482 16.5487 26.7494 18.1395 26.2951L21.9433 31.3055C22.6408 32.2436 23.0185 33.3808 23.0209 34.5497V34.5652H15.21C14.9369 34.5598 14.6746 34.458 14.4693 34.2778C14.2641 34.0976 14.1292 33.8506 14.0885 33.5805C13.9585 32.3174 13.9724 31.0435 14.13 29.7835Z" fill="#0C3461"/>
</g>
<defs>
<clipPath id="clip0_34_8">
<rect width="28" height="28" fill="white" transform="translate(10 10)"/>
</clipPath>
</defs>
</svg>
