<svg width="31" height="29" viewBox="0 0 31 29" fill="none" xmlns="http://www.w3.org/2000/svg">
<path d="M17.8292 28.7888V14.9068C17.8292 10.9938 18.6056 7.79503 20.1584 5.31056C21.7733 2.76398 23.823 0.993791 26.3075 0L28.7298 5.86957C27.3012 6.42857 26.1832 7.39131 25.3758 8.75777C24.6304 10.0621 24.2578 12.0497 24.2578 14.7205H30.5V28.7888H17.8292ZM0.5 28.7888V14.9068C0.5 10.9938 1.2764 7.79503 2.82919 5.31056C4.4441 2.76398 6.49379 0.993791 8.97826 0L11.4006 5.86957C9.97205 6.42857 8.85404 7.39131 8.04658 8.75777C7.30124 10.0621 6.92857 12.0497 6.92857 14.7205H13.1708V28.7888H0.5Z" fill="#F39C33"/>
</svg>
