<svg width="132" height="31" viewBox="0 0 132 31" fill="none" xmlns="http://www.w3.org/2000/svg">
<path d="M19.2838 12.697L13.333 11.8321L10.6728 6.43917C10.6002 6.29151 10.4806 6.17198 10.333 6.09933C9.96267 5.91651 9.51267 6.06886 9.32751 6.43917L6.66735 11.8321L0.716572 12.697C0.55251 12.7204 0.40251 12.7978 0.287666 12.9149C0.148826 13.0577 0.0723193 13.2496 0.0749561 13.4487C0.0775929 13.6478 0.159158 13.8377 0.301728 13.9767L4.6072 18.1743L3.59001 24.1017C3.56616 24.2396 3.58141 24.3814 3.63405 24.511C3.68669 24.6407 3.77461 24.753 3.88783 24.8352C4.00105 24.9174 4.13504 24.9663 4.27462 24.9763C4.41419 24.9862 4.55377 24.9568 4.67751 24.8915L10.0002 22.0931L15.3228 24.8915C15.4681 24.9689 15.6369 24.9946 15.7986 24.9665C16.2064 24.8962 16.4806 24.5095 16.4103 24.1017L15.3931 18.1743L19.6986 13.9767C19.8158 13.8618 19.8931 13.7118 19.9166 13.5478C19.9799 13.1376 19.6939 12.7579 19.2838 12.697Z" fill="#FADB14"/>
<path d="M47.2838 12.697L41.333 11.8321L38.6728 6.43917C38.6002 6.29151 38.4806 6.17198 38.333 6.09933C37.9627 5.91651 37.5127 6.06886 37.3275 6.43917L34.6674 11.8321L28.7166 12.697C28.5525 12.7204 28.4025 12.7978 28.2877 12.9149C28.1488 13.0577 28.0723 13.2496 28.075 13.4487C28.0776 13.6478 28.1592 13.8377 28.3017 13.9767L32.6072 18.1743L31.59 24.1017C31.5662 24.2396 31.5814 24.3814 31.6341 24.511C31.6867 24.6407 31.7746 24.753 31.8878 24.8352C32.001 24.9174 32.135 24.9663 32.2746 24.9763C32.4142 24.9862 32.5538 24.9568 32.6775 24.8915L38.0002 22.0931L43.3228 24.8915C43.4681 24.9689 43.6369 24.9946 43.7986 24.9665C44.2064 24.8962 44.4806 24.5095 44.4103 24.1017L43.3931 18.1743L47.6986 13.9767C47.8158 13.8618 47.8931 13.7118 47.9166 13.5478C47.9799 13.1376 47.6939 12.7579 47.2838 12.697Z" fill="#FADB14"/>
<path d="M75.2836 12.697L69.3328 11.8321L66.6726 6.43917C66.6 6.29151 66.4805 6.17198 66.3328 6.09933C65.9625 5.91651 65.5125 6.06886 65.3273 6.43917L62.6672 11.8321L56.7164 12.697C56.5523 12.7204 56.4023 12.7978 56.2875 12.9149C56.1486 13.0577 56.0721 13.2496 56.0748 13.4487C56.0774 13.6478 56.159 13.8377 56.3015 13.9767L60.607 18.1743L59.5898 24.1017C59.566 24.2396 59.5812 24.3814 59.6339 24.511C59.6865 24.6407 59.7744 24.753 59.8876 24.8352C60.0009 24.9174 60.1349 24.9663 60.2744 24.9763C60.414 24.9862 60.5536 24.9568 60.6773 24.8915L66 22.0931L71.3226 24.8915C71.468 24.9689 71.6367 24.9946 71.7984 24.9665C72.2062 24.8962 72.4805 24.5095 72.4101 24.1017L71.393 18.1743L75.6984 13.9767C75.8156 13.8618 75.893 13.7118 75.9164 13.5478C75.9797 13.1376 75.6937 12.7579 75.2836 12.697Z" fill="#FADB14"/>
<path d="M103.284 12.6969L97.333 11.8321L94.6728 6.43911C94.6002 6.29145 94.4806 6.17192 94.333 6.09926C93.9627 5.91645 93.5127 6.0688 93.3275 6.43911L90.6674 11.8321L84.7166 12.6969C84.5525 12.7204 84.4025 12.7977 84.2877 12.9149C84.1488 13.0576 84.0723 13.2496 84.075 13.4487C84.0776 13.6477 84.1592 13.8376 84.3017 13.9766L88.6072 18.1743L87.59 24.1016C87.5662 24.2395 87.5814 24.3813 87.6341 24.511C87.6867 24.6406 87.7746 24.7529 87.8878 24.8351C88.001 24.9174 88.135 24.9662 88.2746 24.9762C88.4142 24.9861 88.5538 24.9568 88.6775 24.8915L94.0002 22.093L99.3228 24.8915C99.4681 24.9688 99.6369 24.9946 99.7986 24.9665C100.206 24.8961 100.481 24.5094 100.41 24.1016L99.3931 18.1743L103.699 13.9766C103.816 13.8618 103.893 13.7118 103.917 13.5477C103.98 13.1375 103.694 12.7579 103.284 12.6969Z" fill="#FADB14"/>
<mask id="mask0_35_1176" style="mask-type:alpha" maskUnits="userSpaceOnUse" x="112" y="6" width="20" height="19">
<path d="M131.284 12.697L125.333 11.8321L122.673 6.43917C122.6 6.29151 122.48 6.17198 122.333 6.09933C121.962 5.91651 121.512 6.06886 121.327 6.43917L118.667 11.8321L112.716 12.697C112.552 12.7204 112.402 12.7978 112.287 12.9149C112.149 13.0577 112.072 13.2496 112.075 13.4487C112.077 13.6478 112.159 13.8377 112.302 13.9767L116.607 18.1743L115.59 24.1017C115.566 24.2396 115.581 24.3814 115.634 24.511C115.687 24.6407 115.774 24.753 115.888 24.8352C116.001 24.9174 116.135 24.9663 116.274 24.9763C116.414 24.9862 116.554 24.9568 116.677 24.8915L122 22.0931L127.323 24.8915C127.468 24.9689 127.637 24.9946 127.798 24.9665C128.206 24.8962 128.48 24.5095 128.41 24.1017L127.393 18.1743L131.698 13.9767C131.816 13.8618 131.893 13.7118 131.916 13.5478C131.98 13.1376 131.694 12.7579 131.284 12.697Z" fill="#C4C4C4"/>
</mask>
<g mask="url(#mask0_35_1176)">
<path d="M122 0H134V31H122V0Z" fill="#F0F0F0"/>
<path d="M110.486 0.5H125.486V31.5H110.486V0.5Z" fill="#FADB14"/>
</g>
</svg>
