<svg width="72" height="72" viewBox="0 0 72 72" fill="none" xmlns="http://www.w3.org/2000/svg">
<rect width="72" height="72" rx="36" fill="#023FCB"/>
<path d="M38.0467 52.25H36C35.31 52.25 34.75 51.69 34.75 51C34.75 50.31 35.31 49.75 36 49.75H38.0467C41.9533 49.75 45.13 46.5734 45.13 42.6667C45.13 41.9767 45.69 41.4167 46.38 41.4167C47.07 41.4167 47.63 41.9767 47.63 42.6667C47.63 47.9517 43.3317 52.25 38.0467 52.25Z" fill="white"/>
<path d="M48.8567 31.495C48.2617 24.92 42.7267 19.75 36 19.75C29.2733 19.75 23.7383 24.92 23.1433 31.495C21.215 31.8583 19.75 33.5483 19.75 35.58V39.755C19.75 42.05 21.6167 43.9167 23.9117 43.9167H24.3333C24.5367 43.9167 24.735 43.895 24.9267 43.855C25.4533 45.8033 27.22 47.25 29.3333 47.25H42.6667C44.78 47.25 46.5467 45.805 47.0733 43.855C47.265 43.895 47.4633 43.9167 47.6667 43.9167H48.0883C50.3833 43.9167 52.25 42.05 52.25 39.755V35.58C52.25 33.5483 50.785 31.8583 48.8567 31.495ZM36 22.25C39.61 22.25 42.795 24.0967 44.6633 26.8933C44.0567 26.5967 43.385 26.4167 42.6667 26.4167H29.3333C28.6133 26.4167 27.9417 26.5983 27.3367 26.8933C29.2067 24.0967 32.3917 22.25 36 22.25ZM24.3333 41.4167H23.9117C22.995 41.4167 22.25 40.6717 22.25 39.755V35.58C22.25 34.6633 22.995 33.9167 23.9117 33.9167H24.3333C24.5633 33.9167 24.75 34.1033 24.75 34.3333V41C24.75 41.23 24.5633 41.4167 24.3333 41.4167ZM44.75 42.6667C44.75 43.815 43.815 44.75 42.6667 44.75H29.3333C28.185 44.75 27.25 43.815 27.25 42.6667V31C27.25 29.8517 28.185 28.9167 29.3333 28.9167H42.6667C43.815 28.9167 44.75 29.8517 44.75 31V42.6667ZM49.75 39.755C49.75 40.6717 49.005 41.4167 48.0883 41.4167H47.6667C47.4367 41.4167 47.25 41.23 47.25 41V34.3333C47.25 34.1033 47.4367 33.9167 47.6667 33.9167H48.0883C49.005 33.9167 49.75 34.6617 49.75 35.58V39.755ZM32.6667 37.25C31.9767 37.25 31.4167 36.69 31.4167 36V34.3333C31.4167 33.6433 31.9767 33.0833 32.6667 33.0833C33.3567 33.0833 33.9167 33.6433 33.9167 34.3333V36C33.9167 36.69 33.3567 37.25 32.6667 37.25ZM40.5833 34.3333V36C40.5833 36.69 40.0233 37.25 39.3333 37.25C38.6433 37.25 38.0833 36.69 38.0833 36V34.3333C38.0833 33.6433 38.6433 33.0833 39.3333 33.0833C40.0233 33.0833 40.5833 33.6433 40.5833 34.3333ZM38.9167 41C38.9167 41.69 38.3567 42.25 37.6667 42.25H34.3333C33.6433 42.25 33.0833 41.69 33.0833 41C33.0833 40.31 33.6433 39.75 34.3333 39.75H37.6667C38.3567 39.75 38.9167 40.31 38.9167 41Z" fill="white"/>
</svg>
