<svg width="60" height="60" viewBox="0 0 60 60" fill="none" xmlns="http://www.w3.org/2000/svg">
<g clip-path="url(#clip0_717_3017)">
<g clip-path="url(#clip1_717_3017)">
<path d="M59.0896 30C59.0896 35.7533 57.3835 41.3775 54.1871 46.1612C50.9907 50.9449 46.4476 54.6734 41.1322 56.8751C35.8168 59.0768 29.9678 59.6529 24.325 58.5305C18.6822 57.4081 13.499 54.6376 9.43076 50.5693C5.36253 46.5011 2.59203 41.3178 1.4696 35.675C0.34718 30.0322 0.923249 24.1833 3.12496 18.8679C5.32667 13.5525 9.05514 9.00937 13.8389 5.81298C18.6226 2.61659 24.2468 0.910522 30.0001 0.910522C37.7151 0.910522 45.1141 3.97529 50.5695 9.43062C56.0248 14.886 59.0896 22.285 59.0896 30Z" fill="white" stroke="#023FCB" stroke-width="1.82111" stroke-miterlimit="10"/>
<path d="M55.8026 29.9999C55.8026 35.103 54.2894 40.0914 51.4543 44.3344C48.6192 48.5775 44.5895 51.8845 39.8749 53.8373C35.1603 55.7902 29.9725 56.3012 24.9675 55.3056C19.9626 54.31 15.3652 51.8527 11.7568 48.2443C8.14839 44.6359 5.69104 40.0385 4.69549 35.0335C3.69993 30.0285 4.21089 24.8407 6.16374 20.1261C8.11659 15.4115 11.4236 11.3819 15.6666 8.54681C19.9097 5.71171 24.8981 4.19849 30.0012 4.19849C36.8441 4.19849 43.4068 6.91684 48.2455 11.7556C53.0842 16.5943 55.8026 23.157 55.8026 29.9999Z" fill="white" stroke="#023FCB" stroke-width="0.910553" stroke-miterlimit="10"/>
<path d="M20.0322 31.7338H34.419V34.4308H20.0322V31.7338Z" fill="#023FCB"/>
<path d="M20.0322 26.3387H38.0166V29.0358H20.0322V26.3387Z" fill="#023FCB"/>
<path d="M20.0322 20.9427H39.8158V23.6398H20.0322V20.9427Z" fill="#023FCB"/>
<path d="M20.0322 37.1288H36.2173V39.8268H20.0322V37.1288Z" fill="#023FCB"/>
</g>
</g>
<defs>
<clipPath id="clip0_717_3017">
<rect width="60" height="60" fill="white"/>
</clipPath>
<clipPath id="clip1_717_3017">
<rect width="60" height="60" fill="white"/>
</clipPath>
</defs>
</svg>
