<svg width="28" height="29" viewBox="0 0 28 29" fill="none" xmlns="http://www.w3.org/2000/svg">
<path d="M6.35651 18.653C6.25271 18.5567 6.16789 18.439 6.107 18.307C6.04612 18.1749 6.0104 18.0312 6.00195 17.8841C5.99351 17.737 6.0125 17.5897 6.05781 17.4506C6.10312 17.3115 6.17384 17.1835 6.26582 17.0742L6.35651 16.9768L13.1439 10.347C13.3646 10.1391 13.6442 10.0175 13.9374 10.0017C14.2306 9.98601 14.5202 10.0771 14.7591 10.2603L14.8579 10.347L21.6453 16.9788C21.7567 17.083 21.846 17.2116 21.9072 17.356C21.9683 17.5004 22 17.6573 22 17.8159C22 17.9746 21.9683 18.1314 21.9072 18.2758C21.846 18.4202 21.7567 18.5488 21.6453 18.653C21.4246 18.8609 21.1449 18.9825 20.8517 18.9983C20.5586 19.014 20.269 18.9229 20.0301 18.7397L19.9312 18.653L14.0009 12.8579L8.07058 18.653C7.84985 18.8609 7.57021 18.9825 7.27702 18.9983C6.98383 19.014 6.69429 18.9229 6.45536 18.7397L6.35651 18.653Z" fill="#023FCB"/>
</svg>
