<svg width="30" height="30" viewBox="0 0 30 30" fill="none" xmlns="http://www.w3.org/2000/svg">
<g clip-path="url(#clip0_717_3032)">
<g clip-path="url(#clip1_717_3032)">
<path d="M23.6089 11.116C23.7233 11.2149 23.8168 11.3357 23.884 11.4713C23.9511 11.6069 23.9905 11.7545 23.9998 11.9055C24.0091 12.0565 23.9882 12.2078 23.9382 12.3506C23.8883 12.4934 23.8103 12.6248 23.7089 12.737L23.6089 12.837L16.1249 19.644C15.8815 19.8574 15.5731 19.9823 15.2498 19.9984C14.9266 20.0146 14.6073 19.9211 14.3439 19.733L14.2349 19.644L6.75085 12.835C6.62804 12.728 6.52959 12.5959 6.46213 12.4477C6.39467 12.2994 6.35976 12.1384 6.35976 11.9755C6.35976 11.8126 6.39467 11.6516 6.46213 11.5034C6.52959 11.3551 6.62804 11.223 6.75085 11.116C6.99424 10.9026 7.30258 10.7777 7.62587 10.7616C7.94915 10.7454 8.26841 10.8389 8.53185 11.027L8.64085 11.116L15.1799 17.066L21.7189 11.116C21.9622 10.9026 22.2706 10.7777 22.5939 10.7616C22.9171 10.7454 23.2364 10.8389 23.4999 11.027L23.6089 11.116Z" fill="#023FCB"/>
<mask id="mask0_717_3032" style="mask-type:luminance" maskUnits="userSpaceOnUse" x="6" y="10" width="19" height="11">
<path d="M23.6089 11.116C23.7233 11.2149 23.8168 11.3357 23.884 11.4713C23.9511 11.6069 23.9905 11.7545 23.9998 11.9055C24.0091 12.0565 23.9882 12.2078 23.9382 12.3506C23.8883 12.4934 23.8103 12.6248 23.7089 12.737L23.6089 12.837L16.1249 19.644C15.8815 19.8574 15.5731 19.9823 15.2498 19.9984C14.9266 20.0146 14.6073 19.9211 14.3439 19.733L14.2349 19.644L6.75085 12.835C6.62804 12.728 6.52959 12.5959 6.46213 12.4477C6.39467 12.2994 6.35976 12.1384 6.35976 11.9755C6.35976 11.8126 6.39467 11.6516 6.46213 11.5034C6.52959 11.3551 6.62804 11.223 6.75085 11.116C6.99424 10.9026 7.30258 10.7777 7.62587 10.7616C7.94915 10.7454 8.26841 10.8389 8.53185 11.027L8.64085 11.116L15.1799 17.066L21.7189 11.116C21.9622 10.9026 22.2706 10.7777 22.5939 10.7616C22.9171 10.7454 23.2364 10.8389 23.4999 11.027L23.6089 11.116Z" fill="white"/>
</mask>
<g mask="url(#mask0_717_3032)">
<path d="M178.751 184.131L178.751 -127.111L-163.358 -127.111V184.131H178.751Z" fill="#023FCB"/>
</g>
</g>
</g>
<defs>
<clipPath id="clip0_717_3032">
<rect width="30" height="30" fill="white"/>
</clipPath>
<clipPath id="clip1_717_3032">
<rect width="30" height="30" fill="white"/>
</clipPath>
</defs>
</svg>
